CourierBadi-BoldContrast.ufo
<glyph name="exclam" format="2">
  <advance width="1228"/>
  <unicode hex="0021"/>
  <outline>
    <contour>
      <point x="549.0" y="1289.0" type="line" smooth="yes"/>
      <point x="503.5116514661693" y="1287.9302037635707"/>
      <point x="458.12106559815567" y="1258.2972356535024"/>
      <point x="460.11298175580646" y="1217.6285725907155" type="curve" smooth="yes"/>
      <point x="508.1097858968481" y="510.6480856452362" type="line" smooth="yes"/>
      <point x="515.0674948320041" y="472.05572809000085"/>
      <point x="566.0568830260625" y="444.86238846714457"/>
      <point x="614.0" y="444.0" type="curve" smooth="yes"/>
      <point x="663.1747010007645" y="444.89194718034196"/>
      <point x="712.6351114989257" y="472.66690579013573"/>
      <point x="718.8857945700167" y="510.6211746143457" type="curve" smooth="yes"/>
      <point x="767.882560556002" y="1217.6018120232973" type="line" smooth="yes"/>
      <point x="769.8789344018443" y="1258.2972356535024"/>
      <point x="724.4883485338306" y="1287.9302037635707"/>
      <point x="679.0" y="1289.0" type="curve" smooth="yes"/>
    </contour>
    <contour>
      <point x="441.0" y="207.0" type="curve" smooth="yes"/>
      <point x="441.0" y="53.0" type="line" smooth="yes"/>
      <point x="447.6102786962862" y="-2.1284370915172683"/>
      <point x="519.1585680191893" y="-29.795810129660595"/>
      <point x="614.0" y="-30.0" type="curve" smooth="yes"/>
      <point x="708.8414319808107" y="-29.795810129660595"/>
      <point x="780.3897213037138" y="-2.1284370915172683"/>
      <point x="787.0" y="53.0" type="curve" smooth="yes"/>
      <point x="787.0" y="207.0" type="line" smooth="yes"/>
      <point x="780.3897213037138" y="262.12843709151724"/>
      <point x="708.8414319808107" y="289.7958101296606"/>
      <point x="614.0" y="290.0" type="curve" smooth="yes"/>
      <point x="519.1585680191893" y="289.7958101296606"/>
      <point x="447.6102786962862" y="262.12843709151724"/>
    </contour>
  </outline>
</glyph>
<glyph name="numbersign" format="2">
  <advance width="1228"/>
  <unicode hex="0023"/>
  <outline>
    <contour>
      <point x="849.5446384305192" y="1181.032867346131" type="curve" smooth="yes"/>
      <point x="782.8633064387379" y="879.7969475787302" type="line"/>
      <point x="593.6340859197788" y="876.2786539908558" type="line"/>
      <point x="672.4531633068542" y="1136.9636112545872" type="line" smooth="yes"/>
      <point x="680.5630008823033" y="1192.3983397223346"/>
      <point x="609.1559050058598" y="1228.1104717579108"/>
      <point x="556.0" y="1229.0" type="curve" smooth="yes"/>
      <point x="522.210195802624" y="1228.579608394752"/>
      <point x="472.4828764769947" y="1212.4534558799262"/>
      <point x="455.5446384305192" y="1181.032867346131" type="curve" smooth="yes"/>
      <point x="387.10605830308356" y="879.0964424890143" type="line"/>
      <point x="193.0" y="885.0" type="line" smooth="yes"/>
      <point x="133.47620164351173" y="884.0624853428908"/>
      <point x="83.43315999302408" y="849.8507125007267"/>
      <point x="82.0" y="793.0" type="curve" smooth="yes"/>
      <point x="83.43315999302408" y="736.1492874992733"/>
      <point x="133.47620164351173" y="701.9375146571092"/>
      <point x="193.0" y="701.0" type="curve" smooth="yes"/>
      <point x="341.1119414122592" y="711.7936508364097" type="line"/>
      <point x="287.1672081056073" y="490.57480455557857" type="line"/>
      <point x="123.0" y="496.0" type="line" smooth="yes"/>
      <point x="63.47620164351173" y="495.06248534289085"/>
      <point x="13.43315999302407" y="460.8507125007267"/>
      <point x="12.0" y="404.0" type="curve" smooth="yes"/>
      <point x="13.43315999302407" y="347.1492874992733"/>
      <point x="63.47620164351173" y="312.93751465710915"/>
      <point x="123.0" y="312.0" type="curve" smooth="yes"/>
      <point x="236.58083998289106" y="326.32050844462975" type="line"/>
      <point x="161.54674755381205" y="50.03624600415464" type="line" smooth="yes"/>
      <point x="153.43699911769667" y="-5.398339722334596"/>
      <point x="224.8440949941401" y="-41.11047175791085"/>
      <point x="278.0" y="-42.0" type="curve" smooth="yes"/>
      <point x="311.78980419737604" y="-41.5796083947521"/>
      <point x="361.5171235230053" y="-25.453455879926253"/>
      <point x="378.455382887704" y="5.967166816432853" type="curve" smooth="yes"/>
      <point x="448.15984373603135" y="317.3655319597327" type="line"/>
      <point x="636.3599547060907" y="321.09994393890264" type="line"/>
      <point x="555.5467486038916" y="50.03624768570089" type="line" smooth="yes"/>
      <point x="547.4369991176967" y="-5.398339722334596"/>
      <point x="618.8440949941402" y="-41.11047175791085"/>
      <point x="672.0" y="-42.0" type="curve" smooth="yes"/>
      <point x="705.789804197376" y="-41.5796083947521"/>
      <point x="755.5171235230052" y="-25.453455879926253"/>
      <point x="772.4553818840013" y="5.967165207988562" type="curve" smooth="yes"/>
      <point x="844.0243435975806" y="318.1297543043132" type="line"/>
      <point x="1035.0" y="312.0" type="line" smooth="yes"/>
      <point x="1094.5237983564882" y="312.93751465710915"/>
      <point x="1144.566840006976" y="347.1492874992733"/>
      <point x="1146.0" y="404.0" type="curve" smooth="yes"/>
      <point x="1144.566840006976" y="460.8507125007267"/>
      <point x="1094.5237983564882" y="495.06248534289085"/>
      <point x="1035.0" y="496.0" type="curve" smooth="yes"/>
      <point x="889.6715677054951" y="485.05691795029077" type="line"/>
      <point x="943.6068003283967" y="706.49388230954" type="line"/>
      <point x="1105.0" y="701.0" type="line" smooth="yes"/>
      <point x="1164.5237983564882" y="701.9375146571092"/>
      <point x="1214.566840006976" y="736.1492874992733"/>
      <point x="1216.0" y="793.0" type="curve" smooth="yes"/>
      <point x="1214.566840006976" y="849.8507125007267"/>
      <point x="1164.5237983564882" y="884.0624853428908"/>
      <point x="1105.0" y="885.0" type="curve" smooth="yes"/>
      <point x="993.8828146526871" y="870.8671639597757" type="line"/>
      <point x="1066.453163306854" y="1136.9636112545872" type="line" smooth="yes"/>
      <point x="1074.5630008823034" y="1192.3983397223346"/>
      <point x="1003.1559050058598" y="1228.1104717579108"/>
      <point x="950.0" y="1229.0" type="curve" smooth="yes"/>
      <point x="916.210195802624" y="1228.579608394752"/>
      <point x="866.4828764769948" y="1212.4534558799262"/>
    </contour>
    <contour>
      <point x="545.4651526921084" y="705.032226014507" type="line"/>
      <point x="740.3524064740762" y="708.4490279095929" type="line"/>
      <point x="685.1342735774228" y="491.967773985493" type="line"/>
      <point x="490.2470503130331" y="488.5509720904071" type="line"/>
    </contour>
  </outline>
</glyph>
<glyph name="dollar" format="2">
  <advance width="1228"/>
  <unicode hex="0024"/>
  <outline>
    <contour>
      <point x="137.0" y="817.0" type="curve" smooth="yes"/>
      <point x="139.56080450959308" y="687.5547240439139"/>
      <point x="222.49444527238634" y="612.3257539703737"/>
      <point x="320.64711394913763" y="573.5196633515621" type="curve" smooth="yes"/>
      <point x="474.32620253291424" y="513.1942575168968"/>
      <point x="683.1362736829782" y="523.1029377940018"/>
      <point x="788.4301411159394" y="481.22945673290013" type="curve" smooth="yes"/>
      <point x="838.2336385375925" y="461.6236508175794"/>
      <point x="853.3657865495843" y="439.6427120686128"/>
      <point x="850.0" y="388.0" type="curve" smooth="yes"/>
      <point x="855.0674948320041" y="297.94427190999915"/>
      <point x="801.7318186495384" y="239.33572060670582"/>
      <point x="637.0" y="240.0" type="curve" smooth="yes"/>
      <point x="512.608284270833" y="239.80955585816838"/>
      <point x="396.44803327907863" y="274.4638821049198"/>
      <point x="297.2430268770668" y="334.26164888398745" type="curve" smooth="yes"/>
      <point x="254.64171000174397" y="354.40285000290663"/>
      <point x="179.68149261195686" y="346.3968859084137"/>
      <point x="144.06749483200403" y="289.94427190999915" type="curve" smooth="yes"/>
      <point x="115.60650636187135" y="235.16931799020406"/>
      <point x="138.75494072277797" y="186.42289383188773"/>
      <point x="188.43043774883557" y="161.5771754541851" type="curve" smooth="yes"/>
      <point x="290.0324253143796" y="105.63162001630901"/>
      <point x="410.0587395256434" y="71.63318549086958"/>
      <point x="494.60163428258454" y="70.70157405725448" type="curve"/>
      <point x="490.0" y="-160.0" type="line" smooth="yes"/>
      <point x="492.3246139419059" y="-212.1486096616665"/>
      <point x="546.4263696796205" y="-244.3016254918107"/>
      <point x="608.0" y="-245.0" type="curve" smooth="yes"/>
      <point x="669.5736303203795" y="-244.3016254918107"/>
      <point x="723.6753860580941" y="-212.1486096616665"/>
      <point x="726.0" y="-160.0" type="curve" smooth="yes"/>
      <point x="711.7629381263023" y="60.479091003480264" type="line"/>
      <point x="941.804287635538" y="66.1775988322275"/>
      <point x="1096.2988388945737" y="201.31639247454345"/>
      <point x="1100.0" y="388.0" type="curve" smooth="yes"/>
      <point x="1097.227808485396" y="535.6984313515101"/>
      <point x="1002.2730031670615" y="616.0032437209587"/>
      <point x="893.1102424763906" y="656.6861858623738" type="curve" smooth="yes"/>
      <point x="734.237263249502" y="713.8304293530364"/>
      <point x="529.7458622380002" y="703.9020029335492"/>
      <point x="432.8852845186004" y="743.7216784563577" type="curve" smooth="yes"/>
      <point x="392.2192649261489" y="760.2674388825321"/>
      <point x="383.69073719968867" y="777.2974739796789"/>
      <point x="387.0" y="817.0" type="curve" smooth="yes"/>
      <point x="380.9344865450297" y="909.2683681013644"/>
      <point x="438.2170527559331" y="955.5537701478244"/>
      <point x="572.0" y="955.0" type="curve" smooth="yes"/>
      <point x="688.8510821751441" y="955.1647812101423"/>
      <point x="794.5241561392161" y="925.3726470476141"/>
      <point x="892.4117647058823" y="871.3529411764706" type="curve" smooth="yes"/>
      <point x="937.1496874737302" y="852.4256610054895"/>
      <point x="1011.8620831908689" y="862.2523035036008"/>
      <point x="1043.7561643306735" y="919.7778449378636" type="curve" smooth="yes"/>
      <point x="1070.5738570780495" y="975.3408921348652"/>
      <point x="1045.599987115289" y="1023.8621743250357"/>
      <point x="995.2232528321083" y="1047.7273282123574" type="curve" smooth="yes"/>
      <point x="900.4771203765035" y="1095.4931068287265"/>
      <point x="791.8635814039052" y="1124.0227631598361"/>
      <point x="722.0519050505335" y="1123.3186292262008" type="curve"/>
      <point x="726.0" y="1347.0" type="line" smooth="yes"/>
      <point x="723.6753860580941" y="1399.1486096616666"/>
      <point x="669.5736303203795" y="1431.3016254918107"/>
      <point x="608.0" y="1432.0" type="curve" smooth="yes"/>
      <point x="546.4263696796205" y="1431.3016254918107"/>
      <point x="492.3246139419059" y="1399.1486096616666"/>
      <point x="490.0" y="1347.0" type="curve" smooth="yes"/>
      <point x="501.73378299855835" y="1133.4238070386618" type="line"/>
      <point x="318.4294760278027" y="1129.9715901319753"/>
      <point x="142.1472275841414" y="1013.944674782907"/>
    </contour>
  </outline>
</glyph>
<glyph name="percent" format="2">
  <advance width="1228"/>
  <unicode hex="0025"/>
  <outline>
    <contour>
      <point x="570.0" y="252.0" type="curve" smooth="yes"/>
      <point x="575.4429668732857" y="93.0212839272251"/>
      <point x="728.0343271088673" y="-40.34317807024114"/>
      <point x="904.0" y="-42.0" type="curve" smooth="yes"/>
      <point x="1079.9656728911325" y="-40.34317807024114"/>
      <point x="1232.5570331267143" y="93.0212839272251"/>
      <point x="1238.0" y="252.0" type="curve" smooth="yes"/>
      <point x="1232.5570331267143" y="410.9787160727749"/>
      <point x="1079.9656728911325" y="544.3431780702412"/>
      <point x="904.0" y="546.0" type="curve" smooth="yes"/>
      <point x="728.0343271088673" y="544.3431780702412"/>
      <point x="575.4429668732857" y="410.9787160727749"/>
    </contour>
    <contour>
      <point x="-10.0" y="935.0" type="curve" smooth="yes"/>
      <point x="-4.557033126714323" y="776.0212839272251"/>
      <point x="148.03432710886733" y="642.656821929759"/>
      <point x="324.0" y="641.0" type="curve" smooth="yes"/>
      <point x="499.96567289113267" y="642.6568219297588"/>
      <point x="652.5570331267143" y="776.0212839272251"/>
      <point x="658.0" y="935.0" type="curve" smooth="yes"/>
      <point x="652.5570331267143" y="1093.978716072775"/>
      <point x="499.96567289113267" y="1227.343178070241"/>
      <point x="324.0" y="1229.0" type="curve" smooth="yes"/>
      <point x="148.03432710886733" y="1227.343178070241"/>
      <point x="-4.557033126714323" y="1093.978716072775"/>
    </contour>
    <contour>
      <point x="87.66104280061802" y="243.52073441963813" type="line" smooth="yes"/>
      <point x="41.17823356055059" y="208.38636940640066"/>
      <point x="43.732765779617495" y="156.11024319295598"/>
      <point x="86.61204823203715" y="120.19802762766216" type="curve" smooth="yes"/>
      <point x="133.54083112760057" y="84.43154348368604"/>
      <point x="213.40327357142493" y="80.2099523343107"/>
      <point x="266.27827802717115" y="114.51028211866289" type="curve" smooth="yes"/>
      <point x="1140.338957199382" y="944.4792655803619" type="line" smooth="yes"/>
      <point x="1186.8217664394494" y="979.6136305935993"/>
      <point x="1184.2672342203825" y="1031.8897568070443"/>
      <point x="1141.387951767963" y="1067.801972372338" type="curve" smooth="yes"/>
      <point x="1094.4591688723995" y="1103.5684565163137"/>
      <point x="1014.5967264285752" y="1107.7900476656894"/>
      <point x="961.721721972829" y="1073.4897178813371" type="curve" smooth="yes"/>
    </contour>
    <contour>
      <point x="988.0" y="252.0" type="curve" smooth="yes"/>
      <point x="992.8545041492479" y="181.81016532111718"/>
      <point x="959.3955004573188" y="125.98196971368246"/>
      <point x="904.0" y="128.0" type="curve" smooth="yes"/>
      <point x="848.6044995426812" y="125.98196971368246"/>
      <point x="815.1454958507521" y="181.81016532111718"/>
      <point x="820.0" y="252.0" type="curve" smooth="yes"/>
      <point x="815.1454958507521" y="322.18983467888285"/>
      <point x="848.6044995426812" y="378.0180302863175"/>
      <point x="904.0" y="376.0" type="curve" smooth="yes"/>
      <point x="959.3955004573188" y="378.0180302863175"/>
      <point x="992.8545041492479" y="322.18983467888285"/>
    </contour>
    <contour>
      <point x="408.0" y="935.0" type="curve" smooth="yes"/>
      <point x="412.8545041492479" y="864.8101653211172"/>
      <point x="379.3955004573189" y="808.9819697136825"/>
      <point x="324.0" y="811.0" type="curve" smooth="yes"/>
      <point x="268.6044995426811" y="808.9819697136825"/>
      <point x="235.14549585075216" y="864.8101653211172"/>
      <point x="240.0" y="935.0" type="curve" smooth="yes"/>
      <point x="235.14549585075216" y="1005.1898346788828"/>
      <point x="268.6044995426811" y="1061.0180302863175"/>
      <point x="324.0" y="1059.0" type="curve" smooth="yes"/>
      <point x="379.3955004573189" y="1061.0180302863175"/>
      <point x="412.8545041492479" y="1005.1898346788828"/>
    </contour>
  </outline>
</glyph>
<glyph name="ampersand" format="2">
  <advance width="1228"/>
  <unicode hex="0026"/>
  <outline>
    <contour>
      <point x="216.0" y="920.0" type="curve" smooth="yes"/>
      <point x="216.76999003956325" y="811.3189562335047"/>
      <point x="256.2291793840228" y="725.4762480243535"/>
      <point x="310.85770536225954" y="668.4115459920556" type="curve"/>
      <point x="205.7458917653928" y="591.1752589547879"/>
      <point x="111.26679699994979" y="478.56868638614793"/>
      <point x="109.0" y="320.0" type="curve" smooth="yes"/>
      <point x="112.17580735764287" y="128.84604137896105"/>
      <point x="268.66444549599083" y="-40.30554869973443"/>
      <point x="516.0" y="-42.0" type="curve" smooth="yes"/>
      <point x="656.7111446688845" y="-41.36755093732086"/>
      <point x="779.8674077634573" y="22.707278345137286"/>
      <point x="825.6363613345538" y="116.22337683802168" type="curve"/>
      <point x="918.6026817694345" y="-9.508162797633677" type="line" smooth="yes"/>
      <point x="957.2432084943191" y="-41.60942199844351"/>
      <point x="1021.768989997181" y="-42.88993593412318"/>
      <point x="1072.4669718670457" y="-17.44684999919243" type="curve" smooth="yes"/>
      <point x="1131.2455117092522" y="12.98583970231492"/>
      <point x="1148.8554112765905" y="63.119906551839755"/>
      <point x="1108.4521401276247" y="103.48317985318533" type="curve" smooth="yes"/>
      <point x="964.013715905589" y="265.62530512300583" type="line"/>
      <point x="1017.5766214702024" y="346.2648267574473"/>
      <point x="1063.6023291984081" y="462.7838842870325"/>
      <point x="1099.1559719590673" y="585.5096952163858" type="curve" smooth="yes"/>
      <point x="1113.8878031283252" y="635.6333389518172"/>
      <point x="1080.4586105801136" y="681.6757583269413"/>
      <point x="1005.0796107392848" y="692.7812653009429" type="curve" smooth="yes"/>
      <point x="944.0" y="701.0"/>
      <point x="881.293598818799" y="684.2376607116606"/>
      <point x="861.7354245433075" y="633.3292474227009" type="curve" smooth="yes"/>
      <point x="837.6731949007059" y="543.4519311418375"/>
      <point x="808.792979105935" y="456.76257007576044"/>
      <point x="843.9276932242313" y="388.32418822294153" type="curve"/>
      <point x="552.4889828635439" y="712.4663424008962" type="line" smooth="yes"/>
      <point x="492.50396983402186" y="780.9420207191985"/>
      <point x="464.6913784743714" y="836.6382164047388"/>
      <point x="466.0" y="920.0" type="curve" smooth="yes"/>
      <point x="463.11663432924945" y="1021.17264861933"/>
      <point x="511.32242488897117" y="1102.8809921464817"/>
      <point x="617.0" y="1101.0" type="curve" smooth="yes"/>
      <point x="693.3475895041522" y="1101.2557998424438"/>
      <point x="756.8912561122559" y="1077.0377472786215"/>
      <point x="819.5653285462337" y="1033.3062296157857" type="curve" smooth="yes"/>
      <point x="860.5091981746687" y="1011.9331554929852"/>
      <point x="937.3411018593342" y="1015.8518007679885"/>
      <point x="975.3297157257438" y="1071.570112833374" type="curve" smooth="yes"/>
      <point x="1006.800550702718" y="1127.556909743413"/>
      <point x="986.678119019864" y="1173.379294632449"/>
      <point x="940.3798862362112" y="1198.975581802729" type="curve" smooth="yes"/>
      <point x="849.3368852272679" y="1254.1161908633708"/>
      <point x="736.416946410641" y="1288.7597940990563"/>
      <point x="618.0" y="1289.0" type="curve" smooth="yes"/>
      <point x="381.95676707801357" y="1287.3586722613923"/>
      <point x="219.31926157886846" y="1123.3080959451947"/>
    </contour>
    <contour>
      <point x="693.5588942634163" y="233.74070806455165" type="line"/>
      <point x="643.7142230052581" y="186.27450059200737"/>
      <point x="590.6219439870578" y="145.23869110239744"/>
      <point x="516.0" y="146.0" type="curve" smooth="yes"/>
      <point x="413.0695737060072" y="144.69264214600148"/>
      <point x="354.96514321360434" y="212.02628258839425"/>
      <point x="359.0" y="320.0" type="curve" smooth="yes"/>
      <point x="357.1866049383808" y="412.3561472376381"/>
      <point x="391.55586350747024" y="471.7825325773078"/>
      <point x="425.0998054762816" y="537.9425374521185" type="curve"/>
    </contour>
  </outline>
</glyph>
<glyph name="quotesingle" format="2">
  <advance width="1228"/>
  <unicode hex="0027"/>
  <outline>
    <contour>
      <point x="532.0" y="1289.0" type="line" smooth="yes"/>
      <point x="486.82106723119176" y="1287.9736659610103"/>
      <point x="440.12106559815567" y="1258.2972356535024"/>
      <point x="443.351272349391" y="1216.584815351043" type="curve" smooth="yes"/>
      <point x="498.35270941106427" y="766.5798982913677" type="line" smooth="yes"/>
      <point x="507.7122673936531" y="725.5374672408637"/>
      <point x="560.6828003294745" y="695.9104004392995"/>
      <point x="614.0" y="695.0" type="curve" smooth="yes"/>
      <point x="668.3171996705255" y="695.9104004392995"/>
      <point x="720.6122175095486" y="725.7936567109"/>
      <point x="729.6472905889357" y="766.5798982913677" type="curve" smooth="yes"/>
      <point x="784.648727650609" y="1216.584815351043" type="line" smooth="yes"/>
      <point x="787.8789344018443" y="1258.2972356535024"/>
      <point x="741.1789327688082" y="1287.9736659610103"/>
      <point x="696.0" y="1289.0" type="curve" smooth="yes"/>
    </contour>
  </outline>
</glyph>
<glyph name="parenleft" format="2">
  <advance width="1228"/>
  <unicode hex="0028"/>
  <outline>
    <contour>
      <point x="249.0" y="517.0" type="curve" smooth="yes"/>
      <point x="251.65566411673024" y="87.43976622059176"/>
      <point x="514.7079768427942" y="-217.79738880173582"/>
      <point x="746.4001019891359" y="-354.1737698585778" type="curve" smooth="yes"/>
      <point x="803.246784115366" y="-373.95419404235355"/>
      <point x="864.9535996492546" y="-346.7072939800998"/>
      <point x="889.1596604342021" y="-313.28991510855053" type="curve" smooth="yes"/>
      <point x="911.1291499835736" y="-279.8129755409984"/>
      <point x="919.4082154641007" y="-228.89217754325935"/>
      <point x="878.3715006420862" y="-203.28889282228914" type="curve" smooth="yes"/>
      <point x="686.0957696422975" y="-75.12866775453656"/>
      <point x="490.3850495476423" y="152.5111719902919"/>
      <point x="493.0" y="517.0" type="curve" smooth="yes"/>
      <point x="490.41647031894144" y="881.5269760661083"/>
      <point x="686.288294111823" y="1113.2011985320812"/>
      <point x="878.3715006420862" y="1241.2888928222892" type="curve" smooth="yes"/>
      <point x="919.4082154641007" y="1266.8921775432593"/>
      <point x="911.1291499835736" y="1317.8129755409984"/>
      <point x="889.1596604342021" y="1351.2899151085505" type="curve" smooth="yes"/>
      <point x="864.9535996492546" y="1384.7072939800998"/>
      <point x="803.246784115366" y="1411.9541940423535"/>
      <point x="746.4001019891359" y="1392.1737698585778" type="curve" smooth="yes"/>
      <point x="514.5449519463473" y="1255.735337909417"/>
      <point x="251.62876065785719" y="946.5278601723847"/>
    </contour>
  </outline>
</glyph>
<glyph name="parenright" format="2">
  <advance width="1228"/>
  <unicode hex="0029"/>
  <outline>
    <contour>
      <point x="338.8403395657979" y="1351.2899151085505" type="curve" smooth="yes"/>
      <point x="316.8708500164264" y="1317.8129755409984"/>
      <point x="308.5917845358993" y="1266.8921775432593"/>
      <point x="349.6284993579138" y="1241.2888928222892" type="curve" smooth="yes"/>
      <point x="541.711705888177" y="1113.2011985320812"/>
      <point x="737.5835296810585" y="881.5269760661083"/>
      <point x="735.0" y="517.0" type="curve" smooth="yes"/>
      <point x="737.6149504523577" y="152.5111719902919"/>
      <point x="541.9042303577025" y="-75.12866775453656"/>
      <point x="349.6284993579138" y="-203.28889282228914" type="curve" smooth="yes"/>
      <point x="308.5917845358993" y="-228.89217754325935"/>
      <point x="316.8708500164264" y="-279.8129755409984"/>
      <point x="338.8403395657979" y="-313.28991510855053" type="curve" smooth="yes"/>
      <point x="363.04640035074544" y="-346.7072939800998"/>
      <point x="424.753215884634" y="-373.95419404235355"/>
      <point x="481.5998980108641" y="-354.1737698585778" type="curve" smooth="yes"/>
      <point x="713.2920231572058" y="-217.79738880173582"/>
      <point x="976.3443358832698" y="87.43976622059176"/>
      <point x="979.0" y="517.0" type="curve" smooth="yes"/>
      <point x="976.3712393421429" y="946.5278601723847"/>
      <point x="713.4550480536527" y="1255.735337909417"/>
      <point x="481.5998980108641" y="1392.1737698585778" type="curve" smooth="yes"/>
      <point x="424.753215884634" y="1411.9541940423535"/>
      <point x="363.04640035074544" y="1384.7072939800998"/>
    </contour>
  </outline>
</glyph>
<glyph name="asterisk" format="2">
  <advance width="1228"/>
  <unicode hex="002A"/>
  <outline>
    <contour>
      <point x="1059.6787658786664" y="627.4108098692996" type="line" smooth="yes"/>
      <point x="1133.7391740037367" y="643.118597296932"/>
      <point x="1182.8936875771171" y="699.6696197895245"/>
      <point x="1160.7122106207294" y="771.1009135268552" type="curve" smooth="yes"/>
      <point x="1131.5698620027094" y="841.4478458442711"/>
      <point x="1046.5788435038705" y="867.9745410930686"/>
      <point x="975.1392836363921" y="842.2076751669965" type="curve" smooth="yes"/>
      <point x="693.0736941133313" y="689.80847598247" type="line"/>
      <point x="754.6847538061351" y="1027.7115835757875" type="line" smooth="yes"/>
      <point x="759.3633726154347" y="1094.1780398969129"/>
      <point x="698.2006597120838" y="1145.6717687664068"/>
      <point x="614.0" y="1147.0" type="curve" smooth="yes"/>
      <point x="529.9495474900685" y="1145.695671611767"/>
      <point x="467.6366273845653" y="1094.1780398969129"/>
      <point x="473.31888935681656" y="1027.698442260886" type="curve" smooth="yes"/>
      <point x="534.2048703397937" y="689.8076214902825" type="line"/>
      <point x="252.89177733584899" y="842.2017875077112" type="line" smooth="yes"/>
      <point x="181.39700561330682" y="867.9750467775569"/>
      <point x="95.43013799729066" y="841.4478458442711"/>
      <point x="67.28778937927052" y="771.1009135268552" type="curve" smooth="yes"/>
      <point x="44.07817594764912" y="699.8590041892297"/>
      <point x="93.26082599626329" y="643.118597296932"/>
      <point x="167.33734284125467" y="627.4094292778151" type="curve" smooth="yes"/>
      <point x="484.1311350607106" y="569.8819324684425" type="line"/>
      <point x="243.4244323000398" y="311.4266201615585" type="line" smooth="yes"/>
      <point x="194.36578654958436" y="261.3572879313872"/>
      <point x="203.27358720821667" y="195.77462473795393"/>
      <point x="270.00007788961426" y="150.75531945072558" type="curve" smooth="yes"/>
      <point x="342.0061119811737" y="108.53165663332848"/>
      <point x="431.00522759037636" y="127.7322742926177"/>
      <point x="472.6008568348532" y="184.0228671992069" type="curve" smooth="yes"/>
      <point x="613.6361694335938" y="494.1590576171875" type="line"/>
      <point x="755.3859478938882" y="184.03242524944235" type="line" smooth="yes"/>
      <point x="795.7235881026786" y="127.82860616920978"/>
      <point x="885.89267346754" y="107.52178182019745"/>
      <point x="958.1686001856646" y="150.80602626457048" type="curve" smooth="yes"/>
      <point x="1023.9384141282164" y="194.9059960754954"/>
      <point x="1032.6996534258762" y="261.2879869716102"/>
      <point x="983.5755645528517" y="311.42662160924436" type="curve" smooth="yes"/>
      <point x="742.9809254861644" y="569.7581531715675" type="line"/>
    </contour>
  </outline>
</glyph>
<glyph name="plus" format="2">
  <advance width="1228"/>
  <unicode hex="002B"/>
  <outline>
    <contour>
      <point x="233.0" y="674.0" type="line" smooth="yes"/>
      <point x="173.47620164351173" y="673.0624853428908"/>
      <point x="123.43315999302408" y="638.8507125007267"/>
      <point x="122.0" y="582.0" type="curve" smooth="yes"/>
      <point x="123.43315999302408" y="525.1492874992733"/>
      <point x="173.47620164351173" y="490.93751465710915"/>
      <point x="233.0" y="490.0" type="curve" smooth="yes"/>
      <point x="508.05887450304573" y="495.85786437626905" type="line"/>
      <point x="494.0" y="201.0" type="line" smooth="yes"/>
      <point x="496.25003517706193" y="149.9484173514632"/>
      <point x="550.358289998256" y="118.59714999709337"/>
      <point x="614.0" y="118.0" type="curve" smooth="yes"/>
      <point x="677.641710001744" y="118.59714999709337"/>
      <point x="731.7499648229381" y="149.9484173514632"/>
      <point x="734.0" y="201.0" type="curve" smooth="yes"/>
      <point x="719.9411254969543" y="495.85786437626905" type="line"/>
      <point x="995.0" y="490.0" type="line" smooth="yes"/>
      <point x="1054.5237983564882" y="490.93751465710915"/>
      <point x="1104.566840006976" y="525.1492874992733"/>
      <point x="1106.0" y="582.0" type="curve" smooth="yes"/>
      <point x="1104.566840006976" y="638.8507125007267"/>
      <point x="1054.5237983564882" y="673.0624853428908"/>
      <point x="995.0" y="674.0" type="curve" smooth="yes"/>
      <point x="719.9411254969543" y="668.142135623731" type="line"/>
      <point x="734.0" y="963.0" type="line" smooth="yes"/>
      <point x="731.7499648229381" y="1014.0515826485367"/>
      <point x="677.641710001744" y="1045.4028500029067"/>
      <point x="614.0" y="1046.0" type="curve" smooth="yes"/>
      <point x="550.358289998256" y="1045.4028500029067"/>
      <point x="496.25003517706193" y="1014.0515826485367"/>
      <point x="494.0" y="963.0" type="curve" smooth="yes"/>
      <point x="508.05887450304573" y="668.142135623731" type="line"/>
    </contour>
  </outline>
</glyph>
<glyph name="comma" format="2">
  <advance width="1228"/>
  <unicode hex="002C"/>
  <outline>
    <contour>
      <point x="520.0" y="314.0" type="line" smooth="yes"/>
      <point x="478.2971238431921" y="313.1677136717254"/>
      <point x="431.8403395657979" y="290.28991510855053"/>
      <point x="420.8863269182602" y="257.82566735161765" type="curve" smooth="yes"/>
      <point x="326.88433412393147" y="-224.17859580203643" type="line" smooth="yes"/>
      <point x="319.0447619950828" y="-274.1500841671013"/>
      <point x="373.8838792557989" y="-313.115580174439"/>
      <point x="444.0" y="-314.0" type="curve" smooth="yes"/>
      <point x="498.30524821534624" y="-313.6983451261417"/>
      <point x="552.3575335221061" y="-294.96647704150655"/>
      <point x="573.9755520753051" y="-261.01637668039416" type="curve" smooth="yes"/>
      <point x="785.9774965897471" y="222.9854754930374" type="line" smooth="yes"/>
      <point x="804.8495388436642" y="264.41767398003753"/>
      <point x="773.1923122289968" y="310.7599616941497"/>
      <point x="714.0" y="314.0" type="curve" smooth="yes"/>
    </contour>
  </outline>
</glyph>
<glyph name="hyphen" format="2">
  <advance width="1228"/>
  <unicode hex="002D"/>
  <outline>
    <contour>
      <point x="232.94929806292768" y="674.0000266195593" type="line" smooth="yes"/>
      <point x="166.52472512275222" y="673.7685665483209"/>
      <point x="112.87076156450203" y="637.0521289176663"/>
      <point x="110.0" y="582.0" type="curve" smooth="yes"/>
      <point x="112.87076156450203" y="526.9478710823337"/>
      <point x="166.52472512275222" y="490.2314334516792"/>
      <point x="232.94929806292765" y="489.99997338044074" type="curve" smooth="yes"/>
      <point x="995.0507019370723" y="489.99997338044074" type="line" smooth="yes"/>
      <point x="1061.4752748772478" y="490.2314334516792"/>
      <point x="1115.1292384354979" y="526.9478710823337"/>
      <point x="1118.0" y="582.0" type="curve" smooth="yes"/>
      <point x="1115.1292384354979" y="637.0521289176663"/>
      <point x="1061.4752748772478" y="673.7685665483209"/>
      <point x="995.0507019370723" y="674.0000266195593" type="curve" smooth="yes"/>
    </contour>
  </outline>
</glyph>
<glyph name="period" format="2">
  <advance width="1228"/>
  <unicode hex="002E"/>
  <outline>
    <contour>
      <point x="431.0" y="237.0" type="curve" smooth="yes"/>
      <point x="431.0" y="53.0" type="line" smooth="yes"/>
      <point x="438.4777848681054" y="-2.720162733305447"/>
      <point x="512.6561414356312" y="-29.824558013652695"/>
      <point x="614.0" y="-30.0" type="curve" smooth="yes"/>
      <point x="715.3438585643688" y="-29.824558013652695"/>
      <point x="789.5222151318945" y="-2.720162733305447"/>
      <point x="797.0" y="53.0" type="curve" smooth="yes"/>
      <point x="797.0" y="237.0" type="line" smooth="yes"/>
      <point x="789.5222151318945" y="292.7201627333055"/>
      <point x="715.3438585643688" y="319.8245580136527"/>
      <point x="614.0" y="320.0" type="curve" smooth="yes"/>
      <point x="512.6561414356312" y="319.8245580136527"/>
      <point x="438.4777848681054" y="292.7201627333055"/>
    </contour>
  </outline>
</glyph>
<glyph name="zero" format="2">
  <advance width="1228"/>
  <unicode hex="0030"/>
  <outline>
    <contour>
      <point x="142.0" y="593.0" type="curve" smooth="yes"/>
      <point x="143.62072289914016" y="217.84674698879334"/>
      <point x="329.9850422547994" y="-39.31690830606304"/>
      <point x="614.0" y="-42.0" type="curve" smooth="yes"/>
      <point x="898.0149577452006" y="-39.31690830606304"/>
      <point x="1084.3792771008598" y="217.84674698879334"/>
      <point x="1086.0" y="593.0" type="curve" smooth="yes"/>
      <point x="1084.3842724253868" y="968.1454414757599"/>
      <point x="898.0883297894992" y="1226.2992070303992"/>
      <point x="614.0" y="1229.0" type="curve" smooth="yes"/>
      <point x="329.9116702105008" y="1226.2992070303992"/>
      <point x="143.61572757461326" y="968.1454414757599"/>
    </contour>
    <contour>
      <point x="326.5806993459138" y="427.2412626662556" type="line"/>
      <point x="397.16559059246185" y="469.0473133808072"/>
      <point x="391.9524724338931" y="527.2799310415747"/>
      <point x="392.0" y="593.0" type="curve" smooth="yes"/>
      <point x="390.6591617484897" y="886.3058357571409"/>
      <point x="482.5750369449347" y="1044.075343198205"/>
      <point x="614.0" y="1041.0" type="curve" smooth="yes"/>
      <point x="683.1254813844498" y="1041.899966994658"/>
      <point x="732.0488654529486" y="999.9723342173198"/>
      <point x="776.8529503658149" y="934.7509111485329" type="curve"/>
    </contour>
    <contour>
      <point x="836.0" y="593.0" type="curve" smooth="yes"/>
      <point x="837.3463471457901" y="299.7036605750586"/>
      <point x="745.5329657259662" y="142.95290743093972"/>
      <point x="614.0" y="146.0" type="curve" smooth="yes"/>
      <point x="544.9445027285124" y="145.11368378645426"/>
      <point x="496.14106960724854" y="186.59734470107898"/>
      <point x="451.4465304166934" y="251.13413299594205" type="curve"/>
      <point x="901.480770658936" y="758.6238903523456" type="line"/>
      <point x="830.8503165945756" y="716.8107366619773"/>
      <point x="836.0473250100137" y="658.6112483642037"/>
    </contour>
  </outline>
</glyph>
<glyph name="one" format="2">
  <advance width="1228"/>
  <unicode hex="0031"/>
  <outline>
    <contour>
      <point x="225.87697322095204" y="985.0417864984541" type="line" smooth="yes"/>
      <point x="183.72502465415891" y="962.6008171373519"/>
      <point x="160.62146873805074" y="911.7920786124722"/>
      <point x="192.40804723379276" y="860.0164243812999" type="curve" smooth="yes"/>
      <point x="231.40022518731" y="807.2554389294203"/>
      <point x="306.5631825716498" y="803.6971934446005"/>
      <point x="345.3466166485919" y="822.0157905010653" type="curve" smooth="yes"/>
      <point x="523.8125918620743" y="987.2543977060291" type="line"/>
      <point x="523.2369913856691" y="150.0344359398309" type="line"/>
      <point x="300.0" y="164.0" type="line" smooth="yes"/>
      <point x="240.47620164351173" y="163.06248534289085"/>
      <point x="190.43315999302408" y="128.85071250072667"/>
      <point x="189.0" y="72.0" type="curve" smooth="yes"/>
      <point x="190.43315999302408" y="15.14928749927334"/>
      <point x="240.47620164351173" y="-19.062485342890852"/>
      <point x="300.0" y="-20.0" type="curve" smooth="yes"/>
      <point x="974.0" y="-20.0" type="line" smooth="yes"/>
      <point x="1033.5237983564882" y="-19.062485342890852"/>
      <point x="1083.566840006976" y="15.14928749927334"/>
      <point x="1085.0" y="72.0" type="curve" smooth="yes"/>
      <point x="1083.566840006976" y="128.85071250072667"/>
      <point x="1033.5237983564882" y="163.06248534289085"/>
      <point x="974.0" y="164.0" type="curve" smooth="yes"/>
      <point x="765.5478577099402" y="148.88224075190638" type="line"/>
      <point x="767.0" y="1157.0" type="line" smooth="yes"/>
      <point x="757.193804650509" y="1223.1137066988554"/>
      <point x="662.2397334029799" y="1243.855464406395"/>
      <point x="602.887123860865" y="1217.0443837077137" type="curve" smooth="yes"/>
    </contour>
  </outline>
</glyph>
<glyph name="two" format="2">
  <advance width="1228"/>
  <unicode hex="0032"/>
  <outline>
    <contour>
      <point x="213.29606913977028" y="1111.3325478918907" type="curve" smooth="yes"/>
      <point x="171.03407928342233" y="1084.2374429982679"/>
      <point x="153.43315999302405" y="1037.1492874992734"/>
      <point x="187.1967277491015" y="985.4665465656648" type="curve" smooth="yes"/>
      <point x="227.16042274092754" y="934.334221938987"/>
      <point x="303.505104641125" y="926.6906472453217"/>
      <point x="347.8994332985166" y="950.7253305758653" type="curve" smooth="yes"/>
      <point x="425.02679709527587" y="1008.2301548256196"/>
      <point x="510.7852219802741" y="1041.337836520339"/>
      <point x="591.0" y="1041.0" type="curve" smooth="yes"/>
      <point x="723.1077897746042" y="1042.1280003573424"/>
      <point x="774.3724334828087" y="973.635715096173"/>
      <point x="771.0" y="859.0" type="curve" smooth="yes"/>
      <point x="772.9080130290004" y="765.5828472590842"/>
      <point x="732.7829961678549" y="700.1255200520144"/>
      <point x="617.8177389226363" y="582.0409435251413" type="curve" smooth="yes"/>
      <point x="177.7979439386323" y="136.03257223524386" type="line" smooth="yes"/>
      <point x="159.68896143861846" y="120.44442825030838"/>
      <point x="149.32124574553984" y="96.31001716349128"/>
      <point x="149.0" y="68.0" type="curve" smooth="yes"/>
      <point x="150.59814906264742" y="12.88214879367435"/>
      <point x="201.81338586092585" y="-19.230478952816462"/>
      <point x="260.0" y="-20.0" type="curve" smooth="yes"/>
      <point x="954.0" y="-20.0" type="line" smooth="yes"/>
      <point x="1013.5237983564882" y="-19.062485342890852"/>
      <point x="1063.566840006976" y="15.14928749927334"/>
      <point x="1065.0" y="72.0" type="curve" smooth="yes"/>
      <point x="1063.566840006976" y="128.85071250072667"/>
      <point x="1013.5237983564882" y="163.06248534289085"/>
      <point x="954.0" y="164.0" type="curve" smooth="yes"/>
      <point x="482.8422396835213" y="153.71285862357263" type="line"/>
      <point x="803.1937827933926" y="462.96392780662063" type="line" smooth="yes"/>
      <point x="934.3792267127437" y="594.9525980144168"/>
      <point x="1018.9907631257832" y="708.274058375774"/>
      <point x="1021.0" y="859.0" type="curve" smooth="yes"/>
      <point x="1017.1189614408668" y="1087.8783859715834"/>
      <point x="838.3213829135346" y="1227.9537779582809"/>
      <point x="590.0" y="1229.0" type="curve" smooth="yes"/>
      <point x="462.79976874002944" y="1228.7059820976037"/>
      <point x="320.68346742252334" y="1183.9195997544577"/>
    </contour>
  </outline>
</glyph>
<glyph name="three" format="2">
  <advance width="1228"/>
  <unicode hex="0033"/>
  <outline>
    <contour>
      <point x="222.52140155417962" y="1130.2038342490705" type="curve" smooth="yes"/>
      <point x="177.96575118770775" y="1106.2125578978405"/>
      <point x="155.84253202019192" y="1059.2691876598253"/>
      <point x="186.79398560623486" y="1004.474337029185" type="curve" smooth="yes"/>
      <point x="223.30387364649636" y="951.980593721379"/>
      <point x="297.5725218288629" y="943.4911799586458"/>
      <point x="341.84788147408796" y="963.8883223644881" type="curve" smooth="yes"/>
      <point x="425.76940402552384" y="1016.7750806639702"/>
      <point x="501.0540003856117" y="1041.2171463544544"/>
      <point x="581.0" y="1041.0" type="curve" smooth="yes"/>
      <point x="711.7983649869303" y="1041.8954195657514"/>
      <point x="763.1469874715076" y="982.8679166327659"/>
      <point x="759.0" y="879.0" type="curve" smooth="yes"/>
      <point x="762.7482211083809" y="764.7479843360769"/>
      <point x="714.8659606092239" y="710.2367243602278"/>
      <point x="575.0" y="711.0" type="curve" smooth="yes"/>
      <point x="520.0" y="711.0" type="line" smooth="yes"/>
      <point x="461.81338586092585" y="710.2304789528165"/>
      <point x="410.59814906264745" y="678.1178512063257"/>
      <point x="409.0" y="623.0" type="curve" smooth="yes"/>
      <point x="410.59814906264745" y="567.8821487936743"/>
      <point x="461.81338586092585" y="535.7695210471835"/>
      <point x="520.0" y="535.0" type="curve" smooth="yes"/>
      <point x="593.0" y="535.0" type="line" smooth="yes"/>
      <point x="734.934950761831" y="535.7551211339178"/>
      <point x="800.3452251718816" y="475.6848047946441"/>
      <point x="796.0" y="345.0" type="curve" smooth="yes"/>
      <point x="799.3910998697952" y="220.38389328639235"/>
      <point x="741.5550342605836" y="144.93635646211965"/>
      <point x="588.0" y="146.0" type="curve" smooth="yes"/>
      <point x="491.28598517756564" y="145.62217105973687"/>
      <point x="398.1992830916547" y="185.50889289936205"/>
      <point x="318.9074496175219" y="247.96632391665452" type="curve" smooth="yes"/>
      <point x="273.505104641125" y="273.30935275467834"/>
      <point x="196.7984850239377" y="264.5448974141497"/>
      <point x="157.1967277491015" y="213.5334534343352" type="curve" smooth="yes"/>
      <point x="123.43315999302406" y="161.85071250072667"/>
      <point x="141.03407928342233" y="114.76255700173203"/>
      <point x="182.7507947184568" y="87.83042121931871" type="curve" smooth="yes"/>
      <point x="292.9762355728218" y="10.229502247911782"/>
      <point x="446.3526286059347" y="-41.67276992149857"/>
      <point x="588.0" y="-42.0" type="curve" smooth="yes"/>
      <point x="866.4919135006495" y="-40.78245704240642"/>
      <point x="1042.516512071274" y="120.51993212244714"/>
      <point x="1046.0" y="345.0" type="curve" smooth="yes"/>
      <point x="1043.9273811164787" y="489.8135925463897"/>
      <point x="955.3722217103716" y="597.8183733700981"/>
      <point x="854.4810492674229" y="635.9915216137697" type="curve"/>
      <point x="931.9406681217491" y="663.7095535444844"/>
      <point x="1006.9756616906153" y="754.2530422886731"/>
      <point x="1009.0" y="879.0" type="curve" smooth="yes"/>
      <point x="1004.697590918205" y="1088.2760588860237"/>
      <point x="826.3935577355426" y="1227.9436224071114"/>
      <point x="580.0" y="1229.0" type="curve" smooth="yes"/>
      <point x="459.0646949007483" y="1228.7901382882687"/>
      <point x="334.72910930752755" y="1194.3173830800845"/>
    </contour>
  </outline>
</glyph>
<glyph name="four" format="2">
  <advance width="1228"/>
  <unicode hex="0034"/>
  <outline>
    <contour>
      <point x="601.1018026907626" y="1159.119098399335" type="curve" smooth="yes"/>
      <point x="117.12027383733945" y="436.13059660406225" type="line" smooth="yes"/>
      <point x="105.88103855913323" y="422.8783859715833"/>
      <point x="97.38968009507917" y="399.5432863197073"/>
      <point x="97.0" y="376.0" type="curve" smooth="yes"/>
      <point x="98.66255713464321" y="320.7818194971445"/>
      <point x="148.3740440275604" y="283.23807051721224"/>
      <point x="210.0" y="282.0" type="curve" smooth="yes"/>
      <point x="665.9646903796215" y="284.23198718194857" type="line"/>
      <point x="640.0" y="55.0" type="line" smooth="yes"/>
      <point x="641.7409589499039" y="3.6624183403735255"/>
      <point x="694.0628681269408" y="-29.371661372946928"/>
      <point x="762.0" y="-30.0" type="curve" smooth="yes"/>
      <point x="764.0" y="-30.0" type="line" smooth="yes"/>
      <point x="831.9371318730592" y="-29.371661372946928"/>
      <point x="884.2590410500961" y="3.6624183403735255"/>
      <point x="886.0" y="55.0" type="curve" smooth="yes"/>
      <point x="878.1372863248298" y="291.0313083930121" type="line"/>
      <point x="1000.0" y="282.0" type="line" smooth="yes"/>
      <point x="1059.5237983564882" y="282.93751465710915"/>
      <point x="1109.566840006976" y="317.1492874992733"/>
      <point x="1111.0" y="374.0" type="curve" smooth="yes"/>
      <point x="1109.566840006976" y="430.8507125007267"/>
      <point x="1059.5237983564882" y="465.06248534289085"/>
      <point x="1000.0" y="466.0" type="curve" smooth="yes"/>
      <point x="884.7114732936468" y="450.6029553975491" type="line"/>
      <point x="886.0" y="1131.0" type="line" smooth="yes"/>
      <point x="883.7095498260195" y="1184.1043736412953"/>
      <point x="829.1112195403142" y="1227.8397325269802"/>
      <point x="751.0" y="1229.0" type="curve" smooth="yes"/>
      <point x="687.7555748481537" y="1228.4434851584008"/>
      <point x="633.2142681283119" y="1202.7812325721168"/>
    </contour>
    <contour>
      <point x="647.9521810530694" y="456.88031376764326" type="line"/>
      <point x="389.99513761017477" y="445.7153322537377" type="line"/>
      <point x="696.0" y="972.0" type="line"/>
    </contour>
  </outline>
</glyph>
<glyph name="five" format="2">
  <advance width="1228"/>
  <unicode hex="0035"/>
  <outline>
    <contour>
      <point x="351.0" y="1207.0" type="line" smooth="yes"/>
      <point x="282.90965468184936" y="1206.3551580751096"/>
      <point x="231.9279466075783" y="1173.6113398362565"/>
      <point x="228.03891731716385" y="1122.805207432099" type="curve" smooth="yes"/>
      <point x="208.03891731716385" y="622.8052074320989" type="line" smooth="yes"/>
      <point x="207.9279466075783" y="570.3886601637436"/>
      <point x="263.5007500071763" y="537.5824068103634"/>
      <point x="331.0" y="537.0" type="curve" smooth="yes"/>
      <point x="357.6814319464674" y="537.0589102899684"/>
      <point x="386.6710890795325" y="541.245024785526"/>
      <point x="408.1048279484155" y="550.4938547750033" type="curve" smooth="yes"/>
      <point x="468.7376917541687" y="594.3862951200102"/>
      <point x="520.6063631764898" y="618.252710984113"/>
      <point x="608.0" y="618.0" type="curve" smooth="yes"/>
      <point x="740.3090069403592" y="619.578588571027"/>
      <point x="809.0855657769432" y="526.9449880105979"/>
      <point x="806.0" y="386.0" type="curve" smooth="yes"/>
      <point x="809.2573198109931" y="237.24200432546425"/>
      <point x="735.521505532734" y="144.6269211870704"/>
      <point x="588.0" y="146.0" type="curve" smooth="yes"/>
      <point x="494.064674895206" y="145.64012893961294"/>
      <point x="402.4482958344464" y="183.67803296962657"/>
      <point x="324.1913418808149" y="242.18710179132157" type="curve" smooth="yes"/>
      <point x="279.505104641125" y="267.30935275467834"/>
      <point x="202.7984850239377" y="258.5448974141497"/>
      <point x="163.1967277491015" y="207.5334534343352" type="curve" smooth="yes"/>
      <point x="129.12874267112542" y="155.31174986250468"/>
      <point x="149.45055306169598" y="107.54146436460593"/>
      <point x="191.37631650361854" y="80.64387161398467" type="curve" smooth="yes"/>
      <point x="300.6056911736855" y="7.096499266494497"/>
      <point x="449.6481669971823" y="-41.694925343524076"/>
      <point x="588.0" y="-42.0" type="curve" smooth="yes"/>
      <point x="864.3715357334293" y="-40.477119272127126"/>
      <point x="1052.611983036514" y="144.6193410417532"/>
      <point x="1056.0" y="386.0" type="curve" smooth="yes"/>
      <point x="1053.1984965374297" y="625.732692713388"/>
      <point x="884.0180210682712" y="804.3632089656211"/>
      <point x="621.0" y="806.0" type="curve" smooth="yes"/>
      <point x="535.6974270525832" y="805.8268440637488"/>
      <point x="451.72400934779387" y="784.4935619694943"/>
      <point x="453.1966916470003" y="733.643685023672" type="curve"/>
      <point x="444.93269291945114" y="1026.257529624191" type="line"/>
      <point x="885.0" y="1023.0" type="line" smooth="yes"/>
      <point x="944.5237983564882" y="1023.9375146571092"/>
      <point x="994.5668400069759" y="1058.1492874992734"/>
      <point x="996.0" y="1115.0" type="curve" smooth="yes"/>
      <point x="994.5668400069759" y="1171.8507125007266"/>
      <point x="944.5237983564882" y="1206.0624853428908"/>
      <point x="885.0" y="1207.0" type="curve" smooth="yes"/>
    </contour>
  </outline>
</glyph>
<glyph name="six" format="2">
  <advance width="1228"/>
  <unicode hex="0036"/>
  <outline>
    <contour>
      <point x="155.0" y="512.0" type="curve" smooth="yes"/>
      <point x="155.25147423305677" y="365.95543203237725"/>
      <point x="184.27670056871617" y="251.7372419726975"/>
      <point x="237.53861275687518" y="162.92257948951828" type="curve" smooth="yes"/>
      <point x="321.9177392321194" y="28.508838766206136"/>
      <point x="472.8046126387211" y="-41.44839727504217"/>
      <point x="626.0" y="-42.0" type="curve" smooth="yes"/>
      <point x="890.3338723238833" y="-40.65036895607692"/>
      <point x="1078.1067849172487" y="128.1097862536922"/>
      <point x="1082.0" y="353.0" type="curve" smooth="yes"/>
      <point x="1077.9915628890099" y="589.0011109751837"/>
      <point x="886.3862331390743" y="749.6419055324519"/>
      <point x="648.0" y="751.0" type="curve" smooth="yes"/>
      <point x="523.3621870277295" y="750.5026571158292"/>
      <point x="397.8595855453797" y="696.5654722535597"/>
      <point x="405.16595687969914" y="592.7121354951615" type="curve"/>
      <point x="437.45512935537397" y="852.505192224032"/>
      <point x="587.6360406058749" y="1024.239622534005"/>
      <point x="940.4395910448857" y="1042.0258483199982" type="curve" smooth="yes"/>
      <point x="985.8820417506715" y="1045.1991327028268"/>
      <point x="1026.6200066889999" y="1080.4883962716772"/>
      <point x="1021.8163867495626" y="1143.7476749542968" type="curve" smooth="yes"/>
      <point x="1013.3845487267864" y="1204.614996105086"/>
      <point x="956.7932563215404" y="1229.4878239138925"/>
      <point x="914.8322321503997" y="1228.979593680483" type="curve" smooth="yes"/>
      <point x="370.6809745345072" y="1202.706426869291"/>
      <point x="156.80563574373906" y="839.4339581529777"/>
    </contour>
    <contour>
      <point x="832.0" y="353.0" type="curve" smooth="yes"/>
      <point x="836.1450160819774" y="224.13023747378907"/>
      <point x="762.9687426614711" y="144.8515711295664"/>
      <point x="626.0" y="146.0" type="curve" smooth="yes"/>
      <point x="489.7358863894585" y="144.58463342789798"/>
      <point x="416.3617357196068" y="234.6380398966265"/>
      <point x="420.0" y="368.0" type="curve" smooth="yes"/>
      <point x="415.051977773853" y="486.15598906196044"/>
      <point x="493.71357240087576" y="564.1020483436438"/>
      <point x="626.0" y="563.0" type="curve" smooth="yes"/>
      <point x="766.8107813516194" y="564.1718794107662"/>
      <point x="835.7723684689943" y="484.2281154737182"/>
    </contour>
  </outline>
</glyph>
<glyph name="seven" format="2">
  <advance width="1228"/>
  <unicode hex="0037"/>
  <outline>
    <contour>
      <point x="262.0" y="1207.0" type="line" smooth="yes"/>
      <point x="202.47620164351173" y="1206.0624853428908"/>
      <point x="152.43315999302408" y="1171.8507125007266"/>
      <point x="151.0" y="1115.0" type="curve" smooth="yes"/>
      <point x="152.43315999302408" y="1058.1492874992734"/>
      <point x="202.47620164351173" y="1023.9375146571092"/>
      <point x="262.0" y="1023.0" type="curve" smooth="yes"/>
      <point x="802.5406207894127" y="1039.3346777173313" type="line"/>
      <point x="401.5613676614195" y="63.560036971227845" type="line" smooth="yes"/>
      <point x="382.328770992502" y="12.663175048652056"/>
      <point x="432.28594540265533" y="-29.836544847818836"/>
      <point x="490.68794172564714" y="-39.697846431409076" type="curve" smooth="yes"/>
      <point x="549.033872151118" y="-47.92924931802341"/>
      <point x="615.9411254969543" y="-27.14213562373095"/>
      <point x="641.5076081811811" y="16.510739007974333" type="curve" smooth="yes"/>
      <point x="1067.5118010022" y="1071.5150663883883" type="line" smooth="yes"/>
      <point x="1072.4456290750486" y="1081.9515620570598"/>
      <point x="1076.790442850846" y="1100.1331858261387"/>
      <point x="1077.0" y="1119.0" type="curve" smooth="yes"/>
      <point x="1075.4018509373525" y="1174.1178512063257"/>
      <point x="1024.1866141390742" y="1206.2304789528164"/>
      <point x="966.0" y="1207.0" type="curve" smooth="yes"/>
    </contour>
  </outline>
</glyph>
<glyph name="eight" format="2">
  <advance width="1228"/>
  <unicode hex="0038"/>
  <outline>
    <contour>
      <point x="199.0" y="879.0" type="curve" smooth="yes"/>
      <point x="201.7196861255828" y="759.3634380837328"/>
      <point x="286.24891398626585" y="664.6432995703473"/>
      <point x="363.2522763684739" y="634.5386139448084" type="curve"/>
      <point x="263.7155072096841" y="592.8465870077467"/>
      <point x="164.6977797396321" y="482.61055605065144"/>
      <point x="162.0" y="340.0" type="curve" smooth="yes"/>
      <point x="166.5523960038928" y="122.49851210941733"/>
      <point x="363.0000455459418" y="-40.70365359324487"/>
      <point x="614.0" y="-42.0" type="curve" smooth="yes"/>
      <point x="864.9999544540582" y="-40.70365359324487"/>
      <point x="1061.4476039961073" y="122.49851210941733"/>
      <point x="1066.0" y="340.0" type="curve" smooth="yes"/>
      <point x="1063.302220260368" y="482.61055605065144"/>
      <point x="964.1927737445012" y="592.875940266896"/>
      <point x="863.6456610659465" y="634.7174009977697" type="curve"/>
      <point x="940.6401217405372" y="664.6048407921321"/>
      <point x="1026.2087492766104" y="759.27926884707"/>
      <point x="1029.0" y="879.0" type="curve" smooth="yes"/>
      <point x="1024.4462045680323" y="1072.5027294293498"/>
      <point x="843.6378404247885" y="1227.6008259652224"/>
      <point x="614.0" y="1229.0" type="curve" smooth="yes"/>
      <point x="384.36215957521154" y="1227.6008259652224"/>
      <point x="203.55379543196767" y="1072.5027294293498"/>
    </contour>
    <contour>
      <point x="816.0" y="341.0" type="curve" smooth="yes"/>
      <point x="820.7111961296974" y="223.64098216790921"/>
      <point x="744.9016950461172" y="144.8416490565108"/>
      <point x="614.0" y="146.0" type="curve" smooth="yes"/>
      <point x="483.0983049538828" y="144.8416490565108"/>
      <point x="407.2888038703025" y="223.64098216790921"/>
      <point x="412.0" y="341.0" type="curve" smooth="yes"/>
      <point x="407.2127745591245" y="458.29320074415136"/>
      <point x="482.7760229823712" y="535.1110835939043"/>
      <point x="614.0" y="534.0" type="curve" smooth="yes"/>
      <point x="745.2239770176288" y="535.1110835939043"/>
      <point x="820.7872254408755" y="458.29320074415136"/>
    </contour>
    <contour>
      <point x="781.0" y="876.0" type="curve" smooth="yes"/>
      <point x="786.1144666023011" y="781.9833084530699"/>
      <point x="720.2607818229719" y="711.7444370211513"/>
      <point x="614.0" y="713.0" type="curve" smooth="yes"/>
      <point x="507.7392181770281" y="711.7444370211513"/>
      <point x="441.8855333976988" y="781.9833084530699"/>
      <point x="447.0" y="876.0" type="curve" smooth="yes"/>
      <point x="441.97886823880077" y="981.0944687433116"/>
      <point x="506.05167628791526" y="1042.0087417728769"/>
      <point x="614.0" y="1041.0" type="curve" smooth="yes"/>
      <point x="721.9483237120847" y="1042.0087417728769"/>
      <point x="786.0211317611993" y="981.0944687433116"/>
    </contour>
  </outline>
</glyph>
<glyph name="nine" format="2">
  <advance width="1228"/>
  <unicode hex="0039"/>
  <outline>
    <contour>
      <point x="146.0" y="834.0" type="curve" smooth="yes"/>
      <point x="150.0084371109902" y="597.9988890248163"/>
      <point x="341.6137668609257" y="437.3580944675481"/>
      <point x="580.0" y="436.0" type="curve" smooth="yes"/>
      <point x="704.6378129722705" y="436.4973428841708"/>
      <point x="830.1404144546203" y="490.4345277464402"/>
      <point x="822.8340431203009" y="594.2878645048385" type="curve"/>
      <point x="790.544870644626" y="334.49480777596796"/>
      <point x="640.3639593941251" y="162.76037746599496"/>
      <point x="287.5604089551143" y="144.97415168000168" type="curve" smooth="yes"/>
      <point x="242.1179582493284" y="141.8008672971733"/>
      <point x="201.37999331100005" y="106.51160372832278"/>
      <point x="206.18361325043736" y="43.25232504570312" type="curve" smooth="yes"/>
      <point x="214.61545127321364" y="-17.614996105085897"/>
      <point x="271.2067436784596" y="-42.4878239138924"/>
      <point x="313.1677678496003" y="-41.97959368048295" type="curve" smooth="yes"/>
      <point x="857.3190254654928" y="-15.706426869290969"/>
      <point x="1071.194364256261" y="347.5660418470223"/>
      <point x="1073.0" y="675.0" type="curve" smooth="yes"/>
      <point x="1072.7485257669432" y="821.0445679676227"/>
      <point x="1043.7232994312837" y="935.2627580273025"/>
      <point x="990.4613872431248" y="1024.0774205104817" type="curve" smooth="yes"/>
      <point x="906.0822607678806" y="1158.491161233794"/>
      <point x="755.1953873612789" y="1228.4483972750422"/>
      <point x="602.0" y="1229.0" type="curve" smooth="yes"/>
      <point x="337.66612767611673" y="1227.6503689560768"/>
      <point x="149.89321508275134" y="1058.8902137463078"/>
    </contour>
    <contour>
      <point x="808.0" y="819.0" type="curve" smooth="yes"/>
      <point x="812.9480222261469" y="700.8440109380396"/>
      <point x="734.2864275991243" y="622.8979516563562"/>
      <point x="602.0" y="624.0" type="curve" smooth="yes"/>
      <point x="461.1892186483806" y="622.8281205892338"/>
      <point x="392.2276315310057" y="702.7718845262818"/>
      <point x="396.0" y="834.0" type="curve" smooth="yes"/>
      <point x="391.85498391802264" y="962.8697625262109"/>
      <point x="465.0312573385289" y="1042.1484288704337"/>
      <point x="602.0" y="1041.0" type="curve" smooth="yes"/>
      <point x="738.2641136105415" y="1042.415366572102"/>
      <point x="811.6382642803932" y="952.3619601033735"/>
    </contour>
  </outline>
</glyph>
<glyph name="less" format="2">
  <advance width="1228"/>
  <unicode hex="003C"/>
  <outline>
    <contour>
      <point x="388.0" y="583.0" type="line"/>
      <point x="1032.7356048210477" y="886.9624490226266" type="line" smooth="yes"/>
      <point x="1086.9184550318605" y="910.4442205641433"/>
      <point x="1111.2947849791829" y="957.4157344707188"/>
      <point x="1083.932505167996" y="1008.9442719099992" type="curve" smooth="yes"/>
      <point x="1055.0465750686903" y="1057.2067193139599"/>
      <point x="985.9007452153711" y="1077.926932980835"/>
      <point x="927.8716206201649" y="1055.9582443191034" type="curve" smooth="yes"/>
      <point x="150.85393013213383" y="674.9546290124935" type="line" smooth="yes"/>
      <point x="111.86625024662132" y="657.2044882157941"/>
      <point x="78.52894824264314" y="628.0076564393704"/>
      <point x="77.0" y="583.0" type="curve" smooth="yes"/>
      <point x="78.52894824264314" y="537.9923435606296"/>
      <point x="111.86625024662132" y="508.7955117842059"/>
      <point x="150.85393013213383" y="491.04537098750654" type="curve" smooth="yes"/>
      <point x="927.8716206201649" y="110.04175568089657" type="line" smooth="yes"/>
      <point x="985.9007452153711" y="88.07306701916498"/>
      <point x="1055.0465750686903" y="108.79328068604015"/>
      <point x="1083.932505167996" y="157.05572809000085" type="curve" smooth="yes"/>
      <point x="1111.2947849791829" y="208.58426552928125"/>
      <point x="1086.9184550318605" y="255.5557794358567"/>
      <point x="1032.7356048210477" y="279.03755097737337" type="curve" smooth="yes"/>
    </contour>
  </outline>
</glyph>
<glyph name="greater" format="2">
  <advance width="1228"/>
  <unicode hex="003E"/>
  <outline>
    <contour>
      <point x="840.0" y="583.0" type="line"/>
      <point x="195.26439517895227" y="279.03755097737337" type="line" smooth="yes"/>
      <point x="141.0815449681395" y="255.5557794358567"/>
      <point x="116.70521502081723" y="208.58426552928125"/>
      <point x="144.06749483200403" y="157.05572809000085" type="curve" smooth="yes"/>
      <point x="172.9534249313096" y="108.79328068604015"/>
      <point x="242.09925478462893" y="88.07306701916498"/>
      <point x="300.1283793798351" y="110.04175568089657" type="curve" smooth="yes"/>
      <point x="1077.1460698678661" y="491.04537098750654" type="line" smooth="yes"/>
      <point x="1116.1337497533787" y="508.7955117842059"/>
      <point x="1149.471051757357" y="537.9923435606296"/>
      <point x="1151.0" y="583.0" type="curve" smooth="yes"/>
      <point x="1149.471051757357" y="628.0076564393704"/>
      <point x="1116.1337497533787" y="657.2044882157941"/>
      <point x="1077.1460698678661" y="674.9546290124935" type="curve" smooth="yes"/>
      <point x="300.1283793798351" y="1055.9582443191034" type="line" smooth="yes"/>
      <point x="242.09925478462893" y="1077.926932980835"/>
      <point x="172.9534249313096" y="1057.2067193139599"/>
      <point x="144.06749483200403" y="1008.9442719099992" type="curve" smooth="yes"/>
      <point x="116.70521502081723" y="957.4157344707188"/>
      <point x="141.0815449681395" y="910.4442205641433"/>
      <point x="195.26439517895227" y="886.9624490226266" type="curve" smooth="yes"/>
    </contour>
  </outline>
</glyph>
<glyph name="question" format="2">
  <advance width="1228"/>
  <unicode hex="003F"/>
  <outline>
    <contour>
      <point x="277.1686410423008" y="1208.592656731104" type="curve" smooth="yes"/>
      <point x="230.12431957914143" y="1185.57255337804"/>
      <point x="202.4474156874258" y="1141.2756331904254"/>
      <point x="230.18881790466503" y="1082.8288668314256" type="curve" smooth="yes"/>
      <point x="263.377549608845" y="1024.7263182301701"/>
      <point x="339.46182982024163" y="1018.5785661379239"/>
      <point x="380.35582877596585" y="1036.3016355523603" type="curve" smooth="yes"/>
      <point x="459.6000675234697" y="1079.392963439118"/>
      <point x="534.1852864807759" y="1101.1667444366426"/>
      <point x="619.0" y="1101.0" type="curve" smooth="yes"/>
      <point x="728.0491764251026" y="1102.136587316451"/>
      <point x="767.6210235846058" y="1045.3793676862454"/>
      <point x="764.0" y="956.0" type="curve" smooth="yes"/>
      <point x="768.0648784437072" y="864.0547722853204"/>
      <point x="724.0649982192131" y="823.7895475751918"/>
      <point x="575.8961391939725" y="762.5229316580188" type="curve" smooth="yes"/>
      <point x="507.0898203601976" y="734.5555915187142" type="line" smooth="yes"/>
      <point x="471.8678823428905" y="722.5682607895066"/>
      <point x="446.6530916560571" y="694.2879797461071"/>
      <point x="447.04602821554164" y="664.1243464647592" type="curve" smooth="yes"/>
      <point x="457.0526476302478" y="439.0635282740283" type="line" smooth="yes"/>
      <point x="464.57818001534105" y="399.64224559161937"/>
      <point x="518.2702947333551" y="369.83561973197476"/>
      <point x="574.0" y="369.0" type="curve" smooth="yes"/>
      <point x="629.7297052666449" y="369.83561973197476"/>
      <point x="683.421819984659" y="399.64224559161937"/>
      <point x="690.9155259415744" y="438.8139721301591" type="curve" smooth="yes"/>
      <point x="689.6261922610786" y="598.073108613737" type="line"/>
      <point x="881.8050583597948" y="677.4014219264898"/>
      <point x="1010.4126886956851" y="772.4135413626464"/>
      <point x="1014.0" y="956.0" type="curve" smooth="yes"/>
      <point x="1010.4285146111022" y="1148.5703539273443"/>
      <point x="854.5698588840606" y="1287.7705432670998"/>
      <point x="618.0" y="1289.0" type="curve" smooth="yes"/>
      <point x="497.58033497387424" y="1288.8721050957943"/>
      <point x="380.78379568574394" y="1262.6692813877885"/>
    </contour>
    <contour>
      <point x="411.0" y="167.0" type="curve" smooth="yes"/>
      <point x="411.0" y="53.0" type="line" smooth="yes"/>
      <point x="416.7589357118559" y="-1.4986520224662634"/>
      <point x="485.57733054443145" y="-29.759421004407095"/>
      <point x="574.0" y="-30.0" type="curve" smooth="yes"/>
      <point x="662.4226694555686" y="-29.759421004407095"/>
      <point x="731.2410642881441" y="-1.4986520224662634"/>
      <point x="737.0" y="53.0" type="curve" smooth="yes"/>
      <point x="737.0" y="167.0" type="line" smooth="yes"/>
      <point x="731.2410642881441" y="221.49865202246627"/>
      <point x="662.4226694555686" y="249.7594210044071"/>
      <point x="574.0" y="250.0" type="curve" smooth="yes"/>
      <point x="485.57733054443145" y="249.7594210044071"/>
      <point x="416.7589357118559" y="221.49865202246627"/>
    </contour>
  </outline>
</glyph>
<glyph name="at" format="2">
  <advance width="1228"/>
  <unicode hex="0040"/>
  <outline>
    <contour>
      <point x="2.0" y="389.0" type="curve" smooth="yes"/>
      <point x="4.754987878606364" y="47.32176942857659"/>
      <point x="224.0085300857553" y="-171.5419335670155"/>
      <point x="562.0" y="-173.0" type="curve" smooth="yes"/>
      <point x="676.6447667549113" y="-172.9061432353341"/>
      <point x="791.6006147688353" y="-151.180354161178"/>
      <point x="867.3152698093743" y="-119.30926617346938" type="curve" smooth="yes"/>
      <point x="902.3610606486787" y="-106.37976752098224"/>
      <point x="925.9694170086824" y="-71.28616938975175"/>
      <point x="912.9048754104642" y="-30.155629288019597" type="curve" smooth="yes"/>
      <point x="897.5214970845666" y="10.034361795436919"/>
      <point x="846.078230218817" y="33.71472851020815"/>
      <point x="800.7408054734603" y="26.097135526615688" type="curve" smooth="yes"/>
      <point x="737.1208652810692" y="5.479531760247703"/>
      <point x="651.9296081407756" y="-10.072039855880433"/>
      <point x="560.0" y="-10.0" type="curve" smooth="yes"/>
      <point x="329.63184602033596" y="-11.568189136324087"/>
      <point x="218.59091023793363" y="139.25650916153026"/>
      <point x="221.0" y="389.0" type="curve" smooth="yes"/>
      <point x="218.13100025037758" y="703.189152641838"/>
      <point x="399.74986248383505" y="937.1710310931828"/>
      <point x="655.0" y="935.0" type="curve" smooth="yes"/>
      <point x="879.6504283635422" y="936.5190919612363"/>
      <point x="1003.7819295321083" y="785.2901644647684"/>
      <point x="1001.0" y="531.0" type="curve" smooth="yes"/>
      <point x="1002.1595292640048" y="376.3694468970145"/>
      <point x="962.0902076564631" y="279.5614547680024"/>
      <point x="888.0" y="283.0" type="curve" smooth="yes"/>
      <point x="853.0296004537907" y="280.0656366730392"/>
      <point x="845.9229263389607" y="319.13292970068466"/>
      <point x="866.5098835331761" y="399.0553281037538" type="curve" smooth="yes"/>
      <point x="943.5154083219904" y="701.064358847822" type="line" smooth="yes"/>
      <point x="946.4834848747234" y="733.5141021747844"/>
      <point x="906.4190069820787" y="760.2185305642863"/>
      <point x="874.8539251962428" y="770.7265835513809" type="curve" smooth="yes"/>
      <point x="843.0646748952059" y="780.640128939613"/>
      <point x="789.2870465790259" y="780.7485054401953"/>
      <point x="755.9562752470512" y="756.8509823626193" type="curve" smooth="yes"/>
      <point x="764.5801416005803" y="704.9491739966147" type="line"/>
      <point x="783.4290272317526" y="754.7810739284673"/>
      <point x="721.752076168703" y="803.5819496481341"/>
      <point x="640.0" y="805.0" type="curve" smooth="yes"/>
      <point x="430.34982471667394" y="800.7280882945354"/>
      <point x="277.2848812847749" y="542.0971293457806"/>
      <point x="275.0" y="357.0" type="curve" smooth="yes"/>
      <point x="277.647862472066" y="207.44913569040952"/>
      <point x="380.72856866469556" y="113.87107766761392"/>
      <point x="499.0" y="112.0" type="curve" smooth="yes"/>
      <point x="605.7205861597113" y="113.25267612396006"/>
      <point x="682.8904207669717" y="173.71965151968396"/>
      <point x="705.3951484683491" y="246.02947159067693" type="curve"/>
      <point x="700.2066929284356" y="170.22167033356894"/>
      <point x="788.2073014928154" y="117.84347429557697"/>
      <point x="889.0" y="117.0" type="curve" smooth="yes"/>
      <point x="1080.638341039336" y="119.59335997889562"/>
      <point x="1216.139868848924" y="290.48624663713156"/>
      <point x="1218.0" y="531.0" type="curve" smooth="yes"/>
      <point x="1215.0811390225706" y="858.8679370844867"/>
      <point x="989.4467320204856" y="1096.2850909484653"/>
      <point x="660.0" y="1098.0" type="curve" smooth="yes"/>
      <point x="287.9877309274535" y="1095.9818800985597"/>
      <point x="5.069613203746876" y="788.0373549711112"/>
    </contour>
    <contour>
      <point x="664.0" y="561.0" type="curve" smooth="yes"/>
      <point x="665.8764661875005" y="435.5374299068679"/>
      <point x="595.4462999044927" y="281.07138114317934"/>
      <point x="524.0" y="286.0" type="curve" smooth="yes"/>
      <point x="504.74639264909615" y="284.4116356375051"/>
      <point x="503.96203707303334" y="299.7658469446458"/>
      <point x="506.0" y="359.0" type="curve" smooth="yes"/>
      <point x="503.2886466780981" y="501.37331674860604"/>
      <point x="593.9312139601261" y="642.7062330974932"/>
      <point x="636.0" y="638.0" type="curve" smooth="yes"/>
      <point x="662.9215934838594" y="639.8338226758729"/>
      <point x="666.0113099799951" y="617.2711683394324"/>
    </contour>
  </outline>
</glyph>
<glyph name="A" format="2">
  <advance width="1228"/>
  <unicode hex="0041"/>
  <outline>
    <contour>
      <point x="443.76248363928295" y="1150.9454827458576" type="curve" smooth="yes"/>
      <point x="49.74109035131327" y="90.98095731962002" type="line" smooth="yes"/>
      <point x="30.160895360030853" y="42.885238276379035"/>
      <point x="68.21599960698916" y="-2.0889829564426776"/>
      <point x="137.88619968155194" y="-20.95239588426108" type="curve" smooth="yes"/>
      <point x="208.76332688822956" y="-39.91933001716782"/>
      <point x="281.1276029420334" y="-18.355128675407514"/>
      <point x="307.4820202414688" y="28.74622558087848" type="curve" smooth="yes"/>
      <point x="386.0926469657652" y="311.93655753559403" type="line"/>
      <point x="837.9073530342347" y="311.93655753559403" type="line"/>
      <point x="916.5179797585313" y="28.746225580878484" type="line" smooth="yes"/>
      <point x="942.8723970579666" y="-18.355128675407514"/>
      <point x="1015.2366731117705" y="-39.91933001716782"/>
      <point x="1086.1138003184478" y="-20.95239588426108" type="curve" smooth="yes"/>
      <point x="1155.7840003930107" y="-2.088982956442674"/>
      <point x="1193.839104639969" y="42.885238276379035"/>
      <point x="1174.2589096486865" y="90.98095731962002" type="curve" smooth="yes"/>
      <point x="780.2375163607171" y="1150.9454827458576" type="line" smooth="yes"/>
      <point x="753.8521474000441" y="1202.3316719986253"/>
      <point x="687.8283885048653" y="1228.8500561293522"/>
      <point x="612.0" y="1229.0" type="curve" smooth="yes"/>
      <point x="536.1716114951347" y="1228.8500561293522"/>
      <point x="470.14785259995585" y="1202.3316719986253"/>
    </contour>
    <contour>
      <point x="469.5224019693264" y="481.93215880032017" type="line"/>
      <point x="667.2574644585593" y="1035.0583940378954" type="line"/>
      <point x="556.7331217123143" y="1035.0678411996798" type="line"/>
      <point x="754.1506776312845" y="481.94160596210463" type="line"/>
    </contour>
  </outline>
</glyph>
<glyph name="B" format="2">
  <advance width="1228"/>
  <unicode hex="0042"/>
  <outline>
    <contour>
      <point x="268.0" y="1207.0" type="line" smooth="yes"/>
      <point x="209.81338586092585" y="1206.2304789528164"/>
      <point x="158.59814906264742" y="1174.1178512063257"/>
      <point x="157.0" y="1119.0" type="curve" smooth="yes"/>
      <point x="157.0" y="68.0" type="line" smooth="yes"/>
      <point x="158.59814906264742" y="12.88214879367435"/>
      <point x="209.81338586092585" y="-19.230478952816462"/>
      <point x="268.0" y="-20.0" type="curve" smooth="yes"/>
      <point x="690.0" y="-20.0" type="line" smooth="yes"/>
      <point x="950.964980059071" y="-19.003149281360024"/>
      <point x="1118.4009512821658" y="118.40162292046271"/>
      <point x="1122.0" y="336.0" type="curve" smooth="yes"/>
      <point x="1119.8691198492909" y="485.89290775841584"/>
      <point x="1027.9178978879456" y="592.2691712633716"/>
      <point x="917.7290636733514" y="631.2471479734829" type="curve"/>
      <point x="990.0189538431222" y="656.483793257945"/>
      <point x="1054.3086634194112" y="744.7376518841578"/>
      <point x="1056.0" y="858.0" type="curve" smooth="yes"/>
      <point x="1052.8705175394614" y="1058.1033620724832"/>
      <point x="899.7997638458099" y="1205.7350307594204"/>
      <point x="644.0" y="1207.0" type="curve" smooth="yes"/>
    </contour>
    <contour>
      <point x="872.0" y="336.0" type="curve" smooth="yes"/>
      <point x="876.9782403969585" y="215.86950339038398"/>
      <point x="813.2706967605043" y="163.39368921874296"/>
      <point x="670.0" y="164.0" type="curve" smooth="yes"/>
      <point x="392.22697617813725" y="156.62542796739152" type="line"/>
      <point x="392.46280700344454" y="518.4962638123732" type="line"/>
      <point x="665.0" y="511.0" type="line" smooth="yes"/>
      <point x="820.3153366307254" y="511.6016330783526"/>
      <point x="876.2487831140293" y="458.77327545733885"/>
    </contour>
    <contour>
      <point x="806.0" y="858.0" type="curve" smooth="yes"/>
      <point x="809.6708375148835" y="749.6708022515229"/>
      <point x="764.68217365775" y="694.2147743246393"/>
      <point x="622.0" y="695.0" type="curve" smooth="yes"/>
      <point x="393.85126473867626" y="686.7451173972221" type="line"/>
      <point x="393.85126473867626" y="1031.2548826027778" type="line"/>
      <point x="622.0" y="1023.0" type="line" smooth="yes"/>
      <point x="766.235408089961" y="1023.7201476358786"/>
      <point x="809.5165151252766" y="971.4858978252156"/>
    </contour>
  </outline>
</glyph>
<glyph name="C" format="2">
  <advance width="1228"/>
  <unicode hex="0043"/>
  <outline>
    <contour>
      <point x="102.0" y="594.0" type="curve" smooth="yes"/>
      <point x="104.45581355881467" y="217.68468735089084"/>
      <point x="334.27821443613414" y="-40.040307892661005"/>
      <point x="664.0" y="-42.0" type="curve" smooth="yes"/>
      <point x="803.0466817781047" y="-41.84067458440601"/>
      <point x="934.6184945288302" y="-8.434152998841803"/>
      <point x="1060.842880008924" y="61.64185933416233" type="curve" smooth="yes"/>
      <point x="1111.2066265326948" y="87.86951043953192"/>
      <point x="1131.3153484244995" y="136.3659292578404"/>
      <point x="1104.5945512253002" y="191.36986890355027" type="curve" smooth="yes"/>
      <point x="1068.3411018593342" y="250.14819923201154"/>
      <point x="989.1403938150187" y="252.1481401239873"/>
      <point x="949.4487747311513" y="233.18585768819412" type="curve" smooth="yes"/>
      <point x="857.2202861248292" y="176.2229771349954"/>
      <point x="767.8687610769828" y="145.77804545055562"/>
      <point x="664.0" y="146.0" type="curve" smooth="yes"/>
      <point x="468.46625258399797" y="143.88854381999832"/>
      <point x="349.9048754104643" y="311.8443707119804"/>
      <point x="352.0" y="594.0" type="curve" smooth="yes"/>
      <point x="349.89647495250875" y="876.144186368479"/>
      <point x="468.37068800833526" y="1043.091602227652"/>
      <point x="664.0" y="1041.0" type="curve" smooth="yes"/>
      <point x="767.8687610769828" y="1041.2219545494445"/>
      <point x="857.2202861248292" y="1010.7770228650046"/>
      <point x="949.4487747311513" y="953.8141423118059" type="curve" smooth="yes"/>
      <point x="989.1403938150187" y="934.8518598760127"/>
      <point x="1068.3411018593342" y="936.8518007679885"/>
      <point x="1104.5945512253002" y="995.6301310964498" type="curve" smooth="yes"/>
      <point x="1131.3153484244995" y="1050.6340707421596"/>
      <point x="1111.2066265326948" y="1099.130489560468"/>
      <point x="1060.842880008924" y="1125.3581406658377" type="curve" smooth="yes"/>
      <point x="934.6184945288302" y="1195.434152998842"/>
      <point x="803.0466817781047" y="1228.840674584406"/>
      <point x="664.0" y="1229.0" type="curve" smooth="yes"/>
      <point x="334.3468285042323" y="1227.053962838137"/>
      <point x="104.46320169357534" y="970.3245553203368"/>
    </contour>
  </outline>
</glyph>
<glyph name="E" format="2">
  <advance width="1228"/>
  <unicode hex="0045"/>
  <outline>
    <contour>
      <point x="288.0" y="1207.0" type="line" smooth="yes"/>
      <point x="229.81338586092585" y="1206.2304789528164"/>
      <point x="178.59814906264742" y="1174.1178512063257"/>
      <point x="177.0" y="1119.0" type="curve" smooth="yes"/>
      <point x="177.0" y="68.0" type="line" smooth="yes"/>
      <point x="178.59814906264742" y="12.88214879367435"/>
      <point x="229.81338586092585" y="-19.230478952816462"/>
      <point x="288.0" y="-20.0" type="curve" smooth="yes"/>
      <point x="977.0" y="-20.0" type="line" smooth="yes"/>
      <point x="1036.5237983564882" y="-19.062485342890852"/>
      <point x="1086.566840006976" y="15.14928749927334"/>
      <point x="1088.0" y="72.0" type="curve" smooth="yes"/>
      <point x="1086.566840006976" y="128.85071250072667"/>
      <point x="1036.5237983564882" y="163.06248534289085"/>
      <point x="977.0" y="164.0" type="curve" smooth="yes"/>
      <point x="401.3791451081581" y="160.70901236859345" type="line"/>
      <point x="406.43364373413544" y="524.8851271185817" type="line"/>
      <point x="832.0" y="520.0" type="line" smooth="yes"/>
      <point x="891.5237983564882" y="520.9375146571092"/>
      <point x="941.5668400069759" y="555.1492874992733"/>
      <point x="943.0" y="612.0" type="curve" smooth="yes"/>
      <point x="941.5668400069759" y="668.8507125007267"/>
      <point x="891.5237983564882" y="703.0624853428908"/>
      <point x="832.0" y="704.0" type="curve" smooth="yes"/>
      <point x="404.65178660318537" y="699.7275609072142" type="line"/>
      <point x="400.19974306632815" y="1025.977889432912" type="line"/>
      <point x="957.0" y="1023.0" type="line" smooth="yes"/>
      <point x="1016.5237983564882" y="1023.9375146571092"/>
      <point x="1066.566840006976" y="1058.1492874992734"/>
      <point x="1068.0" y="1115.0" type="curve" smooth="yes"/>
      <point x="1066.566840006976" y="1171.8507125007266"/>
      <point x="1016.5237983564882" y="1206.0624853428908"/>
      <point x="957.0" y="1207.0" type="curve" smooth="yes"/>
    </contour>
  </outline>
</glyph>
<glyph name="F" format="2">
  <advance width="1228"/>
  <unicode hex="0046"/>
  <outline>
    <contour>
      <point x="308.0" y="1207.0" type="line" smooth="yes"/>
      <point x="252.81338586092585" y="1206.2304789528164"/>
      <point x="199.13721482328134" y="1174.9014613278866"/>
      <point x="197.0" y="1119.0" type="curve" smooth="yes"/>
      <point x="197.0" y="55.0" type="line" smooth="yes"/>
      <point x="198.74095894990387" y="3.6624183403735255"/>
      <point x="251.06286812694083" y="-29.371661372946928"/>
      <point x="319.0" y="-30.0" type="curve" smooth="yes"/>
      <point x="321.0" y="-30.0" type="line" smooth="yes"/>
      <point x="388.9371318730592" y="-29.371661372946928"/>
      <point x="441.25904105009613" y="3.6624183403735255"/>
      <point x="443.0" y="55.0" type="curve" smooth="yes"/>
      <point x="428.11273736430746" y="485.52092851204907" type="line"/>
      <point x="862.0" y="480.0" type="line" smooth="yes"/>
      <point x="921.5237983564882" y="480.93751465710915"/>
      <point x="971.5668400069759" y="515.1492874992733"/>
      <point x="973.0" y="572.0" type="curve" smooth="yes"/>
      <point x="971.5668400069759" y="628.8507125007267"/>
      <point x="921.5237983564882" y="663.0624853428908"/>
      <point x="862.0" y="664.0" type="curve" smooth="yes"/>
      <point x="426.1800269214975" y="659.2057984255841" type="line"/>
      <point x="422.14139509328106" y="1026.5042899495722" type="line"/>
      <point x="977.0" y="1023.0" type="line" smooth="yes"/>
      <point x="1036.5237983564882" y="1023.9375146571092"/>
      <point x="1086.566840006976" y="1058.1492874992734"/>
      <point x="1088.0" y="1115.0" type="curve" smooth="yes"/>
      <point x="1086.566840006976" y="1171.8507125007266"/>
      <point x="1036.5237983564882" y="1206.0624853428908"/>
      <point x="977.0" y="1207.0" type="curve" smooth="yes"/>
    </contour>
  </outline>
</glyph>
<glyph name="G" format="2">
  <advance width="1228"/>
  <unicode hex="0047"/>
  <outline>
    <contour>
      <point x="62.0" y="594.0" type="curve" smooth="yes"/>
      <point x="64.54502238487603" y="217.5740731050048"/>
      <point x="298.60168403198173" y="-40.10419642147963"/>
      <point x="634.0" y="-42.0" type="curve" smooth="yes"/>
      <point x="793.1969913642854" y="-41.882429083061666"/>
      <point x="953.6824080391427" y="-7.753227787057199"/>
      <point x="1070.8146690411281" y="56.63513715751081" type="curve" smooth="yes"/>
      <point x="1104.402844683637" y="73.05290080393092"/>
      <point x="1129.756665611681" y="106.47740585601301"/>
      <point x="1131.0" y="143.0" type="curve" smooth="yes"/>
      <point x="1131.0" y="526.0" type="line" smooth="yes"/>
      <point x="1129.4018509373525" y="581.1178512063257"/>
      <point x="1078.1866141390742" y="613.2304789528165"/>
      <point x="1020.0" y="614.0" type="curve" smooth="yes"/>
      <point x="666.0" y="614.0" type="line" smooth="yes"/>
      <point x="606.4762016435118" y="613.0624853428908"/>
      <point x="556.4331599930241" y="578.8507125007267"/>
      <point x="555.0" y="522.0" type="curve" smooth="yes"/>
      <point x="556.4331599930241" y="465.1492874992733"/>
      <point x="606.4762016435118" y="430.93751465710915"/>
      <point x="666.0" y="430.0" type="curve" smooth="yes"/>
      <point x="899.0383023211787" y="435.86644131731623" type="line"/>
      <point x="886.8164955399193" y="188.126001081637" type="line"/>
      <point x="831.9515119487929" y="161.75075653319607"/>
      <point x="743.283397125005" y="145.93879403372583"/>
      <point x="634.0" y="146.0" type="curve" smooth="yes"/>
      <point x="432.99835450476667" y="143.98470177491592"/>
      <point x="309.7660523171253" y="312.03042712155855"/>
      <point x="312.0" y="594.0" type="curve" smooth="yes"/>
      <point x="309.31880059660466" y="875.4092036962468"/>
      <point x="447.4547658824375" y="1042.906864442909"/>
      <point x="644.0" y="1041.0" type="curve" smooth="yes"/>
      <point x="749.4046062216723" y="1041.1363520869368"/>
      <point x="838.9816463494573" y="1017.4625991249561"/>
      <point x="931.2204199143105" y="962.6267908049757" type="curve" smooth="yes"/>
      <point x="972.0042123079223" y="943.746981196922"/>
      <point x="1051.3501754010663" y="947.2246795043206"/>
      <point x="1086.1410977272785" y="1007.1431703074423" type="curve" smooth="yes"/>
      <point x="1110.494131078437" y="1062.1040163976563"/>
      <point x="1089.577809929203" y="1110.4255886525295"/>
      <point x="1037.8193314347832" y="1135.595365713602" type="curve" smooth="yes"/>
      <point x="910.1425983807964" y="1202.6810366970217"/>
      <point x="781.7951689033921" y="1228.8999509490773"/>
      <point x="644.0" y="1229.0" type="curve" smooth="yes"/>
      <point x="314.9836963616253" y="1227.1780716715853"/>
      <point x="64.9221030982246" y="970.8716306252707"/>
    </contour>
  </outline>
</glyph>
<glyph name="H" format="2">
  <advance width="1228"/>
  <unicode hex="0048"/>
  <outline>
    <contour>
      <point x="977.0" y="1217.0" type="line" smooth="yes"/>
      <point x="909.0628681269408" y="1216.3716613729468"/>
      <point x="856.7409589499039" y="1183.3375816596265"/>
      <point x="855.0" y="1132.0" type="curve" smooth="yes"/>
      <point x="873.5945097387214" y="699.8076389239388" type="line"/>
      <point x="354.4054902612786" y="699.8076389239388" type="line"/>
      <point x="373.0" y="1132.0" type="line" smooth="yes"/>
      <point x="371.25904105009613" y="1183.3375816596265"/>
      <point x="318.9371318730592" y="1216.3716613729468"/>
      <point x="251.0" y="1217.0" type="curve" smooth="yes"/>
      <point x="249.0" y="1217.0" type="line" smooth="yes"/>
      <point x="181.06286812694083" y="1216.3716613729468"/>
      <point x="128.74095894990387" y="1183.3375816596265"/>
      <point x="127.0" y="1132.0" type="curve" smooth="yes"/>
      <point x="127.0" y="55.0" type="line" smooth="yes"/>
      <point x="128.74095894990387" y="3.6624183403735255"/>
      <point x="181.06286812694083" y="-29.371661372946928"/>
      <point x="249.0" y="-30.0" type="curve" smooth="yes"/>
      <point x="251.0" y="-30.0" type="line" smooth="yes"/>
      <point x="318.9371318730592" y="-29.371661372946928"/>
      <point x="371.25904105009613" y="3.6624183403735255"/>
      <point x="373.0" y="55.0" type="curve" smooth="yes"/>
      <point x="355.85382068955244" y="524.6791165304456" type="line"/>
      <point x="872.1461793104476" y="524.6791165304456" type="line"/>
      <point x="855.0" y="55.0" type="line" smooth="yes"/>
      <point x="856.7409589499039" y="3.6624183403735255"/>
      <point x="909.0628681269408" y="-29.371661372946928"/>
      <point x="977.0" y="-30.0" type="curve" smooth="yes"/>
      <point x="979.0" y="-30.0" type="line" smooth="yes"/>
      <point x="1046.9371318730591" y="-29.371661372946928"/>
      <point x="1099.2590410500961" y="3.6624183403735255"/>
      <point x="1101.0" y="55.0" type="curve" smooth="yes"/>
      <point x="1101.0" y="1132.0" type="line" smooth="yes"/>
      <point x="1099.2590410500961" y="1183.3375816596265"/>
      <point x="1046.9371318730591" y="1216.3716613729468"/>
      <point x="979.0" y="1217.0" type="curve" smooth="yes"/>
    </contour>
  </outline>
</glyph>
<glyph name="I" format="2">
  <advance width="1228"/>
  <unicode hex="0049"/>
  <outline>
    <contour>
      <point x="263.0" y="164.0" type="line" smooth="yes"/>
      <point x="203.47620164351173" y="163.06248534289085"/>
      <point x="153.43315999302408" y="128.85071250072667"/>
      <point x="152.0" y="72.0" type="curve" smooth="yes"/>
      <point x="153.43315999302408" y="15.14928749927334"/>
      <point x="203.47620164351173" y="-19.062485342890852"/>
      <point x="263.0" y="-20.0" type="curve" smooth="yes"/>
      <point x="965.0" y="-20.0" type="line" smooth="yes"/>
      <point x="1024.5237983564882" y="-19.062485342890852"/>
      <point x="1074.566840006976" y="15.14928749927334"/>
      <point x="1076.0" y="72.0" type="curve" smooth="yes"/>
      <point x="1074.566840006976" y="128.85071250072667"/>
      <point x="1024.5237983564882" y="163.06248534289085"/>
      <point x="965.0" y="164.0" type="curve" smooth="yes"/>
      <point x="734.8862122270906" y="149.869760184778" type="line"/>
      <point x="735.1647582411777" y="1037.5225351734605" type="line"/>
      <point x="945.0" y="1023.0" type="line" smooth="yes"/>
      <point x="1004.5237983564882" y="1023.9375146571092"/>
      <point x="1054.566840006976" y="1058.1492874992734"/>
      <point x="1056.0" y="1115.0" type="curve" smooth="yes"/>
      <point x="1054.566840006976" y="1171.8507125007266"/>
      <point x="1004.5237983564882" y="1206.0624853428908"/>
      <point x="945.0" y="1207.0" type="curve" smooth="yes"/>
      <point x="283.0" y="1207.0" type="line" smooth="yes"/>
      <point x="223.47620164351173" y="1206.0624853428908"/>
      <point x="173.43315999302408" y="1171.8507125007266"/>
      <point x="172.0" y="1115.0" type="curve" smooth="yes"/>
      <point x="173.43315999302408" y="1058.1492874992734"/>
      <point x="223.47620164351173" y="1023.9375146571092"/>
      <point x="283.0" y="1023.0" type="curve" smooth="yes"/>
      <point x="492.8352417588224" y="1037.5225351734605" type="line"/>
      <point x="493.11378777290935" y="149.869760184778" type="line"/>
    </contour>
  </outline>
</glyph>
<glyph name="J" format="2">
  <advance width="1228"/>
  <unicode hex="004A"/>
  <outline>
    <contour>
      <point x="443.0" y="1207.0" type="line" smooth="yes"/>
      <point x="383.47620164351173" y="1206.0624853428908"/>
      <point x="333.43315999302405" y="1171.8507125007266"/>
      <point x="332.0" y="1115.0" type="curve" smooth="yes"/>
      <point x="333.43315999302405" y="1058.1492874992734"/>
      <point x="383.47620164351173" y="1023.9375146571092"/>
      <point x="443.0" y="1023.0" type="curve" smooth="yes"/>
      <point x="761.6039893246924" y="1033.6219608739057" type="line"/>
      <point x="756.0" y="363.0" type="line" smooth="yes"/>
      <point x="757.9659506319159" y="215.66523111069952"/>
      <point x="717.0131793240372" y="144.70572514912567"/>
      <point x="582.0" y="146.0" type="curve" smooth="yes"/>
      <point x="485.8536909357323" y="145.73047355177846"/>
      <point x="399.203168321361" y="177.7316969233091"/>
      <point x="322.8562739653743" y="237.98238751130998" type="curve" smooth="yes"/>
      <point x="285.82675246499696" y="260.5695338177052"/>
      <point x="206.95983241720754" y="262.52454685615095"/>
      <point x="161.6096249772709" y="207.80619682625647" type="curve" smooth="yes"/>
      <point x="126.91347165890326" y="156.59066535783347"/>
      <point x="139.58293814101904" y="106.58686768207473"/>
      <point x="185.38166505494502" y="75.94350844666883" type="curve" smooth="yes"/>
      <point x="294.04985427605567" y="-0.9944599602591886"/>
      <point x="442.0368494458946" y="-41.78844067726534"/>
      <point x="581.0" y="-42.0" type="curve" smooth="yes"/>
      <point x="832.3616875947864" y="-40.94811333616179"/>
      <point x="998.7810536144658" y="96.79929067466922"/>
      <point x="1002.0" y="333.0" type="curve" smooth="yes"/>
      <point x="1002.0" y="1119.0" type="line" smooth="yes"/>
      <point x="999.8627851767186" y="1174.9014613278866"/>
      <point x="946.1866141390741" y="1206.2304789528164"/>
      <point x="891.0" y="1207.0" type="curve" smooth="yes"/>
    </contour>
  </outline>
</glyph>
<glyph name="K" format="2">
  <advance width="1228"/>
  <unicode hex="004B"/>
  <outline>
    <contour>
      <point x="289.0" y="1217.0" type="line" smooth="yes"/>
      <point x="221.06286812694083" y="1216.3716613729468"/>
      <point x="168.74095894990387" y="1183.3375816596265"/>
      <point x="167.0" y="1132.0" type="curve" smooth="yes"/>
      <point x="167.0" y="55.0" type="line" smooth="yes"/>
      <point x="168.74095894990387" y="3.6624183403735255"/>
      <point x="221.06286812694083" y="-29.371661372946928"/>
      <point x="289.0" y="-30.0" type="curve" smooth="yes"/>
      <point x="291.0" y="-30.0" type="line" smooth="yes"/>
      <point x="358.9371318730592" y="-29.371661372946928"/>
      <point x="411.25904105009613" y="3.6624183403735255"/>
      <point x="413.0" y="55.0" type="curve" smooth="yes"/>
      <point x="410.28259106183356" y="358.9535384264395" type="line"/>
      <point x="513.9154037463552" y="532.7010722430841" type="line"/>
      <point x="914.8066177886465" y="-6.113937932489133" type="line" smooth="yes"/>
      <point x="954.431372958269" y="-44.42304418407532"/>
      <point x="1024.4525836898806" y="-43.78844433720923"/>
      <point x="1075.7663614624075" y="-17.37634918242058" type="curve" smooth="yes"/>
      <point x="1135.25107057769" y="13.988198400035962"/>
      <point x="1151.1715863814436" y="61.76397452326303"/>
      <point x="1116.1701319774936" y="104.12665384497382" type="curve" smooth="yes"/>
      <point x="691.9604696241737" y="661.4484927483408" type="line"/>
      <point x="1087.8642781518101" y="1080.253269902994" type="line" smooth="yes"/>
      <point x="1128.2076440679446" y="1118.2887814379144"/>
      <point x="1120.177542124159" y="1168.6506914172485"/>
      <point x="1062.3052603509218" y="1203.729222591595" type="curve" smooth="yes"/>
      <point x="1012.9178395176178" y="1231.716575328399"/>
      <point x="942.4757768403957" y="1234.7775263177323"/>
      <point x="901.0211263302507" y="1204.6960963416316" type="curve" smooth="yes"/>
      <point x="360.06654647218886" y="603.7963643841953" type="line"/>
      <point x="413.0" y="1132.0" type="line" smooth="yes"/>
      <point x="411.25904105009613" y="1183.3375816596265"/>
      <point x="358.9371318730592" y="1216.3716613729468"/>
      <point x="291.0" y="1217.0" type="curve" smooth="yes"/>
    </contour>
  </outline>
</glyph>
<glyph name="L" format="2">
  <advance width="1228"/>
  <unicode hex="004C"/>
  <outline>
    <contour>
      <point x="319.0" y="1217.0" type="line" smooth="yes"/>
      <point x="251.06286812694083" y="1216.3716613729468"/>
      <point x="198.74095894990387" y="1183.3375816596265"/>
      <point x="197.0" y="1132.0" type="curve" smooth="yes"/>
      <point x="197.0" y="68.0" type="line" smooth="yes"/>
      <point x="198.43315999302405" y="13.14928749927334"/>
      <point x="248.81338586092585" y="-19.230478952816462"/>
      <point x="308.0" y="-20.0" type="curve" smooth="yes"/>
      <point x="977.0" y="-20.0" type="line" smooth="yes"/>
      <point x="1036.5237983564882" y="-19.062485342890852"/>
      <point x="1086.566840006976" y="15.14928749927334"/>
      <point x="1088.0" y="72.0" type="curve" smooth="yes"/>
      <point x="1086.566840006976" y="128.85071250072667"/>
      <point x="1036.5237983564882" y="163.06248534289085"/>
      <point x="977.0" y="164.0" type="curve" smooth="yes"/>
      <point x="436.3577690724811" y="154.1510718624258" type="line"/>
      <point x="443.0" y="1132.0" type="line" smooth="yes"/>
      <point x="441.25904105009613" y="1183.3375816596265"/>
      <point x="388.9371318730592" y="1216.3716613729468"/>
      <point x="321.0" y="1217.0" type="curve" smooth="yes"/>
    </contour>
  </outline>
</glyph>
<glyph name="M" format="2">
  <advance width="1228"/>
  <unicode hex="004D"/>
  <outline>
    <contour>
      <point x="975.4952432900002" y="1217.002638496196" type="line" smooth="yes"/>
      <point x="912.3520076129511" y="1216.5588994554155"/>
      <point x="853.3763386126428" y="1188.577647212062"/>
      <point x="824.2896128750353" y="1140.8010071023236" type="curve" smooth="yes"/>
      <point x="614.0" y="582.0" type="line"/>
      <point x="403.7116442586654" y="1140.802579730856" type="line" smooth="yes"/>
      <point x="374.9507282228092" y="1188.3936829554495"/>
      <point x="316.86990777858074" y="1216.5503749053205"/>
      <point x="253.51665764806873" y="1217.002764394044" type="curve" smooth="yes"/>
      <point x="250.69164526820194" y="1217.0009846181808" type="line" smooth="yes"/>
      <point x="189.15265326120442" y="1217.05056624688"/>
      <point x="122.44173340298951" y="1188.8453209569657"/>
      <point x="115.02437012041993" y="1132.5182535946863" type="curve" smooth="yes"/>
      <point x="85.02200713274665" y="55.568636607010305" type="line" smooth="yes"/>
      <point x="87.22252649863839" y="5.929363415335889"/>
      <point x="143.57170635419365" y="-30.00266022641498"/>
      <point x="217.5821415298674" y="-30.00180816396666" type="curve" smooth="yes"/>
      <point x="220.42813158742263" y="-30.001898170977867" type="line" smooth="yes"/>
      <point x="294.5362491091392" y="-29.974476984751767"/>
      <point x="349.4987059199365" y="5.644908003199102"/>
      <point x="353.9829548668882" y="54.42773395500948" type="curve" smooth="yes"/>
      <point x="367.4874178926699" y="855.9247185381347" type="line"/>
      <point x="466.61469874783404" y="412.287369904545" type="line" smooth="yes"/>
      <point x="496.7266309605748" y="363.90477601770897"/>
      <point x="553.1198697345452" y="338.30596476641756"/>
      <point x="614.0" y="338.0" type="curve" smooth="yes"/>
      <point x="674.8801302654548" y="338.30596476641756"/>
      <point x="731.2733690394252" y="363.90477601770897"/>
      <point x="761.3853012521658" y="412.287369904545" type="curve" smooth="yes"/>
      <point x="860.5125821073301" y="855.9247185381347" type="line"/>
      <point x="874.0170451331118" y="54.42773395500948" type="line" smooth="yes"/>
      <point x="878.5012940800634" y="5.644908003199108"/>
      <point x="933.4637508908609" y="-29.974476984751764"/>
      <point x="1007.5718684125774" y="-30.001898170977867" type="curve" smooth="yes"/>
      <point x="1010.4178584701326" y="-30.00180816396666" type="line" smooth="yes"/>
      <point x="1084.4282936458062" y="-30.00266022641498"/>
      <point x="1140.7774735013616" y="5.929363415335901"/>
      <point x="1142.9779928672533" y="55.568636607010305" type="curve" smooth="yes"/>
      <point x="1112.975741005377" y="1132.5202683318269" type="line" smooth="yes"/>
      <point x="1105.8419817167794" y="1188.544644407791"/>
      <point x="1040.0761228223666" y="1217.0587567010652"/>
      <point x="978.3160031863517" y="1217.0010340708766" type="curve" smooth="yes"/>
    </contour>
  </outline>
</glyph>
<glyph name="O" format="2">
  <advance width="1228"/>
  <unicode hex="004F"/>
  <outline>
    <contour>
      <point x="42.0" y="593.0" type="curve" smooth="yes"/>
      <point x="44.55265654778265" y="216.564705432579"/>
      <point x="278.6697038766422" y="-40.117474776597774"/>
      <point x="614.0" y="-42.0" type="curve" smooth="yes"/>
      <point x="949.3302961233578" y="-40.117474776597774"/>
      <point x="1183.4473434522174" y="216.564705432579"/>
      <point x="1186.0" y="593.0" type="curve" smooth="yes"/>
      <point x="1183.4549776151239" y="969.4259268949952"/>
      <point x="949.3983159680183" y="1227.1041964214796"/>
      <point x="614.0" y="1229.0" type="curve" smooth="yes"/>
      <point x="278.60168403198173" y="1227.1041964214796"/>
      <point x="44.545022384876034" y="969.4259268949952"/>
    </contour>
    <contour>
      <point x="936.0" y="593.0" type="curve" smooth="yes"/>
      <point x="938.1867069690325" y="308.96782725064355"/>
      <point x="817.2859952235838" y="144.04185915083332"/>
      <point x="614.0" y="146.0" type="curve" smooth="yes"/>
      <point x="410.71400477641623" y="144.04185915083332"/>
      <point x="289.8132930309676" y="308.96782725064355"/>
      <point x="292.0" y="593.0" type="curve" smooth="yes"/>
      <point x="289.8220022204696" y="877.0437924464134"/>
      <point x="410.8090887574581" y="1042.9771469095049"/>
      <point x="614.0" y="1041.0" type="curve" smooth="yes"/>
      <point x="817.1909112425419" y="1042.9771469095049"/>
      <point x="938.1779977795304" y="877.0437924464134"/>
    </contour>
  </outline>
</glyph>
<glyph name="P" format="2">
  <advance width="1228"/>
  <unicode hex="0050"/>
  <outline>
    <contour>
      <point x="298.0" y="1207.0" type="line" smooth="yes"/>
      <point x="239.81338586092585" y="1206.2304789528164"/>
      <point x="188.59814906264742" y="1174.1178512063257"/>
      <point x="187.0" y="1119.0" type="curve" smooth="yes"/>
      <point x="187.0" y="55.0" type="line" smooth="yes"/>
      <point x="188.74095894990387" y="3.6624183403735255"/>
      <point x="241.06286812694083" y="-29.371661372946928"/>
      <point x="309.0" y="-30.0" type="curve" smooth="yes"/>
      <point x="311.0" y="-30.0" type="line" smooth="yes"/>
      <point x="378.9371318730592" y="-29.371661372946928"/>
      <point x="431.25904105009613" y="3.6624183403735255"/>
      <point x="433.0" y="55.0" type="curve" smooth="yes"/>
      <point x="423.3182211602376" y="380.9547011885348" type="line"/>
      <point x="640.0" y="373.0" type="line" smooth="yes"/>
      <point x="936.6710890795325" y="374.2450247855259"/>
      <point x="1116.7976654683255" y="545.8172519502263"/>
      <point x="1120.0" y="788.0" type="curve" smooth="yes"/>
      <point x="1116.8554112765905" y="1031.1199065518397"/>
      <point x="936.9450311415251" y="1205.7123043280644"/>
      <point x="640.0" y="1207.0" type="curve" smooth="yes"/>
    </contour>
    <contour>
      <point x="428.5669180328551" y="545.3948112810343" type="line"/>
      <point x="428.5669180328551" y="1034.6051887189656" type="line"/>
      <point x="619.0" y="1023.0" type="line" smooth="yes"/>
      <point x="801.604341177797" y="1023.920647217027"/>
      <point x="873.4331188375075" y="941.5721864729179"/>
      <point x="870.0" y="788.0" type="curve" smooth="yes"/>
      <point x="873.5315351032385" y="636.5295209486549"/>
      <point x="801.8838792557989" y="556.115580174439"/>
      <point x="619.0" y="557.0" type="curve" smooth="yes"/>
    </contour>
  </outline>
</glyph>
<glyph name="Q" format="2">
  <advance width="1228"/>
  <unicode hex="0051"/>
  <outline>
    <contour>
      <point x="556.558936859381" y="289.22676596663837" type="curve" smooth="yes"/>
      <point x="687.538146891453" y="84.24032700196159" type="line"/>
      <point x="713.6348414560679" y="43.17745749184429" type="line"/>
      <point x="835.7101589062521" y="-145.87115756384168" type="line" smooth="yes"/>
      <point x="869.644803685756" y="-188.14313458358376"/>
      <point x="941.9914115971961" y="-197.99953205894644"/>
      <point x="999.6316635866232" y="-165.90977806061943" type="curve" smooth="yes"/>
      <point x="1057.1521148525492" y="-132.61887490632384"/>
      <point x="1072.8773924186537" y="-86.11828302324953"/>
      <point x="1042.3793402960512" y="-43.18664600951411" type="curve" smooth="yes"/>
      <point x="763.404239469124" y="391.7971947948433" type="line" smooth="yes"/>
      <point x="729.7578385801686" y="434.99675710730185"/>
      <point x="657.0085884028039" y="444.99953205894644"/>
      <point x="598.8706789386182" y="412.7770230858599" type="curve" smooth="yes"/>
      <point x="542.8478851474509" y="378.6188749063238"/>
      <point x="525.9279466075783" y="333.3886601637435"/>
    </contour>
    <component base="O"/>
  </outline>
</glyph>
<glyph name="S" format="2">
  <advance width="1228"/>
  <unicode hex="0053"/>
  <outline>
    <contour>
      <point x="124.0" y="863.0" type="curve" smooth="yes"/>
      <point x="126.35669758632892" y="717.8101653566366"/>
      <point x="213.28169340991326" y="634.6716872098627"/>
      <point x="316.20849161326714" y="589.7792462471349" type="curve" smooth="yes"/>
      <point x="463.80750274785686" y="526.370188159486"/>
      <point x="655.8646488186023" y="524.2893497611199"/>
      <point x="768.2012720721341" y="473.5976307935047" type="curve" smooth="yes"/>
      <point x="832.9931010359293" y="444.18998517813804"/>
      <point x="862.9194560770496" y="407.1313847878589"/>
      <point x="860.0" y="327.0" type="curve" smooth="yes"/>
      <point x="864.2726570373287" y="217.24873177778417"/>
      <point x="803.6219059564977" y="145.2075045002092"/>
      <point x="622.0" y="146.0" type="curve" smooth="yes"/>
      <point x="499.27871850756554" y="145.70028385596618"/>
      <point x="385.7583573435819" y="189.03300696907078"/>
      <point x="295.9397668090088" y="248.82801327799623" type="curve" smooth="yes"/>
      <point x="256.0640965205504" y="269.12223649723956"/>
      <point x="177.21180931170352" y="266.34378784302356"/>
      <point x="138.41359354073944" y="208.2270547328398" type="curve" smooth="yes"/>
      <point x="108.99942508338314" y="155.06000901210612"/>
      <point x="126.32562725439554" y="104.60711422841959"/>
      <point x="175.72591566904177" y="76.99703528082237" type="curve" smooth="yes"/>
      <point x="299.933295722451" y="2.645557663853708"/>
      <point x="462.25569420956236" y="-41.80159548936629"/>
      <point x="622.0" y="-42.0" type="curve" smooth="yes"/>
      <point x="930.8361314722027" y="-41.02068137461896"/>
      <point x="1106.2813703545373" y="113.2814230279818"/>
      <point x="1110.0" y="327.0" type="curve" smooth="yes"/>
      <point x="1107.413055091621" y="509.4771825371062"/>
      <point x="998.7572998434671" y="603.8766023147399"/>
      <point x="873.9412610008679" y="652.5503778866998" type="curve" smooth="yes"/>
      <point x="713.1783536234518" y="714.7075604676234"/>
      <point x="517.2970393776285" y="713.6989456921684"/>
      <point x="424.6884096718492" y="765.8419609479955" type="curve" smooth="yes"/>
      <point x="384.1943249256422" y="787.8754450513733"/>
      <point x="371.73383238574667" y="813.0727158387667"/>
      <point x="374.0" y="863.0" type="curve" smooth="yes"/>
      <point x="369.53043051090674" y="976.5723913994036"/>
      <point x="431.85960618498126" y="1041.8518598760127"/>
      <point x="578.0" y="1041.0" type="curve" smooth="yes"/>
      <point x="702.4803398309363" y="1041.1853465450022"/>
      <point x="807.042146187994" y="1008.6259931351029"/>
      <point x="898.4487747311513" y="951.8141423118059" type="curve" smooth="yes"/>
      <point x="939.6773146316872" y="932.6702974614701"/>
      <point x="1018.737647263777" y="936.9958238095926"/>
      <point x="1054.5945512253002" y="995.6301310964498" type="curve" smooth="yes"/>
      <point x="1081.2348346413803" y="1050.4431600420648"/>
      <point x="1062.8196897673156" y="1099.8311040098222"/>
      <point x="1011.8428800089242" y="1126.3581406658377" type="curve" smooth="yes"/>
      <point x="884.4058198201149" y="1196.638732057373"/>
      <point x="736.1194209089904" y="1228.8859226169116"/>
      <point x="578.0" y="1229.0" type="curve" smooth="yes"/>
      <point x="323.4648287794287" y="1228.0609803473901"/>
      <point x="128.72299039908341" y="1088.6512326514357"/>
    </contour>
  </outline>
</glyph>
<glyph name="T" format="2">
  <advance width="1228"/>
  <unicode hex="0054"/>
  <outline>
    <contour>
      <point x="184.95462756678072" y="1207.0000213174776" type="line" smooth="yes"/>
      <point x="118.52472512275223" y="1206.768566548321"/>
      <point x="64.87076156450203" y="1170.0521289176663"/>
      <point x="62.0" y="1115.0" type="curve" smooth="yes"/>
      <point x="64.87076156450203" y="1059.9478710823337"/>
      <point x="118.52472512275223" y="1023.2314334516791"/>
      <point x="186.44070767317498" y="1022.9784901768747" type="curve" smooth="yes"/>
      <point x="482.3423003692178" y="1035.983957128727" type="line"/>
      <point x="479.00000704349196" y="54.98969494433851" type="line" smooth="yes"/>
      <point x="482.47581483262724" y="5.61415227542607"/>
      <point x="538.6521034472331" y="-29.984764763642374"/>
      <point x="612.5821415298674" y="-30.00180816396666" type="curve" smooth="yes"/>
      <point x="615.4178584701326" y="-30.00180816396666" type="line" smooth="yes"/>
      <point x="689.3478965527669" y="-29.984764763642374"/>
      <point x="745.5241851673728" y="5.61415227542607"/>
      <point x="748.999992956508" y="54.98969494433851" type="curve" smooth="yes"/>
      <point x="745.6576996307822" y="1035.983957128727" type="line"/>
      <point x="1041.559292326825" y="1022.9784901768747" type="line" smooth="yes"/>
      <point x="1109.4752748772478" y="1023.2314334516791"/>
      <point x="1163.1292384354979" y="1059.9478710823337"/>
      <point x="1166.0" y="1115.0" type="curve" smooth="yes"/>
      <point x="1163.1292384354979" y="1170.0521289176663"/>
      <point x="1109.4752748772478" y="1206.768566548321"/>
      <point x="1043.0453724332192" y="1207.0000213174776" type="curve" smooth="yes"/>
    </contour>
  </outline>
</glyph>
<glyph name="U" format="2">
  <advance width="1228"/>
  <unicode hex="0055"/>
  <outline>
    <contour>
      <point x="977.0" y="1217.0" type="line" smooth="yes"/>
      <point x="909.0628681269408" y="1216.3716613729468"/>
      <point x="856.7409589499039" y="1183.3375816596265"/>
      <point x="855.0" y="1132.0" type="curve" smooth="yes"/>
      <point x="855.0" y="433.0" type="line" smooth="yes"/>
      <point x="857.6741217401861" y="231.58234116965266"/>
      <point x="780.4444843132824" y="144.92063987147057"/>
      <point x="614.0" y="146.0" type="curve" smooth="yes"/>
      <point x="447.5555156867177" y="144.92063987147057"/>
      <point x="370.3258782598138" y="231.58234116965266"/>
      <point x="373.0" y="433.0" type="curve" smooth="yes"/>
      <point x="373.0" y="1132.0" type="line" smooth="yes"/>
      <point x="371.25904105009613" y="1183.3375816596265"/>
      <point x="318.9371318730592" y="1216.3716613729468"/>
      <point x="251.0" y="1217.0" type="curve" smooth="yes"/>
      <point x="249.0" y="1217.0" type="line" smooth="yes"/>
      <point x="181.06286812694083" y="1216.3716613729468"/>
      <point x="128.74095894990387" y="1183.3375816596265"/>
      <point x="127.0" y="1132.0" type="curve" smooth="yes"/>
      <point x="127.0" y="413.0" type="line" smooth="yes"/>
      <point x="130.61122582043487" y="120.38928105541939"/>
      <point x="338.4800551397753" y="-40.92571053788514"/>
      <point x="614.0" y="-42.0" type="curve" smooth="yes"/>
      <point x="889.5199448602248" y="-40.92571053788514"/>
      <point x="1097.3887741795652" y="120.38928105541939"/>
      <point x="1101.0" y="413.0" type="curve" smooth="yes"/>
      <point x="1101.0" y="1132.0" type="line" smooth="yes"/>
      <point x="1099.2590410500961" y="1183.3375816596265"/>
      <point x="1046.9371318730591" y="1216.3716613729468"/>
      <point x="979.0" y="1217.0" type="curve" smooth="yes"/>
    </contour>
  </outline>
</glyph>
<glyph name="V" format="2">
  <advance width="1228"/>
  <unicode hex="0056"/>
  <outline>
    <contour>
      <point x="928.0143638680092" y="1157.9758081695297" type="curve" smooth="yes"/>
      <point x="612.0" y="202.0" type="line"/>
      <point x="295.9856361319908" y="1157.9758081695297" type="line" smooth="yes"/>
      <point x="273.72941536736573" y="1206.81477700939"/>
      <point x="206.31856805353263" y="1226.9410897100315"/>
      <point x="141.69357322341597" y="1207.9558757534085" type="curve" smooth="yes"/>
      <point x="77.77634172534803" y="1188.0159599471858"/>
      <point x="41.04664472299702" y="1146.1185044985846"/>
      <point x="61.083008323638055" y="1095.9478153165132" type="curve" smooth="yes"/>
      <point x="460.08126219199397" y="35.94974643709029" type="line" smooth="yes"/>
      <point x="484.9540485229792" y="-16.194215216993847"/>
      <point x="545.484789235096" y="-41.603096251769905"/>
      <point x="612.0" y="-42.0" type="curve" smooth="yes"/>
      <point x="678.515210764904" y="-41.603096251769905"/>
      <point x="739.0459514770208" y="-16.194215216993847"/>
      <point x="763.918737808006" y="35.94974643709029" type="curve" smooth="yes"/>
      <point x="1162.916991676362" y="1095.9478153165132" type="line" smooth="yes"/>
      <point x="1182.953355277003" y="1146.1185044985846"/>
      <point x="1146.223658274652" y="1188.0159599471858"/>
      <point x="1082.306426776584" y="1207.9558757534085" type="curve" smooth="yes"/>
      <point x="1017.6814319464673" y="1226.9410897100315"/>
      <point x="950.2705846326343" y="1206.81477700939"/>
    </contour>
  </outline>
</glyph>
<glyph name="W" format="2">
  <advance width="1228"/>
  <unicode hex="0057"/>
  <outline>
    <contour>
      <point x="955.3833994948283" y="1141.5227904362475" type="curve" smooth="yes"/>
      <point x="858.470138089474" y="272.70666942950373" type="line"/>
      <point x="729.2717106852039" y="851.6467438200136" type="line" smooth="yes"/>
      <point x="713.4" y="883.0"/>
      <point x="664.1066916453643" y="904.5516356234726"/>
      <point x="610.0" y="905.0" type="curve" smooth="yes"/>
      <point x="555.8933083546357" y="904.5516356234726"/>
      <point x="506.6" y="883.0"/>
      <point x="490.72828931479614" y="851.6467438200136" type="curve" smooth="yes"/>
      <point x="361.52986191052605" y="272.70666942950373" type="line"/>
      <point x="264.61660050517173" y="1141.5227904362475" type="line" smooth="yes"/>
      <point x="255.36994880967882" y="1193.6297531021935"/>
      <point x="197.26181660342658" y="1221.8290859108508"/>
      <point x="129.46572715860933" y="1215.8666204562742" type="curve" smooth="yes"/>
      <point x="62.54741631011949" y="1207.7884443372093"/>
      <point x="13.634123598433199" y="1172.2402029876694"/>
      <point x="20.45413608331223" y="1119.255345333406" type="curve" smooth="yes"/>
      <point x="169.45254978224506" y="40.260120333196745" type="line" smooth="yes"/>
      <point x="181.73738720373558" y="-15.48199646070035"/>
      <point x="242.47193334517166" y="-41.6020121284229"/>
      <point x="303.0" y="-42.0" type="curve" smooth="yes"/>
      <point x="365.1177853106899" y="-41.45612429370733"/>
      <point x="425.3291226356187" y="-14.039275699649469"/>
      <point x="448.25691158455305" y="36.33578230100678" type="curve" smooth="yes"/>
      <point x="610.0" y="609.0" type="line"/>
      <point x="771.743088415447" y="36.33578230100678" type="line" smooth="yes"/>
      <point x="794.6708773643812" y="-14.039275699649469"/>
      <point x="854.8822146893101" y="-41.45612429370733"/>
      <point x="917.0" y="-42.0" type="curve" smooth="yes"/>
      <point x="977.5280666548283" y="-41.6020121284229"/>
      <point x="1038.2626127962644" y="-15.48199646070035"/>
      <point x="1050.5474502177549" y="40.260120333196745" type="curve" smooth="yes"/>
      <point x="1199.5458639166877" y="1119.255345333406" type="line" smooth="yes"/>
      <point x="1206.3658764015668" y="1172.2402029876694"/>
      <point x="1157.4525836898806" y="1207.7884443372093"/>
      <point x="1090.5342728413907" y="1215.8666204562742" type="curve" smooth="yes"/>
      <point x="1022.7381833965734" y="1221.8290859108508"/>
      <point x="964.6300511903212" y="1193.6297531021935"/>
    </contour>
  </outline>
</glyph>
<glyph name="X" format="2">
  <advance width="1228"/>
  <unicode hex="0058"/>
  <outline>
    <contour>
      <point x="875.989772123497" y="1183.0489886514802" type="curve" smooth="yes"/>
      <point x="620.7265014648438" y="744.7474975585938" type="line"/>
      <point x="363.9551624984693" y="1183.0835290531036" type="line" smooth="yes"/>
      <point x="323.9520680801887" y="1227.5495154878352"/>
      <point x="254.20730149281542" y="1229.156525704423"/>
      <point x="197.1714177211958" y="1205.213754555341" type="curve" smooth="yes"/>
      <point x="140.02312083992592" y="1181.277712510921"/>
      <point x="112.27597591998835" y="1133.419213325489"/>
      <point x="147.46128887226698" y="1086.660155651255" type="curve" smooth="yes"/>
      <point x="478.12940902218804" y="605.1103195462474" type="line"/>
      <point x="124.6821463085302" y="100.47238820658238" type="line" smooth="yes"/>
      <point x="90.27597591998835" y="53.58078667451095"/>
      <point x="116.70945744961674" y="5.8336656005795415"/>
      <point x="174.1714177211958" y="-18.213754555340962" type="curve" smooth="yes"/>
      <point x="230.68280032947456" y="-42.08959956070059"/>
      <point x="300.9520680801887" y="-41.549515487835166"/>
      <point x="340.82461817740824" y="3.8352008167313585" type="curve" smooth="yes"/>
      <point x="618.249755859375" y="466.63836669921875" type="line"/>
      <point x="899.2655476954994" y="3.779565856359895" type="line" smooth="yes"/>
      <point x="938.0479319198113" y="-41.549515487835166"/>
      <point x="1009.1559050058598" y="-42.11047175791085"/>
      <point x="1065.828582278804" y="-18.213754555340962" type="curve" smooth="yes"/>
      <point x="1123.3411018593342" y="5.851800767988463"/>
      <point x="1150.7240240800118" y="54.58078667451095"/>
      <point x="1115.2137596194702" y="100.53407584696198" type="curve" smooth="yes"/>
      <point x="760.8517311145307" y="604.5351852689037" type="line"/>
      <point x="1092.5171639665834" y="1086.6471235286695" type="line" smooth="yes"/>
      <point x="1127.7240240800118" y="1133.419213325489"/>
      <point x="1099.976879160074" y="1181.277712510921"/>
      <point x="1042.828582278804" y="1205.213754555341" type="curve" smooth="yes"/>
      <point x="985.7926985071846" y="1229.156525704423"/>
      <point x="916.0479319198113" y="1227.5495154878352"/>
    </contour>
  </outline>
</glyph>
<glyph name="Y" format="2">
  <advance width="1228"/>
  <unicode hex="0059"/>
  <outline>
    <contour>
      <point x="904.3821650824523" y="1183.133866881689" type="curve" smooth="yes"/>
      <point x="614.1986869591204" y="666.0197753989754" type="line"/>
      <point x="323.64260161207375" y="1183.121644214875" type="line" smooth="yes"/>
      <point x="286.1404721308982" y="1220.1268416909065"/>
      <point x="212.22969222592462" y="1229.2579721779662"/>
      <point x="147.78001488065095" y="1205.1919516083608" type="curve" smooth="yes"/>
      <point x="78.95507077266348" y="1179.6551515153112"/>
      <point x="55.459609301763095" y="1128.3213056811267"/>
      <point x="89.78479602105404" y="1085.0345283687393" type="curve" smooth="yes"/>
      <point x="482.98692369816416" y="479.60235867609276" type="line"/>
      <point x="479.0000599098686" y="54.96994579165606" type="line" smooth="yes"/>
      <point x="482.47581483262724" y="5.61415227542607"/>
      <point x="538.6521034472331" y="-29.984764763642374"/>
      <point x="612.5821415298674" y="-30.00180816396666" type="curve" smooth="yes"/>
      <point x="615.4178584701326" y="-30.00180816396666" type="line" smooth="yes"/>
      <point x="689.3478965527669" y="-29.984764763642374"/>
      <point x="745.5241851673728" y="5.61415227542607"/>
      <point x="748.9999402691125" y="54.96999071873785" type="curve" smooth="yes"/>
      <point x="745.0131069800284" y="480.31291755757894" type="line"/>
      <point x="1138.1987527108377" y="1085.0261033849324" type="line" smooth="yes"/>
      <point x="1172.5401879121305" y="1128.322256179576"/>
      <point x="1149.0449292273365" y="1179.6551515153112"/>
      <point x="1080.2236050794065" y="1205.192861037452" type="curve" smooth="yes"/>
      <point x="1015.8903547817933" y="1229.2387762475316"/>
      <point x="942.8764673745651" y="1220.121266748857"/>
    </contour>
  </outline>
</glyph>
<glyph name="Z" format="2">
  <advance width="1228"/>
  <unicode hex="005A"/>
  <outline>
    <contour>
      <point x="256.0" y="1207.0" type="line" smooth="yes"/>
      <point x="196.47620164351173" y="1206.0624853428908"/>
      <point x="146.43315999302408" y="1171.8507125007266"/>
      <point x="145.0" y="1115.0" type="curve" smooth="yes"/>
      <point x="146.43315999302408" y="1058.1492874992734"/>
      <point x="196.47620164351173" y="1023.9375146571092"/>
      <point x="256.0" y="1023.0" type="curve" smooth="yes"/>
      <point x="773.656803667399" y="1044.6042560542876" type="line"/>
      <point x="141.43624909180218" y="122.32467204328056" type="line" smooth="yes"/>
      <point x="131.11971123441344" y="108.77206737863686"/>
      <point x="119.87456717166648" y="89.80043813131722"/>
      <point x="119.0" y="68.0" type="curve" smooth="yes"/>
      <point x="120.59814906264742" y="12.88214879367435"/>
      <point x="171.81338586092585" y="-19.230478952816462"/>
      <point x="230.0" y="-20.0" type="curve" smooth="yes"/>
      <point x="996.0" y="-20.0" type="line" smooth="yes"/>
      <point x="1055.5237983564882" y="-19.062485342890852"/>
      <point x="1105.566840006976" y="15.14928749927334"/>
      <point x="1107.0" y="72.0" type="curve" smooth="yes"/>
      <point x="1105.566840006976" y="128.85071250072667"/>
      <point x="1055.5237983564882" y="163.06248534289085"/>
      <point x="996.0" y="164.0" type="curve" smooth="yes"/>
      <point x="435.4664771845785" y="143.25265905383714" type="line"/>
      <point x="1070.5515724039367" y="1068.6679449221456" type="line" smooth="yes"/>
      <point x="1082.0193627001552" y="1082.025477771711"/>
      <point x="1088.7452061036745" y="1100.94201697829"/>
      <point x="1089.0" y="1119.0" type="curve" smooth="yes"/>
      <point x="1087.4018509373525" y="1174.1178512063257"/>
      <point x="1036.1866141390742" y="1206.2304789528164"/>
      <point x="978.0" y="1207.0" type="curve" smooth="yes"/>
    </contour>
  </outline>
</glyph>
<glyph name="bracketleft" format="2">
  <advance width="1228"/>
  <unicode hex="005B"/>
  <outline>
    <contour>
      <point x="393.0" y="1392.0" type="line" smooth="yes"/>
      <point x="334.81338586092585" y="1391.2304789528164"/>
      <point x="283.59814906264745" y="1359.1178512063257"/>
      <point x="282.0" y="1304.0" type="curve" smooth="yes"/>
      <point x="282.0" y="-265.0" type="line" smooth="yes"/>
      <point x="283.59814906264745" y="-320.11785120632567"/>
      <point x="334.81338586092585" y="-352.23047895281644"/>
      <point x="393.0" y="-353.0" type="curve" smooth="yes"/>
      <point x="807.0" y="-353.0" type="line" smooth="yes"/>
      <point x="866.5237983564882" y="-352.06248534289085"/>
      <point x="916.5668400069759" y="-317.8507125007267"/>
      <point x="918.0" y="-261.0" type="curve" smooth="yes"/>
      <point x="916.5668400069759" y="-204.14928749927333"/>
      <point x="866.5237983564882" y="-169.93751465710915"/>
      <point x="807.0" y="-169.0" type="curve" smooth="yes"/>
      <point x="526.7707773933417" y="-184.50280986602482" type="line"/>
      <point x="526.7707773933417" y="1223.5028098660248" type="line"/>
      <point x="807.0" y="1208.0" type="line" smooth="yes"/>
      <point x="866.5237983564882" y="1208.9375146571092"/>
      <point x="916.5668400069759" y="1243.1492874992734"/>
      <point x="918.0" y="1300.0" type="curve" smooth="yes"/>
      <point x="916.5668400069759" y="1356.8507125007266"/>
      <point x="866.5237983564882" y="1391.0624853428908"/>
      <point x="807.0" y="1392.0" type="curve" smooth="yes"/>
    </contour>
  </outline>
</glyph>
<glyph name="backslash" format="2">
  <advance width="1228"/>
  <unicode hex="005C"/>
  <outline>
    <contour>
      <point x="156.56912173393238" y="1316.4320548011847" type="curve" smooth="yes"/>
      <point x="828.5762981055432" y="-326.5752556565818" type="line" smooth="yes"/>
      <point x="846.6166012703644" y="-353.51449257034693"/>
      <point x="893.580667909244" y="-374.3189610300649"/>
      <point x="938.0" y="-375.0" type="curve" smooth="yes"/>
      <point x="1014.1866141390741" y="-374.23047895281644"/>
      <point x="1087.9964130564688" y="-331.9637305920725"/>
      <point x="1071.4308782660676" y="-277.43205480118473" type="curve" smooth="yes"/>
      <point x="399.4237018944568" y="1365.5752556565817" type="line" smooth="yes"/>
      <point x="381.3833987296356" y="1392.5144925703469"/>
      <point x="334.41933209075603" y="1413.3189610300649"/>
      <point x="290.0" y="1414.0" type="curve" smooth="yes"/>
      <point x="213.81338586092585" y="1413.2304789528164"/>
      <point x="140.00358694353127" y="1370.9637305920726"/>
    </contour>
  </outline>
</glyph>
<glyph name="bracketright" format="2">
  <advance width="1228"/>
  <unicode hex="005D"/>
  <outline>
    <contour>
      <point x="421.0" y="-169.0" type="line" smooth="yes"/>
      <point x="361.47620164351173" y="-169.93751465710915"/>
      <point x="311.43315999302405" y="-204.14928749927333"/>
      <point x="310.0" y="-261.0" type="curve" smooth="yes"/>
      <point x="311.43315999302405" y="-317.8507125007267"/>
      <point x="361.47620164351173" y="-352.06248534289085"/>
      <point x="421.0" y="-353.0" type="curve" smooth="yes"/>
      <point x="835.0" y="-353.0" type="line" smooth="yes"/>
      <point x="893.1866141390741" y="-352.23047895281644"/>
      <point x="944.4018509373526" y="-320.11785120632567"/>
      <point x="946.0" y="-265.0" type="curve" smooth="yes"/>
      <point x="946.0" y="1304.0" type="line" smooth="yes"/>
      <point x="944.4018509373526" y="1359.1178512063257"/>
      <point x="893.1866141390741" y="1391.2304789528164"/>
      <point x="835.0" y="1392.0" type="curve" smooth="yes"/>
      <point x="421.0" y="1392.0" type="line" smooth="yes"/>
      <point x="361.47620164351173" y="1391.0624853428908"/>
      <point x="311.43315999302405" y="1356.8507125007266"/>
      <point x="310.0" y="1300.0" type="curve" smooth="yes"/>
      <point x="311.43315999302405" y="1243.1492874992734"/>
      <point x="361.47620164351173" y="1208.9375146571092"/>
      <point x="421.0" y="1208.0" type="curve" smooth="yes"/>
      <point x="701.2292226066583" y="1223.5028098660248" type="line"/>
      <point x="701.2292226066583" y="-184.50280986602482" type="line"/>
    </contour>
  </outline>
</glyph>
<glyph name="asciicircum" format="2">
  <advance width="1228"/>
  <unicode hex="005E"/>
  <outline>
    <contour>
      <point x="503.4476291201714" y="1181.2542757807757" type="curve" smooth="yes"/>
      <point x="195.44149933778849" y="590.2493808105874" type="line" smooth="yes"/>
      <point x="172.51406254842473" y="544.0807825337147"/>
      <point x="222.20832782863806" y="502.8741738289934"/>
      <point x="268.3938094740491" y="489.94844714006405" type="curve" smooth="yes"/>
      <point x="313.6338508927425" y="477.125373676824"/>
      <point x="385.0523001059408" y="482.235647136881"/>
      <point x="420.01701599428225" y="518.1265031109756" type="curve" smooth="yes"/>
      <point x="614.0" y="987.0" type="line"/>
      <point x="807.9663218654666" y="518.1405403446786" type="line" smooth="yes"/>
      <point x="843.2536072899621" y="481.17029629956573"/>
      <point x="918.2325023283107" y="476.16931077355696"/>
      <point x="965.7129534209741" y="491.2514945598047" type="curve" smooth="yes"/>
      <point x="1008.3052603509219" y="505.2707774084049"/>
      <point x="1054.5647402326467" y="545.3127265405284"/>
      <point x="1032.571876040015" y="590.2386883767393" type="curve" smooth="yes"/>
      <point x="724.5523708798286" y="1181.2542757807757" type="line" smooth="yes"/>
      <point x="706.7786839272627" y="1208.337633264534"/>
      <point x="664.0412217885905" y="1228.4636922555283"/>
      <point x="614.0" y="1229.0" type="curve" smooth="yes"/>
      <point x="563.9587782114095" y="1228.4636922555283"/>
      <point x="521.2213160727373" y="1208.337633264534"/>
    </contour>
  </outline>
</glyph>
<glyph name="underscore" format="2">
  <advance width="1228"/>
  <unicode hex="005F"/>
  <outline>
    <contour>
      <point x="133.0" y="-229.0" type="line" smooth="yes"/>
      <point x="73.47620164351173" y="-229.93751465710915"/>
      <point x="23.43315999302407" y="-264.1492874992733"/>
      <point x="22.0" y="-321.0" type="curve" smooth="yes"/>
      <point x="23.43315999302407" y="-377.8507125007267"/>
      <point x="73.47620164351173" y="-412.06248534289085"/>
      <point x="133.0" y="-413.0" type="curve" smooth="yes"/>
      <point x="1095.0" y="-413.0" type="line" smooth="yes"/>
      <point x="1154.5237983564882" y="-412.06248534289085"/>
      <point x="1204.566840006976" y="-377.8507125007267"/>
      <point x="1206.0" y="-321.0" type="curve" smooth="yes"/>
      <point x="1204.566840006976" y="-264.1492874992733"/>
      <point x="1154.5237983564882" y="-229.93751465710915"/>
      <point x="1095.0" y="-229.0" type="curve" smooth="yes"/>
    </contour>
  </outline>
</glyph>
<glyph name="b" format="2">
  <advance width="1228"/>
  <unicode hex="0062"/>
  <outline>
    <contour>
      <point x="266.0" y="1342.0" type="line" smooth="yes"/>
      <point x="198.06286812694083" y="1341.3716613729468"/>
      <point x="145.74095894990387" y="1308.3375816596265"/>
      <point x="144.0" y="1257.0" type="curve" smooth="yes"/>
      <point x="144.0" y="55.0" type="line" smooth="yes"/>
      <point x="145.39128581113124" y="4.219619057551921"/>
      <point x="195.25690117173323" y="-29.28232059540366"/>
      <point x="261.0" y="-30.0" type="curve" smooth="yes"/>
      <point x="263.0" y="-30.0" type="line" smooth="yes"/>
      <point x="328.74309882826674" y="-29.28232059540366"/>
      <point x="378.60871418886876" y="4.219619057551921"/>
      <point x="380.0" y="55.0" type="curve" smooth="yes"/>
      <point x="323.921769781183" y="128.28527148979185" type="line"/>
      <point x="382.3654388191686" y="25.958076301271355"/>
      <point x="514.0460300890903" y="-41.369858651936994"/>
      <point x="659.0" y="-42.0" type="curve" smooth="yes"/>
      <point x="924.7094264344954" y="-40.41816246985587"/>
      <point x="1133.8978882175254" y="152.92672732110267"/>
      <point x="1137.0" y="462.0" type="curve" smooth="yes"/>
      <point x="1133.8978882175254" y="771.0732726788973"/>
      <point x="924.7094264344954" y="964.4181624698559"/>
      <point x="659.0" y="966.0" type="curve" smooth="yes"/>
      <point x="513.6687444955239" y="965.3287536677303"/>
      <point x="389.9541266250992" y="897.8900017701559"/>
      <point x="388.93818600889324" y="785.1834390382257" type="curve"/>
      <point x="390.0" y="1257.0" type="line" smooth="yes"/>
      <point x="388.25904105009613" y="1308.3375816596265"/>
      <point x="335.9371318730592" y="1341.3716613729468"/>
      <point x="268.0" y="1342.0" type="curve" smooth="yes"/>
    </contour>
    <contour>
      <point x="887.0" y="462.0" type="curve" smooth="yes"/>
      <point x="889.1849610543186" y="271.96549986271896"/>
      <point x="808.8962875035835" y="143.96327908921165"/>
      <point x="649.0" y="146.0" type="curve" smooth="yes"/>
      <point x="489.97662336083283" y="144.54443337290215"/>
      <point x="386.7661618332106" y="257.2167671606118"/>
      <point x="390.0" y="462.0" type="curve" smooth="yes"/>
      <point x="386.7661618332106" y="666.7832328393881"/>
      <point x="489.97662336083283" y="779.4555666270978"/>
      <point x="649.0" y="778.0" type="curve" smooth="yes"/>
      <point x="808.8962875035835" y="780.0367209107883"/>
      <point x="889.1849610543186" y="652.034500137281"/>
    </contour>
  </outline>
</glyph>
<glyph name="c" format="2">
  <advance width="1228"/>
  <unicode hex="0063"/>
  <outline>
    <contour>
      <point x="99.0" y="462.0" type="curve" smooth="yes"/>
      <point x="102.31944152264226" y="177.69171305897214"/>
      <point x="318.0587483743957" y="-40.37697923418132"/>
      <point x="629.0" y="-42.0" type="curve" smooth="yes"/>
      <point x="788.6382560429198" y="-41.7451516755749"/>
      <point x="954.2008332061272" y="9.056586479189225"/>
      <point x="1069.2322414884022" y="89.82527831393622" type="curve" smooth="yes"/>
      <point x="1115.2322733815645" y="119.47685959421261"/>
      <point x="1130.664364380162" y="171.6851771466026"/>
      <point x="1097.2730277043552" y="224.21077508310873" type="curve" smooth="yes"/>
      <point x="1054.1933834985791" y="279.4808384839873"/>
      <point x="973.4371195399676" y="276.4438876365706"/>
      <point x="935.7037691849912" y="252.84281985563422" type="curve" smooth="yes"/>
      <point x="847.898964498093" y="181.75383482510543"/>
      <point x="743.5238994817872" y="145.7559235185227"/>
      <point x="629.0" y="146.0" type="curve" smooth="yes"/>
      <point x="453.15375386268613" y="144.33870050682717"/>
      <point x="349.81089286040515" y="274.1684092001392"/>
      <point x="353.0" y="462.0" type="curve" smooth="yes"/>
      <point x="349.81089286040515" y="649.8315907998608"/>
      <point x="453.15375386268613" y="779.6612994931728"/>
      <point x="629.0" y="778.0" type="curve" smooth="yes"/>
      <point x="734.726992551513" y="778.17152818007"/>
      <point x="828.6325537267212" y="750.8897707106155"/>
      <point x="920.6617688958088" y="684.5608174704911" type="curve" smooth="yes"/>
      <point x="959.5388812526755" y="662.2128536035971"/>
      <point x="1040.6827373445503" y="662.2825783158197"/>
      <point x="1079.4946820296339" y="719.6998170642215" type="curve" smooth="yes"/>
      <point x="1110.1522511882788" y="773.2577578422001"/>
      <point x="1090.8543327665586" y="825.2973114919612"/>
      <point x="1043.121173044753" y="852.7792257405532" type="curve" smooth="yes"/>
      <point x="924.5937589693131" y="927.257820857769"/>
      <point x="777.3777289979522" y="965.8226712098514"/>
      <point x="629.0" y="966.0" type="curve" smooth="yes"/>
      <point x="318.0587483743957" y="964.3769792341814"/>
      <point x="102.31944152264226" y="746.3082869410279"/>
    </contour>
  </outline>
</glyph>
<glyph name="d" format="2">
  <advance width="1228"/>
  <unicode hex="0064"/>
  <outline>
    <contour>
      <point x="960.0" y="1342.0" type="line" smooth="yes"/>
      <point x="892.0628681269408" y="1341.3716613729468"/>
      <point x="839.7409589499039" y="1308.3375816596265"/>
      <point x="838.0" y="1257.0" type="curve" smooth="yes"/>
      <point x="839.0618139911068" y="785.1834390382257" type="line"/>
      <point x="838.0458733749008" y="897.8900017701559"/>
      <point x="714.3312555044761" y="965.3287536677303"/>
      <point x="569.0" y="966.0" type="curve" smooth="yes"/>
      <point x="303.29057356550453" y="964.4181624698559"/>
      <point x="94.10211178247471" y="771.0732726788973"/>
      <point x="91.0" y="462.0" type="curve" smooth="yes"/>
      <point x="94.10211178247471" y="152.92672732110267"/>
      <point x="303.29057356550453" y="-40.41816246985587"/>
      <point x="569.0" y="-42.0" type="curve" smooth="yes"/>
      <point x="713.9539699109097" y="-41.369858651936994"/>
      <point x="845.6345611808314" y="25.958076301271355"/>
      <point x="904.078230218817" y="128.28527148979185" type="curve"/>
      <point x="848.0" y="55.0" type="line" smooth="yes"/>
      <point x="849.3912858111312" y="4.219619057551921"/>
      <point x="899.2569011717333" y="-29.28232059540366"/>
      <point x="965.0" y="-30.0" type="curve" smooth="yes"/>
      <point x="967.0" y="-30.0" type="line" smooth="yes"/>
      <point x="1032.7430988282667" y="-29.28232059540366"/>
      <point x="1082.6087141888688" y="4.219619057551921"/>
      <point x="1084.0" y="55.0" type="curve" smooth="yes"/>
      <point x="1084.0" y="1257.0" type="line" smooth="yes"/>
      <point x="1082.2590410500961" y="1308.3375816596265"/>
      <point x="1029.9371318730591" y="1341.3716613729468"/>
      <point x="962.0" y="1342.0" type="curve" smooth="yes"/>
    </contour>
    <contour>
      <point x="838.0" y="462.0" type="curve" smooth="yes"/>
      <point x="841.2338381667894" y="257.2167671606118"/>
      <point x="738.0233766391672" y="144.54443337290215"/>
      <point x="579.0" y="146.0" type="curve" smooth="yes"/>
      <point x="419.1037124964165" y="143.96327908921165"/>
      <point x="338.8150389456814" y="271.96549986271896"/>
      <point x="341.0" y="462.0" type="curve" smooth="yes"/>
      <point x="338.8150389456814" y="652.034500137281"/>
      <point x="419.1037124964165" y="780.0367209107883"/>
      <point x="579.0" y="778.0" type="curve" smooth="yes"/>
      <point x="738.0233766391672" y="779.4555666270978"/>
      <point x="841.2338381667894" y="666.7832328393881"/>
    </contour>
  </outline>
</glyph>
<glyph name="e" format="2">
  <advance width="1228"/>
  <unicode hex="0065"/>
  <outline>
    <contour>
      <point x="100.0" y="462.0" type="curve" smooth="yes"/>
      <point x="102.5104133032253" y="154.61673327171636"/>
      <point x="293.08890462259217" y="-40.55543806174991"/>
      <point x="603.0" y="-42.0" type="curve" smooth="yes"/>
      <point x="763.7068065221686" y="-41.85814431700564"/>
      <point x="927.3375044691443" y="-3.95151414290822"/>
      <point x="1036.8679551598964" y="46.98896727270843" type="curve" smooth="yes"/>
      <point x="1089.9579295822584" y="70.45973694900366"/>
      <point x="1117.9353643874447" y="117.03756199972824"/>
      <point x="1098.0817106189465" y="168.86728566776068" type="curve" smooth="yes"/>
      <point x="1075.1357057266111" y="220.58000954470984"/>
      <point x="1004.0" y="251.0"/>
      <point x="939.2875484347427" y="226.38913114785535" type="curve" smooth="yes"/>
      <point x="854.9287346005171" y="174.69237393548028"/>
      <point x="731.1553396626651" y="142.85118220635206"/>
      <point x="603.0" y="143.0" type="curve" smooth="yes"/>
      <point x="433.87761999948617" y="141.87413161703626"/>
      <point x="356.808232707015" y="232.17129552154213"/>
      <point x="314.9470386691532" y="405.74127997963467" type="curve"/>
      <point x="1026.0" y="405.0" type="line" smooth="yes"/>
      <point x="1082.972843329596" y="405.6321652021243"/>
      <point x="1138.096618884174" y="436.42379610272087"/>
      <point x="1136.9198052325517" y="488.1556223126821" type="curve" smooth="yes"/>
      <point x="1119.0438196292691" y="759.9103172815418"/>
      <point x="938.8845053381278" y="964.3871155170459"/>
      <point x="623.0" y="966.0" type="curve" smooth="yes"/>
      <point x="325.93139060005655" y="964.5289064442426"/>
      <point x="103.50959827605473" y="760.5069892716024"/>
    </contour>
    <contour>
      <point x="915.1161094835581" y="584.3773437031983" type="curve"/>
      <point x="323.7545647704" y="584.3910337198776" type="line"/>
      <point x="385.89743896076004" y="701.5301400965568"/>
      <point x="471.63520141155516" y="781.9523127696051"/>
      <point x="623.0" y="781.0" type="curve" smooth="yes"/>
      <point x="784.7206219821435" y="781.9054828830988"/>
      <point x="856.806470926557" y="705.4647391924423"/>
    </contour>
  </outline>
</glyph>
<glyph name="f" format="2">
  <advance width="1228"/>
  <unicode hex="0066"/>
  <outline>
    <contour>
      <point x="400.0" y="967.0" type="curve" smooth="yes"/>
      <point x="422.67120633277733" y="860.9888250206982" type="line"/>
      <point x="250.0" y="864.0" type="line" smooth="yes"/>
      <point x="190.47620164351173" y="863.0624853428908"/>
      <point x="140.43315999302408" y="828.8507125007267"/>
      <point x="139.0" y="772.0" type="curve" smooth="yes"/>
      <point x="140.43315999302408" y="715.1492874992733"/>
      <point x="190.47620164351173" y="680.9375146571092"/>
      <point x="250.0" y="680.0" type="curve" smooth="yes"/>
      <point x="402.11338815001665" y="694.1307822052347" type="line"/>
      <point x="400.0" y="55.0" type="line" smooth="yes"/>
      <point x="401.74095894990387" y="3.6624183403735255"/>
      <point x="454.0628681269408" y="-29.371661372946928"/>
      <point x="522.0" y="-30.0" type="curve" smooth="yes"/>
      <point x="524.0" y="-30.0" type="line" smooth="yes"/>
      <point x="591.9371318730592" y="-29.371661372946928"/>
      <point x="644.2590410500961" y="3.6624183403735255"/>
      <point x="646.0" y="55.0" type="curve" smooth="yes"/>
      <point x="640.2983581359658" y="690.5457158171549" type="line"/>
      <point x="944.0" y="680.0" type="line" smooth="yes"/>
      <point x="1003.5237983564882" y="680.9375146571092"/>
      <point x="1053.566840006976" y="715.1492874992733"/>
      <point x="1055.0" y="772.0" type="curve" smooth="yes"/>
      <point x="1053.566840006976" y="828.8507125007267"/>
      <point x="1003.5237983564882" y="863.0624853428908"/>
      <point x="944.0" y="864.0" type="curve" smooth="yes"/>
      <point x="612.5428611678925" y="863.0599619851924" type="line"/>
      <point x="646.0" y="954.0" type="line" smooth="yes"/>
      <point x="644.2089791063296" y="1085.5876579771773"/>
      <point x="676.6742837691846" y="1152.405180617837"/>
      <point x="800.0" y="1151.0" type="curve" smooth="yes"/>
      <point x="873.304670035702" y="1151.1412836771187"/>
      <point x="944.7819646010854" y="1132.8975374742474"/>
      <point x="1019.7163714855269" y="1103.3415373991484" type="curve" smooth="yes"/>
      <point x="1076.0414947127736" y="1088.0401909474238"/>
      <point x="1141.438246117716" y="1115.9060682533768"/>
      <point x="1157.7108163204953" y="1168.395887280238" type="curve" smooth="yes"/>
      <point x="1169.9636103220237" y="1219.7786300376952"/>
      <point x="1138.8578199400079" y="1265.3194850765997"/>
      <point x="1083.2555953955973" y="1284.6629666512667" type="curve" smooth="yes"/>
      <point x="999.645349278654" y="1316.174837221638"/>
      <point x="899.131709093617" y="1336.8853727377657"/>
      <point x="800.0" y="1337.0" type="curve" smooth="yes"/>
      <point x="559.2581712053377" y="1335.7440322382988"/>
      <point x="402.92007615996255" y="1192.8693217280056"/>
    </contour>
  </outline>
</glyph>
<glyph name="g" format="2">
  <advance width="1228"/>
  <unicode hex="0067"/>
  <outline>
    <contour>
      <point x="91.0" y="487.0" type="curve" smooth="yes"/>
      <point x="94.41304936861869" y="192.59312639293503"/>
      <point x="304.17324753500304" y="9.430466182294815"/>
      <point x="569.0" y="8.0" type="curve" smooth="yes"/>
      <point x="713.1796461932117" y="8.550030745728176"/>
      <point x="838.0408920784877" y="69.74486073065776"/>
      <point x="848.0510722489727" y="171.7534097535492" type="curve"/>
      <point x="838.0" y="-17.0" type="line" smooth="yes"/>
      <point x="840.8845416071746" y="-157.17129966503154"/>
      <point x="781.0416710589448" y="-243.137689431916"/>
      <point x="608.0" y="-242.0" type="curve" smooth="yes"/>
      <point x="505.02486965686603" y="-242.10989094157188"/>
      <point x="392.5764192139738" y="-218.69868995633186"/>
      <point x="295.08046404743067" y="-183.15570619441718" type="curve" smooth="yes"/>
      <point x="244.22590713352352" y="-170.00260094935751"/>
      <point x="177.94079338207672" y="-191.37523612561807"/>
      <point x="154.5084433182384" y="-246.6191710924922" type="curve" smooth="yes"/>
      <point x="135.09347623282136" y="-302.7524342768964"/>
      <point x="163.39177882231112" y="-348.05153389413755"/>
      <point x="214.5723533239937" y="-364.79223218240116" type="curve" smooth="yes"/>
      <point x="334.1404104151684" y="-407.3799282929214"/>
      <point x="477.9836003354399" y="-429.9298619718702"/>
      <point x="608.0" y="-430.0" type="curve" smooth="yes"/>
      <point x="894.0190620759765" y="-428.9957404507031"/>
      <point x="1080.3627572722482" y="-276.6370097497182"/>
      <point x="1084.0" y="-30.0" type="curve" smooth="yes"/>
      <point x="1084.0" y="869.0" type="line" smooth="yes"/>
      <point x="1082.6087141888688" y="919.7803809424481"/>
      <point x="1032.7430988282667" y="953.2823205954037"/>
      <point x="967.0" y="954.0" type="curve" smooth="yes"/>
      <point x="965.0" y="954.0" type="line" smooth="yes"/>
      <point x="899.2569011717333" y="953.2823205954037"/>
      <point x="849.3912858111312" y="919.7803809424481"/>
      <point x="848.0" y="869.0" type="curve" smooth="yes"/>
      <point x="904.078230218817" y="795.7147285102081" type="line"/>
      <point x="845.6345611808314" y="898.0419236987286"/>
      <point x="713.9539699109097" y="965.369858651937"/>
      <point x="569.0" y="966.0" type="curve" smooth="yes"/>
      <point x="304.17324753500304" y="964.5695338177052"/>
      <point x="94.41304936861869" y="781.406873607065"/>
    </contour>
    <contour>
      <point x="838.0" y="487.0" type="curve" smooth="yes"/>
      <point x="841.7134017186141" y="297.71336786787265"/>
      <point x="739.2907267210354" y="194.74907491462764"/>
      <point x="579.0" y="196.0" type="curve" smooth="yes"/>
      <point x="417.86254132645684" y="194.2073295492521"/>
      <point x="338.47796763750216" y="312.39762406476115"/>
      <point x="341.0" y="487.0" type="curve" smooth="yes"/>
      <point x="338.47796763750216" y="661.6023759352388"/>
      <point x="417.86254132645684" y="779.7926704507479"/>
      <point x="579.0" y="778.0" type="curve" smooth="yes"/>
      <point x="739.2907267210354" y="779.2509250853724"/>
      <point x="841.7134017186141" y="676.2866321321274"/>
    </contour>
  </outline>
</glyph>
<glyph name="h" format="2">
  <advance width="1228"/>
  <unicode hex="0068"/>
  <outline>
    <contour>
      <point x="276.0" y="1342.0" type="line" smooth="yes"/>
      <point x="208.06286812694083" y="1341.3716613729468"/>
      <point x="155.74095894990387" y="1308.3375816596265"/>
      <point x="154.0" y="1257.0" type="curve" smooth="yes"/>
      <point x="154.0" y="55.0" type="line" smooth="yes"/>
      <point x="155.74095894990387" y="3.6624183403735255"/>
      <point x="208.06286812694083" y="-29.371661372946928"/>
      <point x="276.0" y="-30.0" type="curve" smooth="yes"/>
      <point x="278.0" y="-30.0" type="line" smooth="yes"/>
      <point x="345.9371318730592" y="-29.371661372946928"/>
      <point x="398.25904105009613" y="3.6624183403735255"/>
      <point x="400.0" y="55.0" type="curve" smooth="yes"/>
      <point x="400.0" y="392.0" type="line" smooth="yes"/>
      <point x="395.5159389318326" y="611.5594083968429"/>
      <point x="562.274805423316" y="780.0717931825989"/>
      <point x="712.0" y="778.0" type="curve" smooth="yes"/>
      <point x="822.0918736681999" y="779.6170993996388"/>
      <point x="847.7135455236479" y="714.7038383263241"/>
      <point x="846.0" y="605.0" type="curve" smooth="yes"/>
      <point x="846.0" y="55.0" type="line" smooth="yes"/>
      <point x="847.7409589499039" y="3.6624183403735255"/>
      <point x="900.0628681269408" y="-29.371661372946928"/>
      <point x="968.0" y="-30.0" type="curve" smooth="yes"/>
      <point x="970.0" y="-30.0" type="line" smooth="yes"/>
      <point x="1037.9371318730591" y="-29.371661372946928"/>
      <point x="1090.2590410500961" y="3.6624183403735255"/>
      <point x="1092.0" y="55.0" type="curve" smooth="yes"/>
      <point x="1092.0" y="620.0" type="line" smooth="yes"/>
      <point x="1089.3527115474453" y="826.5501743415916"/>
      <point x="948.7296676876653" y="964.585663548247"/>
      <point x="727.0" y="966.0" type="curve" smooth="yes"/>
      <point x="577.306332698213" y="965.0398710916012"/>
      <point x="411.0934119831437" y="869.5604371756001"/>
      <point x="398.7903170792142" y="724.4617632372385" type="curve"/>
      <point x="400.0" y="1257.0" type="line" smooth="yes"/>
      <point x="398.25904105009613" y="1308.3375816596265"/>
      <point x="345.9371318730592" y="1341.3716613729468"/>
      <point x="278.0" y="1342.0" type="curve" smooth="yes"/>
    </contour>
  </outline>
</glyph>
<glyph name="k" format="2">
  <advance width="1228"/>
  <unicode hex="006B"/>
  <outline>
    <contour>
      <point x="879.0777245055183" y="938.9360228654493" type="curve" smooth="yes"/>
      <point x="407.5709634934242" y="469.573155755284" type="line"/>
      <point x="430.0" y="1257.0" type="line" smooth="yes"/>
      <point x="428.25904105009613" y="1308.3375816596265"/>
      <point x="375.9371318730592" y="1341.3716613729468"/>
      <point x="308.0" y="1342.0" type="curve" smooth="yes"/>
      <point x="306.0" y="1342.0" type="line" smooth="yes"/>
      <point x="238.06286812694083" y="1341.3716613729468"/>
      <point x="185.74095894990387" y="1308.3375816596265"/>
      <point x="184.0" y="1257.0" type="curve" smooth="yes"/>
      <point x="184.0" y="55.0" type="line" smooth="yes"/>
      <point x="185.74095894990387" y="3.6624183403735255"/>
      <point x="238.06286812694083" y="-29.371661372946928"/>
      <point x="306.0" y="-30.0" type="curve" smooth="yes"/>
      <point x="308.0" y="-30.0" type="line" smooth="yes"/>
      <point x="375.9371318730592" y="-29.371661372946928"/>
      <point x="428.25904105009613" y="3.6624183403735255"/>
      <point x="430.0" y="55.0" type="curve" smooth="yes"/>
      <point x="424.9669685495221" y="249.64090188009453" type="line"/>
      <point x="542.3528223615297" y="399.08102220739397" type="line"/>
      <point x="902.4211955246396" y="-10.425131078038463" type="line" smooth="yes"/>
      <point x="941.5223035657772" y="-42.0886318502302"/>
      <point x="1008.1123111350646" y="-40.68585698656477"/>
      <point x="1061.8613756505626" y="-12.353727745863683" type="curve" smooth="yes"/>
      <point x="1121.8620831908688" y="19.2523035036008"/>
      <point x="1135.0080703490798" y="68.98533534559914"/>
      <point x="1095.4315656637734" y="108.49256581967326" type="curve" smooth="yes"/>
      <point x="722.9046726961524" y="516.925775603295" type="line"/>
      <point x="1066.6633677092937" y="817.9686026208076" type="line" smooth="yes"/>
      <point x="1114.3699488096788" y="855.3702468978065"/>
      <point x="1096.3593275889498" y="909.5254258536966"/>
      <point x="1038.559371354781" y="941.1838368755936" type="curve" smooth="yes"/>
      <point x="985.0300879210467" y="968.2489935197281"/>
      <point x="917.7972759607736" y="964.5061027732135"/>
    </contour>
  </outline>
</glyph>
<glyph name="l" format="2">
  <advance width="1228"/>
  <unicode hex="006C"/>
  <outline>
    <contour>
      <point x="240.0" y="164.0" type="line" smooth="yes"/>
      <point x="180.47620164351173" y="163.06248534289085"/>
      <point x="130.43315999302408" y="128.85071250072667"/>
      <point x="129.0" y="72.0" type="curve" smooth="yes"/>
      <point x="130.43315999302408" y="15.14928749927334"/>
      <point x="180.47620164351173" y="-19.062485342890852"/>
      <point x="240.0" y="-20.0" type="curve" smooth="yes"/>
      <point x="1024.0" y="-20.0" type="line" smooth="yes"/>
      <point x="1083.5237983564882" y="-19.062485342890852"/>
      <point x="1133.566840006976" y="15.14928749927334"/>
      <point x="1135.0" y="72.0" type="curve" smooth="yes"/>
      <point x="1133.566840006976" y="128.85071250072667"/>
      <point x="1083.5237983564882" y="163.06248534289085"/>
      <point x="1024.0" y="164.0" type="curve" smooth="yes"/>
      <point x="749.0781229145167" y="149.60268085437875" type="line"/>
      <point x="751.0" y="1244.0" type="line" smooth="yes"/>
      <point x="749.4018509373526" y="1299.1178512063257"/>
      <point x="698.1866141390741" y="1331.2304789528164"/>
      <point x="640.0" y="1332.0" type="curve" smooth="yes"/>
      <point x="280.0" y="1332.0" type="line" smooth="yes"/>
      <point x="220.47620164351173" y="1331.0624853428908"/>
      <point x="170.43315999302408" y="1296.8507125007266"/>
      <point x="169.0" y="1240.0" type="curve" smooth="yes"/>
      <point x="170.43315999302408" y="1183.1492874992734"/>
      <point x="220.47620164351173" y="1148.9375146571092"/>
      <point x="280.0" y="1148.0" type="curve" smooth="yes"/>
      <point x="506.6199712338307" y="1162.847921609227" type="line"/>
      <point x="507.09651678120485" y="149.84626881814896" type="line"/>
    </contour>
  </outline>
</glyph>
<glyph name="n" format="2">
  <advance width="1228"/>
  <unicode hex="006E"/>
  <outline>
    <contour>
      <point x="354.57529151975695" y="724.5747643976833" type="curve"/>
      <point x="401.7998473959371" y="870.7338022023156" type="line" smooth="yes"/>
      <point x="398.9942575779893" y="917.7159394347474"/>
      <point x="345.4950187833787" y="953.9649312365226"/>
      <point x="273.49535333885206" y="954.002541095276" type="curve" smooth="yes"/>
      <point x="270.50464666114794" y="954.002541095276" type="line" smooth="yes"/>
      <point x="198.5049812166213" y="953.9649312365226"/>
      <point x="145.0057424220107" y="917.7159394347474"/>
      <point x="142.0000167527007" y="868.9841072627187" type="curve" smooth="yes"/>
      <point x="142.00002617470008" y="55.01986539053595" type="line" smooth="yes"/>
      <point x="145.47581483262726" y="5.614152275426063"/>
      <point x="201.6521034472331" y="-29.984764763642374"/>
      <point x="275.5821415298674" y="-30.00180816396666" type="curve" smooth="yes"/>
      <point x="278.4178584701326" y="-30.00180816396666" type="line" smooth="yes"/>
      <point x="352.3478965527669" y="-29.984764763642374"/>
      <point x="408.52418516737276" y="5.614152275426063"/>
      <point x="411.99987139533846" y="55.04403359846898" type="curve" smooth="yes"/>
      <point x="411.9995674881045" y="391.91924794529103" type="line" smooth="yes"/>
      <point x="406.5080788974637" y="611.4267181539104"/>
      <point x="567.340582273178" y="780.1382168762464"/>
      <point x="711.9259865980887" y="777.9999432752022" type="curve" smooth="yes"/>
      <point x="818.9038259966221" y="779.9414779995112"/>
      <point x="835.7199814420937" y="713.7456960442836"/>
      <point x="834.0000445046933" y="604.9740964623471" type="curve" smooth="yes"/>
      <point x="834.0000539979903" y="55.02853283549295" type="line" smooth="yes"/>
      <point x="837.4758148326272" y="5.61415227542607"/>
      <point x="893.6521034472331" y="-29.984764763642374"/>
      <point x="967.5821415298674" y="-30.00180816396666" type="curve" smooth="yes"/>
      <point x="970.4178584701326" y="-30.00180816396666" type="line" smooth="yes"/>
      <point x="1044.3478965527668" y="-29.984764763642378"/>
      <point x="1100.5241851673727" y="5.61415227542607"/>
      <point x="1103.9999485828976" y="55.02784260997895" type="curve" smooth="yes"/>
      <point x="1103.9999241170035" y="619.9661757419645" type="line" smooth="yes"/>
      <point x="1100.4617099722286" y="826.2085460034907"/>
      <point x="953.7564013515785" y="964.717466112845"/>
      <point x="727.0343520742568" y="966.0000122196134" type="curve" smooth="yes"/>
      <point x="561.0636816720039" y="964.8964541474729"/>
      <point x="386.6692185426722" y="856.5743056080804"/>
    </contour>
  </outline>
</glyph>
<glyph name="o" format="2">
  <advance width="1228"/>
  <unicode hex="006F"/>
  <outline>
    <contour>
      <point x="86.0" y="462.0" type="curve" smooth="yes"/>
      <point x="89.76838596302969" y="172.23205125383785"/>
      <point x="319.38150547116976" y="-40.4341529988418"/>
      <point x="614.0" y="-42.0" type="curve" smooth="yes"/>
      <point x="908.6184945288302" y="-40.4341529988418"/>
      <point x="1138.2316140369703" y="172.23205125383785"/>
      <point x="1142.0" y="462.0" type="curve" smooth="yes"/>
      <point x="1138.2316140369703" y="751.7679487461621"/>
      <point x="908.6184945288302" y="964.4341529988418"/>
      <point x="614.0" y="966.0" type="curve" smooth="yes"/>
      <point x="319.38150547116976" y="964.4341529988418"/>
      <point x="89.76838596302969" y="751.7679487461621"/>
    </contour>
    <contour>
      <point x="892.0" y="462.0" type="curve" smooth="yes"/>
      <point x="895.2338381667894" y="272.2167671606118"/>
      <point x="791.1736380248157" y="144.39746404049788"/>
      <point x="614.0" y="146.0" type="curve" smooth="yes"/>
      <point x="436.82636197518434" y="144.39746404049788"/>
      <point x="332.7661618332106" y="272.2167671606118"/>
      <point x="336.0" y="462.0" type="curve" smooth="yes"/>
      <point x="332.7661618332106" y="651.7832328393881"/>
      <point x="436.82636197518434" y="779.6025359595021"/>
      <point x="614.0" y="778.0" type="curve" smooth="yes"/>
      <point x="791.1736380248157" y="779.6025359595021"/>
      <point x="895.2338381667894" y="651.7832328393881"/>
    </contour>
  </outline>
</glyph>
<glyph name="p" format="2">
  <advance width="1228"/>
  <unicode hex="0070"/>
  <outline>
    <contour>
      <point x="323.921769781183" y="795.7147285102081" type="curve"/>
      <point x="380.0" y="869.0" type="line" smooth="yes"/>
      <point x="378.60871418886876" y="919.7803809424481"/>
      <point x="328.74309882826674" y="953.2823205954037"/>
      <point x="263.0" y="954.0" type="curve" smooth="yes"/>
      <point x="261.0" y="954.0" type="line" smooth="yes"/>
      <point x="195.25690117173323" y="953.2823205954037"/>
      <point x="145.39128581113124" y="919.7803809424481"/>
      <point x="144.0" y="869.0" type="curve" smooth="yes"/>
      <point x="144.0" y="-333.0" type="line" smooth="yes"/>
      <point x="145.74095894990387" y="-384.3375816596265"/>
      <point x="198.06286812694083" y="-417.3716613729469"/>
      <point x="266.0" y="-418.0" type="curve" smooth="yes"/>
      <point x="268.0" y="-418.0" type="line" smooth="yes"/>
      <point x="335.9371318730592" y="-417.3716613729469"/>
      <point x="388.25904105009613" y="-384.3375816596265"/>
      <point x="390.0" y="-333.0" type="curve" smooth="yes"/>
      <point x="388.93818600889324" y="138.81656096177423" type="line"/>
      <point x="389.9541266250992" y="26.10999822984406"/>
      <point x="513.6687444955239" y="-41.32875366773037"/>
      <point x="659.0" y="-42.0" type="curve" smooth="yes"/>
      <point x="924.7094264344954" y="-40.41816246985587"/>
      <point x="1133.8978882175254" y="152.92672732110267"/>
      <point x="1137.0" y="462.0" type="curve" smooth="yes"/>
      <point x="1133.8978882175254" y="771.0732726788973"/>
      <point x="924.7094264344954" y="964.4181624698559"/>
      <point x="659.0" y="966.0" type="curve" smooth="yes"/>
      <point x="514.0460300890903" y="965.369858651937"/>
      <point x="382.3654388191686" y="898.0419236987286"/>
    </contour>
    <contour>
      <point x="887.0" y="462.0" type="curve" smooth="yes"/>
      <point x="889.1849610543186" y="271.96549986271896"/>
      <point x="808.8962875035835" y="143.96327908921165"/>
      <point x="649.0" y="146.0" type="curve" smooth="yes"/>
      <point x="489.97662336083283" y="144.54443337290215"/>
      <point x="386.7661618332106" y="257.2167671606118"/>
      <point x="390.0" y="462.0" type="curve" smooth="yes"/>
      <point x="386.7661618332106" y="666.7832328393881"/>
      <point x="489.97662336083283" y="779.4555666270978"/>
      <point x="649.0" y="778.0" type="curve" smooth="yes"/>
      <point x="808.8962875035835" y="780.0367209107883"/>
      <point x="889.1849610543186" y="652.034500137281"/>
    </contour>
  </outline>
</glyph>
<glyph name="q" format="2">
  <advance width="1228"/>
  <unicode hex="0071"/>
  <outline>
    <contour>
      <point x="91.0" y="462.0" type="curve" smooth="yes"/>
      <point x="94.10211178247471" y="152.92672732110267"/>
      <point x="303.29057356550453" y="-40.41816246985587"/>
      <point x="569.0" y="-42.0" type="curve" smooth="yes"/>
      <point x="714.3312555044761" y="-41.32875366773037"/>
      <point x="838.0458733749008" y="26.10999822984406"/>
      <point x="839.0618139911068" y="138.81656096177423" type="curve"/>
      <point x="838.0" y="-333.0" type="line" smooth="yes"/>
      <point x="839.7409589499039" y="-384.3375816596265"/>
      <point x="892.0628681269408" y="-417.3716613729469"/>
      <point x="960.0" y="-418.0" type="curve" smooth="yes"/>
      <point x="962.0" y="-418.0" type="line" smooth="yes"/>
      <point x="1029.9371318730591" y="-417.3716613729469"/>
      <point x="1082.2590410500961" y="-384.3375816596265"/>
      <point x="1084.0" y="-333.0" type="curve" smooth="yes"/>
      <point x="1084.0" y="869.0" type="line" smooth="yes"/>
      <point x="1082.6087141888688" y="919.7803809424481"/>
      <point x="1032.7430988282667" y="953.2823205954037"/>
      <point x="967.0" y="954.0" type="curve" smooth="yes"/>
      <point x="965.0" y="954.0" type="line" smooth="yes"/>
      <point x="899.2569011717333" y="953.2823205954037"/>
      <point x="849.3912858111312" y="919.7803809424481"/>
      <point x="848.0" y="869.0" type="curve" smooth="yes"/>
      <point x="904.078230218817" y="795.7147285102081" type="line"/>
      <point x="845.6345611808314" y="898.0419236987286"/>
      <point x="713.9539699109097" y="965.369858651937"/>
      <point x="569.0" y="966.0" type="curve" smooth="yes"/>
      <point x="303.29057356550453" y="964.4181624698559"/>
      <point x="94.10211178247471" y="771.0732726788973"/>
    </contour>
    <contour>
      <point x="838.0" y="462.0" type="curve" smooth="yes"/>
      <point x="841.2338381667894" y="257.2167671606118"/>
      <point x="738.0233766391672" y="144.54443337290215"/>
      <point x="579.0" y="146.0" type="curve" smooth="yes"/>
      <point x="419.1037124964165" y="143.96327908921165"/>
      <point x="338.8150389456814" y="271.96549986271896"/>
      <point x="341.0" y="462.0" type="curve" smooth="yes"/>
      <point x="338.8150389456814" y="652.034500137281"/>
      <point x="419.1037124964165" y="780.0367209107883"/>
      <point x="579.0" y="778.0" type="curve" smooth="yes"/>
      <point x="738.0233766391672" y="779.4555666270978"/>
      <point x="841.2338381667894" y="666.7832328393881"/>
    </contour>
  </outline>
</glyph>
<glyph name="s" format="2">
  <advance width="1228"/>
  <unicode hex="0073"/>
  <outline>
    <contour>
      <point x="1096.0" y="277.0" type="curve" smooth="yes"/>
      <point x="1093.1170133775631" y="409.8269164979207"/>
      <point x="1003.8062519864131" y="484.1221604620024"/>
      <point x="900.6284855024487" y="520.7615402906843" type="curve" smooth="yes"/>
      <point x="743.4196650261257" y="575.8721050957944"/>
      <point x="535.3232367994935" y="561.9520088151409"/>
      <point x="435.74458030212696" y="597.0330366645103" type="curve" smooth="yes"/>
      <point x="395.6884096718492" y="610.8419609479955"/>
      <point x="387.80885961891346" y="625.1732947050211"/>
      <point x="392.0" y="660.0" type="curve" smooth="yes"/>
      <point x="384.8497286143844" y="742.4978534590679"/>
      <point x="440.97225074585367" y="781.4363830853912"/>
      <point x="570.0" y="781.0" type="curve" smooth="yes"/>
      <point x="683.1457285578053" y="781.1493094776159"/>
      <point x="789.2566611046424" y="753.2562019394339"/>
      <point x="890.1655067652166" y="700.1889990631755" type="curve" smooth="yes"/>
      <point x="936.4816546686719" y="681.317459651098"/>
      <point x="1009.0465750686905" y="693.7932806860401"/>
      <point x="1039.9160544755007" y="750.9271958684741" type="curve" smooth="yes"/>
      <point x="1065.767588285008" y="807.0342556261313"/>
      <point x="1037.2692183800857" y="854.4166612980371"/>
      <point x="987.5740551019037" y="876.866014381264" type="curve" smooth="yes"/>
      <point x="860.2314448960467" y="938.9663585870313"/>
      <point x="710.422391021654" y="965.9149339276406"/>
      <point x="564.0" y="966.0" type="curve" smooth="yes"/>
      <point x="339.9495050401583" y="965.3594721433884"/>
      <point x="148.23475986866072" y="858.8571808002287"/>
      <point x="142.0" y="660.0" type="curve" smooth="yes"/>
      <point x="144.6987904696919" y="537.3882415468947"/>
      <point x="226.12542257167837" y="466.1545719867698"/>
      <point x="322.3716437579814" y="429.39761320475395" type="curve" smooth="yes"/>
      <point x="479.40707299698494" y="371.1362314773869"/>
      <point x="694.4971693610443" y="386.05332552816867"/>
      <point x="797.5733641331994" y="348.0610497170975" type="curve" smooth="yes"/>
      <point x="840.4933065841809" y="332.33486272595593"/>
      <point x="849.8186710802036" y="316.1825274171593"/>
      <point x="846.0" y="277.0" type="curve" smooth="yes"/>
      <point x="851.5179429532676" y="195.31019107355337"/>
      <point x="801.2706967605043" y="142.39368921874296"/>
      <point x="644.0" y="143.0" type="curve" smooth="yes"/>
      <point x="518.0438208191667" y="142.8408259215068"/>
      <point x="401.6968394002894" y="174.5910945827508"/>
      <point x="298.4620046272383" y="234.4480097702563" type="curve" smooth="yes"/>
      <point x="253.16416065627868" y="254.54646280053595"/>
      <point x="180.13791680913107" y="243.74769649639921"/>
      <point x="146.89646552427917" y="187.80030495545967" type="curve" smooth="yes"/>
      <point x="118.4474156874258" y="132.72436680957458"/>
      <point x="144.73096406738034" y="84.99582666215062"/>
      <point x="193.9263231305207" y="60.4623151999379" type="curve" smooth="yes"/>
      <point x="328.5963329718382" y="-10.795868469768738"/>
      <point x="487.36161516514863" y="-41.90640158290368"/>
      <point x="654.0" y="-42.0" type="curve" smooth="yes"/>
      <point x="926.9850322362033" y="-41.132301045361466"/>
      <point x="1091.7475590320691" y="89.76989901152544"/>
    </contour>
  </outline>
</glyph>
<glyph name="v" format="2">
  <advance width="1228"/>
  <unicode hex="0076"/>
  <outline>
    <contour>
      <point x="910.2741993493473" y="902.2501510661609" type="curve" smooth="yes"/>
      <point x="614.0" y="163.0" type="line"/>
      <point x="317.7258006506527" y="902.2501510661609" type="line" smooth="yes"/>
      <point x="290.2960967582133" y="951.0875348887788"/>
      <point x="220.4134989664008" y="965.6773982019981"/>
      <point x="158.2972804398385" y="942.4193450213712" type="curve" smooth="yes"/>
      <point x="96.5883438603181" y="918.1200885898904"/>
      <point x="65.31940467040647" y="874.6965895976042"/>
      <point x="89.35255199935133" y="824.6781299361567" type="curve" smooth="yes"/>
      <point x="452.3615938878911" y="31.669901544588456" type="line" smooth="yes"/>
      <point x="479.22280592996196" y="-15.852245239529424"/>
      <point x="538.8639979824309" y="-41.63439030091616"/>
      <point x="614.0" y="-42.0" type="curve" smooth="yes"/>
      <point x="689.1360020175691" y="-41.63439030091616"/>
      <point x="748.777194070038" y="-15.852245239529424"/>
      <point x="775.6384061121089" y="31.669901544588456" type="curve" smooth="yes"/>
      <point x="1138.6474480006486" y="824.6781299361567" type="line" smooth="yes"/>
      <point x="1162.6805953295934" y="874.6965895976042"/>
      <point x="1131.4116561396818" y="918.1200885898904"/>
      <point x="1069.7027195601615" y="942.4193450213712" type="curve" smooth="yes"/>
      <point x="1007.5865010335992" y="965.6773982019981"/>
      <point x="937.7039032417867" y="951.0875348887788"/>
    </contour>
  </outline>
</glyph>
<glyph name="w" format="2">
  <advance width="1228"/>
  <unicode hex="0077"/>
  <outline>
    <contour>
      <point x="976.284499114083" y="887.5958536751192" type="curve" smooth="yes"/>
      <point x="845.4443918998375" y="228.44515805194732" type="line"/>
      <point x="734.5935700924251" y="749.2531431850076" type="line" smooth="yes"/>
      <point x="720.0690885995518" y="780.0118949165435"/>
      <point x="672.5537755492935" y="809.0585156002652"/>
      <point x="614.0" y="810.0" type="curve" smooth="yes"/>
      <point x="555.4462244507065" y="809.0585156002652"/>
      <point x="507.9309114004481" y="780.0118949165435"/>
      <point x="493.4064299075748" y="749.2531431850076" type="curve" smooth="yes"/>
      <point x="382.55560810016254" y="228.44515805194732" type="line"/>
      <point x="251.71550088591698" y="887.5958536751192" type="line" smooth="yes"/>
      <point x="236.02772883328612" y="939.6615468582266"/>
      <point x="173.0" y="961.0"/>
      <point x="108.66801296409675" y="949.6183818368421" type="curve" smooth="yes"/>
      <point x="40.533747416002015" y="936.8885438199983"/>
      <point x="2.0" y="896.0"/>
      <point x="15.404384249733702" y="844.1975015028789" type="curve" smooth="yes"/>
      <point x="214.4043842497337" y="38.197501502878964" type="line" smooth="yes"/>
      <point x="229.67502330223437" y="-12.609450497632915"/>
      <point x="280.0460300890903" y="-41.369858651936994"/>
      <point x="343.0" y="-42.0" type="curve" smooth="yes"/>
      <point x="410.24137443487245" y="-41.53946438232239"/>
      <point x="469.46522519890135" y="-14.384199576606164"/>
      <point x="490.5855776240494" y="36.736748594067286" type="curve" smooth="yes"/>
      <point x="614.0" y="535.0" type="line"/>
      <point x="737.4144223759506" y="36.736748594067286" type="line" smooth="yes"/>
      <point x="758.5347748010986" y="-14.384199576606164"/>
      <point x="817.7586255651275" y="-41.53946438232239"/>
      <point x="885.0" y="-42.0" type="curve" smooth="yes"/>
      <point x="947.9539699109097" y="-41.369858651936994"/>
      <point x="998.3249766977656" y="-12.609450497632915"/>
      <point x="1013.5956157502663" y="38.197501502878964" type="curve" smooth="yes"/>
      <point x="1212.5956157502662" y="844.1975015028789" type="line" smooth="yes"/>
      <point x="1226.0" y="896.0"/>
      <point x="1187.466252583998" y="936.8885438199983"/>
      <point x="1119.3319870359032" y="949.6183818368421" type="curve" smooth="yes"/>
      <point x="1055.0" y="961.0"/>
      <point x="991.9722711667139" y="939.6615468582266"/>
    </contour>
  </outline>
</glyph>
<glyph name="x" format="2">
  <advance width="1228"/>
  <unicode hex="0078"/>
  <outline>
    <contour>
      <point x="869.6208191721731" y="922.047424196999" type="curve" smooth="yes"/>
      <point x="620.0" y="596.7216796875" type="line"/>
      <point x="370.37918082782693" y="922.047424196999" type="line" smooth="yes"/>
      <point x="328.99092383558946" y="961.8143037971466"/>
      <point x="262.6687444955239" y="966.3287536677303"/>
      <point x="204.1714177211958" y="942.213754555341" type="curve" smooth="yes"/>
      <point x="146.26235273622294" y="918.0041761904074"/>
      <point x="118.7706732478628" y="866.6179092629252"/>
      <point x="160.69677105009686" y="821.9158999175651" type="curve" smooth="yes"/>
      <point x="463.77840470470886" y="471.4512252475283" type="line"/>
      <point x="147.53592268760764" y="102.00621556642803" type="line" smooth="yes"/>
      <point x="106.7706732478628" y="57.3820907370748"/>
      <point x="132.95783924390275" y="6.108611187070194"/>
      <point x="191.1714177211958" y="-18.213754555340962" type="curve" smooth="yes"/>
      <point x="249.66874449552392" y="-42.32875366773037"/>
      <point x="315.99092383558946" y="-37.81430379714668"/>
      <point x="357.56511521135303" y="2.0431247499016454" type="curve" smooth="yes"/>
      <point x="620.0" y="347.03363037109375" type="line"/>
      <point x="882.434884788647" y="2.0431247499016454" type="line" smooth="yes"/>
      <point x="924.0090761644105" y="-37.81430379714668"/>
      <point x="990.3312555044761" y="-42.32875366773037"/>
      <point x="1048.828582278804" y="-18.213754555340962" type="curve" smooth="yes"/>
      <point x="1107.0421607560972" y="6.108611187070194"/>
      <point x="1133.2293267521372" y="57.3820907370748"/>
      <point x="1092.4640773123924" y="102.00621556642803" type="curve" smooth="yes"/>
      <point x="776.2215952952912" y="471.4512252475283" type="line"/>
      <point x="1079.303228949903" y="821.9158999175651" type="line" smooth="yes"/>
      <point x="1121.2293267521372" y="866.6179092629252"/>
      <point x="1093.737647263777" y="918.0041761904074"/>
      <point x="1035.828582278804" y="942.213754555341" type="curve" smooth="yes"/>
      <point x="977.3312555044761" y="966.3287536677303"/>
      <point x="911.0090761644105" y="961.8143037971466"/>
    </contour>
  </outline>
</glyph>
<glyph name="y" format="2">
  <advance width="1228"/>
  <unicode hex="0079"/>
  <outline>
    <contour>
      <point x="910.996650278427" y="902.8849896118952" type="curve" smooth="yes"/>
      <point x="615.0" y="231.0" type="line"/>
      <point x="316.93250516799594" y="902.9442719099992" type="line" smooth="yes"/>
      <point x="288.2960967582133" y="950.0875348887788"/>
      <point x="220.802237270275" y="965.7061604079928"/>
      <point x="158.2972804398385" y="942.4193450213712" type="curve" smooth="yes"/>
      <point x="96.76775851159778" y="918.1747216860638"/>
      <point x="63.31940467040648" y="873.6965895976042"/>
      <point x="90.11627043033177" y="824.0151966822333" type="curve" smooth="yes"/>
      <point x="482.76660022308585" y="39.13492827379882" type="line"/>
      <point x="316.1261171061698" y="-288.0070420528086" type="line" smooth="yes"/>
      <point x="289.4962912479829" y="-337.13141855362215"/>
      <point x="320.2" y="-382.0"/>
      <point x="382.2972804398385" y="-406.41934502137116" type="curve" smooth="yes"/>
      <point x="444.69475178465376" y="-429.6983451261417"/>
      <point x="511.6425416977175" y="-413.91884482932346"/>
      <point x="539.904654115761" y="-366.96744357700436" type="curve" smooth="yes"/>
      <point x="1136.9046541157609" y="824.0325564229956" type="line" smooth="yes"/>
      <point x="1163.5968197369386" y="873.4132163186447"/>
      <point x="1131.5140653396406" y="918.088665339207"/>
      <point x="1069.7027195601615" y="942.4193450213712" type="curve" smooth="yes"/>
      <point x="1007.0929835978803" y="965.7136779948366"/>
      <point x="938.7039032417867" y="950.0875348887788"/>
    </contour>
  </outline>
</glyph>
<glyph name="z" format="2">
  <advance width="1228"/>
  <unicode hex="007A"/>
  <outline>
    <contour>
      <point x="261.0" y="944.0" type="line" smooth="yes"/>
      <point x="201.47620164351173" y="943.0624853428908"/>
      <point x="151.43315999302408" y="908.8507125007267"/>
      <point x="150.0" y="852.0" type="curve" smooth="yes"/>
      <point x="151.43315999302408" y="795.1492874992733"/>
      <point x="201.47620164351173" y="760.9375146571092"/>
      <point x="261.0" y="760.0" type="curve" smooth="yes"/>
      <point x="748.0133388182005" y="782.0579830217101" type="line"/>
      <point x="156.41490008210977" y="126.42223398875605" type="line" smooth="yes"/>
      <point x="139.73738720373558" y="111.48199646070034"/>
      <point x="130.32877099250194" y="89.33682495134795"/>
      <point x="130.0" y="68.0" type="curve" smooth="yes"/>
      <point x="131.59814906264742" y="12.88214879367435"/>
      <point x="182.81338586092585" y="-19.230478952816462"/>
      <point x="241.0" y="-20.0" type="curve" smooth="yes"/>
      <point x="987.0" y="-20.0" type="line" smooth="yes"/>
      <point x="1046.5237983564882" y="-19.062485342890852"/>
      <point x="1096.566840006976" y="15.14928749927334"/>
      <point x="1098.0" y="72.0" type="curve" smooth="yes"/>
      <point x="1096.566840006976" y="128.85071250072667"/>
      <point x="1046.5237983564882" y="163.06248534289085"/>
      <point x="987.0" y="164.0" type="curve" smooth="yes"/>
      <point x="470.1624145129519" y="142.86071183272628" type="line"/>
      <point x="1060.590034578289" y="796.580037680157" type="line" smooth="yes"/>
      <point x="1075.1596604342021" y="809.7100848914495"/>
      <point x="1087.346908343943" y="831.7120202538929"/>
      <point x="1088.0" y="856.0" type="curve" smooth="yes"/>
      <point x="1086.4018509373525" y="911.1178512063257"/>
      <point x="1035.1866141390742" y="943.2304789528165"/>
      <point x="977.0" y="944.0" type="curve" smooth="yes"/>
    </contour>
  </outline>
</glyph>
<glyph name="braceleft" format="2">
  <advance width="1228"/>
  <unicode hex="007B"/>
  <outline>
    <contour>
      <point x="457.1093179337328" y="957.6509667023587" type="curve" smooth="yes"/>
      <point x="462.10456816831675" y="883.6805666162071" type="line" smooth="yes"/>
      <point x="474.3931218780704" y="721.7834877974407"/>
      <point x="426.33934649986634" y="631.7565850702626"/>
      <point x="240.0" y="633.0" type="curve" smooth="yes"/>
      <point x="180.47620164351173" y="632.0624853428908"/>
      <point x="130.43315999302408" y="597.8507125007267"/>
      <point x="129.0" y="541.0" type="curve" smooth="yes"/>
      <point x="130.43315999302408" y="484.1492874992733"/>
      <point x="180.47620164351173" y="449.93751465710915"/>
      <point x="240.0" y="449.0" type="curve" smooth="yes"/>
      <point x="438.3878691365599" y="449.94923798718156"/>
      <point x="484.2921462004796" y="371.39067232241575"/>
      <point x="468.18410698438146" y="204.75001860699055" type="curve" smooth="yes"/>
      <point x="457.18944211125387" y="81.77514447606731" type="line" smooth="yes"/>
      <point x="434.64197435370795" y="-207.54378295744527"/>
      <point x="634.4058433966475" y="-352.1811489952607"/>
      <point x="927.0" y="-353.0" type="curve" smooth="yes"/>
      <point x="986.5237983564882" y="-352.06248534289085"/>
      <point x="1036.566840006976" y="-317.8507125007267"/>
      <point x="1038.0" y="-261.0" type="curve" smooth="yes"/>
      <point x="1036.566840006976" y="-204.14928749927333"/>
      <point x="986.5237983564882" y="-169.93751465710915"/>
      <point x="927.0" y="-169.0" type="curve" smooth="yes"/>
      <point x="738.5702204051079" y="-169.81590865349338"/>
      <point x="688.5765738474929" y="-100.165539487953"/>
      <point x="702.8956775063538" y="90.68211579188493" type="curve" smooth="yes"/>
      <point x="710.8914212890478" y="211.65553043071526" type="line" smooth="yes"/>
      <point x="721.0543181586156" y="377.9504558155554"/>
      <point x="635.1764771335819" y="497.7642561889452"/>
      <point x="440.98823127484127" y="554.8579138113513" type="curve"/>
      <point x="445.22838778843436" y="527.862732468176" type="line"/>
      <point x="622.6358340785428" y="598.6474354564835"/>
      <point x="711.6500497046657" y="710.2901392125098"/>
      <point x="705.9554722626287" y="875.8612692575903" type="curve" smooth="yes"/>
      <point x="702.9596188471205" y="947.8202049243133" type="line" smooth="yes"/>
      <point x="693.9418374222844" y="1138.8236799446365"/>
      <point x="728.9431169739375" y="1208.8623884671445"/>
      <point x="927.0" y="1208.0" type="curve" smooth="yes"/>
      <point x="986.5237983564882" y="1208.9375146571092"/>
      <point x="1036.566840006976" y="1243.1492874992734"/>
      <point x="1038.0" y="1300.0" type="curve" smooth="yes"/>
      <point x="1036.566840006976" y="1356.8507125007266"/>
      <point x="986.5237983564882" y="1391.0624853428908"/>
      <point x="927.0" y="1392.0" type="curve" smooth="yes"/>
      <point x="634.2360030893007" y="1391.1601093359168"/>
      <point x="440.64197435370795" y="1246.5437829574453"/>
    </contour>
  </outline>
</glyph>
<glyph name="bar" format="2">
  <advance width="1228"/>
  <unicode hex="007C"/>
  <outline>
    <contour>
      <point x="479.0000086460516" y="1328.988582652103" type="curve" smooth="yes"/>
      <point x="479.0000086460516" y="-289.98858265210316" type="line" smooth="yes"/>
      <point x="482.70736648581646" y="-339.7327090680642"/>
      <point x="539.9157386648486" y="-374.9771538386676"/>
      <point x="614.0" y="-375.0" type="curve" smooth="yes"/>
      <point x="688.0842613351514" y="-374.9771538386676"/>
      <point x="745.2926335141835" y="-339.7327090680642"/>
      <point x="748.9999913539484" y="-289.98858265210316" type="curve" smooth="yes"/>
      <point x="748.9999913539484" y="1328.988582652103" type="line" smooth="yes"/>
      <point x="745.2926335141835" y="1378.7327090680642"/>
      <point x="688.0842613351514" y="1413.9771538386676"/>
      <point x="614.0" y="1414.0" type="curve" smooth="yes"/>
      <point x="539.9157386648486" y="1413.9771538386676"/>
      <point x="482.70736648581646" y="1378.7327090680642"/>
    </contour>
  </outline>
</glyph>
<glyph name="asciitilde" format="2">
  <advance width="1228"/>
  <unicode hex="007E"/>
  <outline>
    <contour>
      <point x="116.01778356188628" y="578.4121484852931" type="curve" smooth="yes"/>
      <point x="94.2935807356663" y="545.208630521497"/>
      <point x="112.9540485229792" y="501.8057847830062"/>
      <point x="153.29780284155515" y="474.9695175444856" type="curve" smooth="yes"/>
      <point x="197.71525666041532" y="448.18618667207073"/>
      <point x="265.4983587311688" y="451.3330195861014"/>
      <point x="299.8363729637497" y="480.1772119429985" type="curve" smooth="yes"/>
      <point x="340.60822117768885" y="532.9484661058624"/>
      <point x="371.34131790583507" y="557.6723613256319"/>
      <point x="418.0" y="557.0" type="curve" smooth="yes"/>
      <point x="514.9458403580297" y="560.2026955010947"/>
      <point x="623.8618987676743" y="411.47705734376234"/>
      <point x="810.0" y="409.0" type="curve" smooth="yes"/>
      <point x="932.584890128546" y="410.08355727151115"/>
      <point x="1046.286762736967" y="484.4417129204269"/>
      <point x="1111.9822164381137" y="585.5878515147069" type="curve" smooth="yes"/>
      <point x="1133.7064192643338" y="618.791369478503"/>
      <point x="1115.0459514770207" y="662.1942152169938"/>
      <point x="1074.702197158445" y="689.0304824555144" type="curve" smooth="yes"/>
      <point x="1030.2847433395846" y="715.8138133279292"/>
      <point x="962.5016412688312" y="712.6669804138986"/>
      <point x="928.1636270362503" y="683.8227880570015" type="curve" smooth="yes"/>
      <point x="887.3917788223112" y="631.0515338941376"/>
      <point x="856.658682094165" y="606.3276386743681"/>
      <point x="810.0" y="607.0" type="curve" smooth="yes"/>
      <point x="712.0541596419703" y="603.7973044989053"/>
      <point x="604.2042896400401" y="752.5077410572375"/>
      <point x="418.0" y="755.0" type="curve" smooth="yes"/>
      <point x="295.4151098714539" y="753.9164427284888"/>
      <point x="181.7132372630331" y="679.5582870795731"/>
    </contour>
  </outline>
</glyph>
<glyph name="cent" format="2">
  <advance width="1228"/>
  <unicode hex="00A2"/>
  <outline>
    <contour>
      <point x="526.0" y="1247.0" type="curve" smooth="yes"/>
      <point x="526.0" y="-60.0" type="line" smooth="yes"/>
      <point x="528.3246139419059" y="-112.14860966166651"/>
      <point x="582.4263696796205" y="-144.3016254918107"/>
      <point x="644.0" y="-145.0" type="curve" smooth="yes"/>
      <point x="705.5736303203795" y="-144.3016254918107"/>
      <point x="759.6753860580941" y="-112.14860966166651"/>
      <point x="762.0" y="-60.0" type="curve" smooth="yes"/>
      <point x="762.0" y="1247.0" type="line" smooth="yes"/>
      <point x="759.6753860580941" y="1299.1486096616666"/>
      <point x="705.5736303203795" y="1331.3016254918107"/>
      <point x="644.0" y="1332.0" type="curve" smooth="yes"/>
      <point x="582.4263696796205" y="1331.3016254918107"/>
      <point x="528.3246139419059" y="1299.1486096616666"/>
    </contour>
    <component base="c" yOffset="140"/>
  </outline>
</glyph>
<glyph name="sterling" format="2">
  <advance width="1228"/>
  <unicode hex="00A3"/>
  <outline>
    <contour>
      <point x="242.0" y="884.0" type="curve" smooth="yes"/>
      <point x="243.27312014231916" y="788.8757504318392"/>
      <point x="285.8617401449068" y="710.9191072891982"/>
      <point x="324.4239361875501" y="658.6790463854715" type="curve"/>
      <point x="283.0" y="668.0" type="line" smooth="yes"/>
      <point x="223.47620164351173" y="667.0624853428908"/>
      <point x="173.43315999302408" y="632.8507125007267"/>
      <point x="172.0" y="576.0" type="curve" smooth="yes"/>
      <point x="173.43315999302408" y="519.1492874992733"/>
      <point x="223.47620164351173" y="484.93751465710915"/>
      <point x="283.0" y="484.0" type="curve" smooth="yes"/>
      <point x="416.27745990348734" y="484.1732662409686" type="line"/>
      <point x="379.30736938079275" y="481.6876983040133"/>
      <point x="381.08220018809584" y="464.2091192417213"/>
      <point x="381.0" y="445.0" type="curve" smooth="yes"/>
      <point x="381.9703899454497" y="345.0012102795102"/>
      <point x="351.94011327530814" y="266.1866632369703"/>
      <point x="239.18916529604664" y="152.19621585326246" type="curve" smooth="yes"/>
      <point x="220.24522613162088" y="135.8003317868462"/>
      <point x="206.6979144442713" y="115.39813833015292"/>
      <point x="206.0" y="95.0" type="curve" smooth="yes"/>
      <point x="207.34778975273974" y="48.29385598382901"/>
      <point x="243.37754960884502" y="-14.273681769829938"/>
      <point x="308.0" y="-20.0" type="curve" smooth="yes"/>
      <point x="915.0" y="-20.0" type="line" smooth="yes"/>
      <point x="974.5237983564882" y="-19.062485342890852"/>
      <point x="1024.566840006976" y="15.14928749927334"/>
      <point x="1026.0" y="72.0" type="curve" smooth="yes"/>
      <point x="1024.566840006976" y="128.85071250072667"/>
      <point x="974.5237983564882" y="163.06248534289085"/>
      <point x="915.0" y="164.0" type="curve" smooth="yes"/>
      <point x="467.351172448021" y="163.43271370177501" type="line"/>
      <point x="577.226135915683" y="225.08796226245576"/>
      <point x="627.9798625062031" y="331.89858343199813"/>
      <point x="629.0" y="446.0" type="curve" smooth="yes"/>
      <point x="628.9704940532073" y="467.049907244207"/>
      <point x="627.355501282108" y="487.6877695828761"/>
      <point x="580.8435001803174" y="484.0606133193788" type="curve"/>
      <point x="815.0" y="484.0" type="line" smooth="yes"/>
      <point x="874.5237983564882" y="484.93751465710915"/>
      <point x="924.5668400069759" y="519.1492874992733"/>
      <point x="926.0" y="576.0" type="curve" smooth="yes"/>
      <point x="924.5668400069759" y="632.8507125007267"/>
      <point x="874.5237983564882" y="667.0624853428908"/>
      <point x="815.0" y="668.0" type="curve" smooth="yes"/>
      <point x="544.7061267448191" y="667.3426045010584" type="line"/>
      <point x="534.6265407486982" y="742.6617760129884"/>
      <point x="489.6586603364059" y="806.964023168675"/>
      <point x="492.0" y="884.0" type="curve" smooth="yes"/>
      <point x="488.72198408332446" y="974.7358359186691"/>
      <point x="532.0243157824185" y="1042.6379230581088"/>
      <point x="627.0" y="1041.0" type="curve" smooth="yes"/>
      <point x="703.3475895041522" y="1041.2557998424438"/>
      <point x="766.8912561122559" y="1017.0377472786215"/>
      <point x="829.5653285462337" y="973.3062296157856" type="curve" smooth="yes"/>
      <point x="870.5091981746687" y="951.9331554929852"/>
      <point x="947.3411018593342" y="955.8518007679885"/>
      <point x="985.1549280101641" y="1011.4351442221163" type="curve" smooth="yes"/>
      <point x="1017.925805698238" y="1067.7925174215716"/>
      <point x="995.3246885645679" y="1113.5411306164176"/>
      <point x="950.530473250747" y="1138.9363336805943" type="curve" smooth="yes"/>
      <point x="859.3368852272679" y="1194.1161908633708"/>
      <point x="746.416946410641" y="1228.7597940990563"/>
      <point x="628.0" y="1229.0" type="curve" smooth="yes"/>
      <point x="404.6316638155528" y="1227.4776715188784"/>
      <point x="245.57592377526458" y="1076.5748745357562"/>
    </contour>
  </outline>
</glyph>
<glyph name="currency" format="2">
  <advance width="1228"/>
  <unicode hex="00A4"/>
  <outline>
    <contour>
      <point x="156.0" y="602.0" type="curve" smooth="yes"/>
      <point x="156.55340557324556" y="508.68901150506645"/>
      <point x="187.13457241712788" y="422.1283982589581"/>
      <point x="232.2932761057968" y="374.2510209914302" type="curve"/>
      <point x="100.05887450304571" y="238.14213562373095" type="line" smooth="yes"/>
      <point x="59.50831317896531" y="201.30255855545252"/>
      <point x="61.72697229564474" y="154.78922491689127"/>
      <point x="106.05887450304573" y="113.85786437626905" type="curve" smooth="yes"/>
      <point x="152.49413980053907" y="73.80290512318531"/>
      <point x="226.32614053308603" y="72.29513049123554"/>
      <point x="269.94112549695427" y="107.85786437626905" type="curve" smooth="yes"/>
      <point x="400.2187957943361" y="247.40788428260245" type="line"/>
      <point x="424.8843164402382" y="204.24512269447862"/>
      <point x="518.4886010675773" y="178.20530006026362"/>
      <point x="614.0" y="178.0" type="curve" smooth="yes"/>
      <point x="709.5114001460224" y="178.20530013328036"/>
      <point x="803.1156565126314" y="204.24512336278195"/>
      <point x="827.7811761535768" y="247.40788378916247" type="curve"/>
      <point x="958.0588774551219" y="107.8578631462374" type="line" smooth="yes"/>
      <point x="1001.673859466914" y="72.29513049123554"/>
      <point x="1075.505860199461" y="73.80290512318531"/>
      <point x="1121.9411254969543" y="113.85786437626905" type="curve" smooth="yes"/>
      <point x="1166.2730277043552" y="154.78922491689127"/>
      <point x="1168.4916868210346" y="201.30255855545252"/>
      <point x="1127.9411254969543" y="238.14213562373095" type="curve" smooth="yes"/>
      <point x="995.7067251208628" y="374.2510198918412" type="line"/>
      <point x="1040.8654428416612" y="422.1283982589581"/>
      <point x="1071.446595060268" y="508.6890132283146"/>
      <point x="1072.0" y="602.0" type="curve" smooth="yes"/>
      <point x="1071.4465952543487" y="695.3109557261796"/>
      <point x="1040.865444598783" y="781.8716307713679"/>
      <point x="995.7067239805172" y="829.7489790859424" type="curve"/>
      <point x="1127.9411254969543" y="965.857864376269" type="line" smooth="yes"/>
      <point x="1168.4916868210346" y="1002.6974414445475"/>
      <point x="1166.2730277043552" y="1049.2107750831087"/>
      <point x="1121.9411254969543" y="1090.1421356237308" type="curve" smooth="yes"/>
      <point x="1075.505860199461" y="1130.1970948768146"/>
      <point x="1001.673859466914" y="1131.7048695087644"/>
      <point x="958.0588745030457" y="1096.1421356237308" type="curve" smooth="yes"/>
      <point x="827.7811761535768" y="956.5920856932594" type="line"/>
      <point x="803.1156640217008" y="999.7548751911978"/>
      <point x="709.5114001460224" y="1025.7946998667196"/>
      <point x="614.0" y="1026.0" type="curve" smooth="yes"/>
      <point x="518.4886010675773" y="1025.7946999397363"/>
      <point x="424.8843089311695" y="999.7548758595016"/>
      <point x="400.2187957943361" y="956.5920851998194" type="curve"/>
      <point x="269.9411284490302" y="1096.1421343936993" type="line" smooth="yes"/>
      <point x="226.32614053308603" y="1131.7048695087644"/>
      <point x="152.49413980053907" y="1130.1970948768146"/>
      <point x="106.05887450304573" y="1090.1421356237308" type="curve" smooth="yes"/>
      <point x="61.72697229564474" y="1049.2107750831087"/>
      <point x="59.50831317896531" y="1002.6974414445475"/>
      <point x="100.05887450304571" y="965.857864376269" type="curve" smooth="yes"/>
      <point x="232.29327724614257" y="829.7489779863533" type="line"/>
      <point x="187.13457066000615" y="781.8716307713679"/>
      <point x="156.55340537916464" y="695.3109574494274"/>
    </contour>
    <contour>
      <point x="828.0" y="602.0" type="curve" smooth="yes"/>
      <point x="831.444856606429" y="457.44002871552954"/>
      <point x="752.4185845987001" y="358.4406471028052"/>
      <point x="614.0" y="360.0" type="curve" smooth="yes"/>
      <point x="475.58141540129986" y="358.4406471028052"/>
      <point x="396.55514339357103" y="457.44002871552954"/>
      <point x="400.0" y="602.0" type="curve" smooth="yes"/>
      <point x="396.55514339357103" y="746.5599712844705"/>
      <point x="475.58141540129986" y="845.5593528971948"/>
      <point x="614.0" y="844.0" type="curve" smooth="yes"/>
      <point x="752.4185845987001" y="845.5593528971948"/>
      <point x="831.444856606429" y="746.5599712844705"/>
    </contour>
  </outline>
</glyph>
<glyph name="yen" format="2">
  <advance width="1228"/>
  <unicode hex="00A5"/>
  <outline>
    <contour>
      <point x="233.0" y="454.0" type="line" smooth="yes"/>
      <point x="173.47620164351173" y="453.06248534289085"/>
      <point x="123.43315999302408" y="418.8507125007267"/>
      <point x="122.0" y="362.0" type="curve" smooth="yes"/>
      <point x="123.43315999302408" y="305.1492874992733"/>
      <point x="173.47620164351173" y="270.93751465710915"/>
      <point x="233.0" y="270.0" type="curve" smooth="yes"/>
      <point x="509.7639541980407" y="274.13789004361786" type="line"/>
      <point x="491.0" y="55.0" type="line" smooth="yes"/>
      <point x="492.74095894990387" y="3.6624183403735255"/>
      <point x="545.0628681269408" y="-29.371661372946928"/>
      <point x="613.0" y="-30.0" type="curve" smooth="yes"/>
      <point x="615.0" y="-30.0" type="line" smooth="yes"/>
      <point x="682.9371318730592" y="-29.371661372946928"/>
      <point x="735.2590410500961" y="3.6624183403735255"/>
      <point x="737.0" y="55.0" type="curve" smooth="yes"/>
      <point x="718.2360458019592" y="274.13789004361786" type="line"/>
      <point x="995.0" y="270.0" type="line" smooth="yes"/>
      <point x="1054.5237983564882" y="270.93751465710915"/>
      <point x="1104.566840006976" y="305.1492874992733"/>
      <point x="1106.0" y="362.0" type="curve" smooth="yes"/>
      <point x="1104.566840006976" y="418.8507125007267"/>
      <point x="1054.5237983564882" y="453.06248534289085"/>
      <point x="995.0" y="454.0" type="curve" smooth="yes"/>
      <point x="697.2597492491141" y="453.70166616588835" type="line"/>
      <point x="732.861512420154" y="479.32912608990574" type="line"/>
      <point x="778.4565708394041" y="581.0949178604044" type="line"/>
      <point x="1015.0" y="580.0" type="line" smooth="yes"/>
      <point x="1074.5237983564882" y="580.9375146571092"/>
      <point x="1124.566840006976" y="615.1492874992733"/>
      <point x="1126.0" y="672.0" type="curve" smooth="yes"/>
      <point x="1124.566840006976" y="728.8507125007267"/>
      <point x="1074.5237983564882" y="763.0624853428908"/>
      <point x="1015.0" y="764.0" type="curve" smooth="yes"/>
      <point x="904.2074470083832" y="739.9386899788935" type="line"/>
      <point x="1128.1517824703972" y="1085.0405231549587" type="line" smooth="yes"/>
      <point x="1160.179068762293" y="1130.5435179945052"/>
      <point x="1138.3897752063328" y="1178.1306922971703"/>
      <point x="1075.0876853685206" y="1205.164396343875" type="curve" smooth="yes"/>
      <point x="1015.7932563215404" y="1229.4878239138925"/>
      <point x="947.9560031583892" y="1220.923243882462"/>
      <point x="914.7370500559546" y="1182.8884404636174" type="curve" smooth="yes"/>
      <point x="614.1995849609375" y="666.019775390625" type="line"/>
      <point x="313.2827114815775" y="1182.8757435544974" type="line" smooth="yes"/>
      <point x="281.0439968416108" y="1220.923243882462"/>
      <point x="212.33658338419082" y="1229.5002294594658"/>
      <point x="152.91231463147932" y="1205.164396343875" type="curve" smooth="yes"/>
      <point x="89.61022479366713" y="1178.1306922971703"/>
      <point x="67.82093123770709" y="1130.5435179945052"/>
      <point x="99.83557926666568" y="1085.0485659618337" type="curve" smooth="yes"/>
      <point x="323.5233574349763" y="739.9386899788935" type="line"/>
      <point x="213.0" y="764.0" type="line" smooth="yes"/>
      <point x="153.47620164351173" y="763.0624853428908"/>
      <point x="103.43315999302408" y="728.8507125007267"/>
      <point x="102.0" y="672.0" type="curve" smooth="yes"/>
      <point x="103.43315999302408" y="615.1492874992733"/>
      <point x="153.47620164351173" y="580.9375146571092"/>
      <point x="213.0" y="580.0" type="curve" smooth="yes"/>
      <point x="449.0758777840148" y="581.1076566900506" type="line"/>
      <point x="495.1757333331943" y="478.5837027949594" type="line"/>
      <point x="530.846866261249" y="453.7093745771367" type="line"/>
    </contour>
  </outline>
</glyph>
<glyph name="brokenbar" format="2">
  <advance width="1228"/>
  <unicode hex="00A6"/>
  <outline>
    <contour>
      <point x="491.0" y="1329.0" type="curve" smooth="yes"/>
      <point x="491.0" y="730.0" type="line" smooth="yes"/>
      <point x="492.9279466075783" y="678.3886601637436"/>
      <point x="546.2123703614415" y="645.6124512523709"/>
      <point x="614.0" y="645.0" type="curve" smooth="yes"/>
      <point x="681.7876296385585" y="645.6124512523709"/>
      <point x="735.0720533924217" y="678.3886601637436"/>
      <point x="737.0" y="730.0" type="curve" smooth="yes"/>
      <point x="737.0" y="1329.0" type="line" smooth="yes"/>
      <point x="735.0720533924217" y="1380.6113398362565"/>
      <point x="681.7876296385585" y="1413.3875487476291"/>
      <point x="614.0" y="1414.0" type="curve" smooth="yes"/>
      <point x="546.2123703614415" y="1413.3875487476291"/>
      <point x="492.9279466075783" y="1380.6113398362565"/>
    </contour>
    <contour>
      <point x="491.0" y="309.0" type="curve" smooth="yes"/>
      <point x="491.0" y="-290.0" type="line" smooth="yes"/>
      <point x="492.9279466075783" y="-341.6113398362565"/>
      <point x="546.2123703614415" y="-374.3875487476292"/>
      <point x="614.0" y="-375.0" type="curve" smooth="yes"/>
      <point x="681.7876296385585" y="-374.3875487476292"/>
      <point x="735.0720533924217" y="-341.6113398362565"/>
      <point x="737.0" y="-290.0" type="curve" smooth="yes"/>
      <point x="737.0" y="309.0" type="line" smooth="yes"/>
      <point x="735.0720533924217" y="360.6113398362565"/>
      <point x="681.7876296385585" y="393.3875487476292"/>
      <point x="614.0" y="394.0" type="curve" smooth="yes"/>
      <point x="546.2123703614415" y="393.3875487476292"/>
      <point x="492.9279466075783" y="360.6113398362565"/>
    </contour>
  </outline>
</glyph>
